<svg width="102" height="101" viewBox="0 0 102 101" fill="none" xmlns="http://www.w3.org/2000/svg">
<g clip-path="url(#clip0_506_21106)">
<path d="M81.842 60.8804C79.9399 60.2464 78.054 59.5961 76.1519 58.9783C74.8675 58.5556 73.5832 58.1166 72.2663 57.7915C71.7136 57.6614 71.1283 57.5964 70.5593 57.5151L70.7056 57.7752C70.8844 55.0927 69.9578 52.459 68.5271 50.2155C67.0639 47.9069 65.0805 46.0048 63.1296 44.1189C61.2275 42.2981 59.3253 40.4772 57.8297 38.2987C57.0981 37.2582 56.4965 36.1365 56.0413 34.9497C55.5536 33.6653 55.391 32.316 55.2447 30.9666C55.1147 29.6497 54.9521 28.3004 54.3831 27.081C53.9116 26.0568 53.115 25.1139 52.0257 24.7074C49.7822 23.8783 47.3761 25.3577 46.1405 27.1948C44.6123 29.5034 44.4822 32.381 44.4172 35.0472C44.3522 38.0874 44.5148 41.1275 44.9212 44.1352C45.2951 46.9315 45.8154 49.7928 47.0022 52.394C48.0101 54.605 49.5546 56.6372 51.6681 57.9053C52.172 58.2142 52.7085 58.4581 53.2613 58.6531C53.4726 58.7344 53.684 58.4743 53.7815 58.3117C53.8303 58.2142 54.0742 57.759 53.8628 57.6939C51.6518 56.9136 49.8635 55.2391 48.6279 53.2719C47.1972 50.9958 46.4982 48.3459 46.0267 45.7284C45.5065 42.8346 45.2301 39.892 45.1651 36.9656C45.1325 35.5349 45.1488 34.1043 45.2463 32.6736C45.3276 31.4381 45.4577 30.1862 45.8641 29.0157C46.043 28.4792 46.3031 27.9589 46.612 27.4875L46.6607 27.4224C46.612 27.4875 46.7095 27.3412 46.6607 27.4224C46.7095 27.3574 46.742 27.3249 46.7745 27.2761C46.8071 27.2274 46.8558 27.1623 46.9046 27.1136L46.9696 27.0323C46.9859 27.016 47.0184 26.9835 46.9859 27.016C47.1647 26.8372 47.3436 26.6583 47.5386 26.512C48.3515 25.8617 49.3595 25.5041 50.4 25.5203C51.473 25.5691 52.4647 26.1218 53.0825 26.9998C53.7978 27.9589 54.1229 29.1295 54.3018 30.3C54.5131 31.6819 54.5456 33.0963 54.887 34.462C55.1959 35.665 55.6674 36.8193 56.2852 37.9085C57.5533 40.1196 59.2928 41.9892 61.0974 43.7613C62.9995 45.6146 64.983 47.4029 66.6412 49.4839C68.2507 51.4998 69.5351 53.8897 69.8602 56.4746C69.9415 57.0762 69.9578 57.6777 69.9252 58.2955C69.9252 58.4093 69.9252 58.5393 70.0716 58.5556C70.5918 58.6369 71.1283 58.6857 71.6485 58.7995C72.1363 58.9133 72.5915 59.0433 73.0629 59.1896C74.7049 59.6936 76.3307 60.2301 77.9565 60.7666C79.0457 61.1243 80.135 61.4982 81.2242 61.8721C81.4356 61.9534 81.6469 61.6933 81.7445 61.5307C81.8257 61.4169 82.0533 60.9454 81.842 60.8804Z" fill="#CC338C"/>
<path d="M45.3919 44.249C41.2788 42.9159 37.0356 42.038 32.7273 41.664C30.7927 41.4852 28.6955 41.2413 26.8259 41.9079C25.1676 42.5094 23.8995 43.8913 23.4606 45.5984C23.0216 47.2891 23.3467 49.1913 24.6311 50.4431L25.1676 49.4514C23.0704 49.24 21.0382 50.3781 19.8839 52.0851C18.7459 53.7596 18.8109 55.8243 19.51 57.6614C19.8514 58.6369 20.4367 59.531 21.217 60.2301L21.5747 59.3034C19.9489 60.3439 18.7784 62.1322 18.5508 64.0669C18.437 64.9611 18.567 65.8715 18.9247 66.7006C19.3149 67.5135 19.8839 68.2126 20.5992 68.7653C21.3958 69.3994 22.3063 69.8546 23.2817 70.0984L23.6556 69.1067C22.794 69.2693 22.0461 69.9033 21.5259 70.5862C20.9244 71.334 20.5342 72.2282 20.3879 73.1874C20.2741 74.0978 20.5017 75.1058 20.8593 75.9511C21.2495 76.8616 21.9161 77.6582 22.7452 78.1947C23.7044 78.8775 24.7449 79.4628 25.8341 79.9017C26.9234 80.3244 28.0777 80.552 29.1995 80.8609C31.3942 81.4624 33.5727 82.0802 35.7512 82.698C39.8319 83.8523 43.9125 84.9741 48.0582 85.8845C50.3667 86.3885 52.6753 86.8437 55.0001 87.2176C57.0648 87.559 59.1621 87.6566 61.243 87.5102C62.0234 87.4615 62.8037 87.3639 63.5841 87.2826C63.9093 87.2501 64.2344 87.2013 64.5596 87.1688C64.7059 87.1526 64.8684 87.1363 65.0148 87.1363C65.1123 87.1363 65.1773 87.1038 65.2099 87.1038C65.3724 87.1526 65.535 87.2176 65.6813 87.2989L66.608 87.6891C67.5835 88.0955 68.5589 88.5019 69.5506 88.9084C70.1196 89.1522 70.6886 89.3798 71.2577 89.6075C71.6316 89.7538 72.1843 88.7783 71.8592 88.6483C70.0221 87.9004 68.185 87.1363 66.3479 86.3559C66.1853 86.2909 66.0065 86.2096 65.8439 86.1446C65.6488 86.0958 65.47 86.0958 65.2749 86.1446C64.6083 86.2096 63.9418 86.2909 63.259 86.3722C61.4869 86.5836 59.6823 86.6323 57.894 86.5185C55.5691 86.3559 53.2606 85.8682 50.9683 85.413C46.8551 84.5839 42.807 83.5434 38.7751 82.4379C36.7592 81.8689 34.7595 81.2999 32.7273 80.7309C31.6381 80.422 30.5326 80.1131 29.4433 79.8204C28.3215 79.5115 27.1673 79.2839 26.1105 78.8287C25.07 78.3735 24.0946 77.8045 23.1842 77.1379C22.3876 76.5852 21.786 75.7886 21.4609 74.8781C21.1682 74.0978 20.9732 73.1548 21.2008 72.3257C21.3796 71.6104 21.8023 70.9763 22.3713 70.5211C22.6639 70.2935 23.0053 70.1472 23.363 70.0822C23.6394 70.0334 24.1596 69.2043 23.7369 69.0905C22.225 68.684 20.7618 67.7248 19.9164 66.3917C19.1035 65.0586 19.0385 63.3841 19.7538 61.9859C20.144 61.2381 20.7293 60.604 21.4446 60.1651C21.656 60.035 22.0624 59.4823 21.8023 59.2384C20.5667 58.1817 19.8839 56.4259 19.7376 54.8326C19.6726 54.101 19.7538 53.3369 20.079 52.7191C20.4854 52.0038 21.087 51.4023 21.8185 51.0121C22.6964 50.5244 23.7044 50.313 24.6961 50.4268C25.0375 50.4594 25.4927 49.6952 25.2326 49.4351C24.2247 48.4597 23.8507 46.9802 24.0783 45.6309C24.1271 45.322 24.2247 45.0293 24.3385 44.7367C24.4523 44.4766 24.5986 44.2327 24.7774 44.0051C25.2489 43.4198 25.948 43.0297 26.6795 42.8021C28.4354 42.2331 30.37 42.4607 32.1583 42.6232C34.158 42.8021 36.1577 43.0784 38.1411 43.4524C40.3846 43.8913 42.6119 44.4603 44.7904 45.1919C45.1806 45.3382 45.7008 44.3465 45.3919 44.249Z" fill="#CC338C"/>
<path d="M25.4267 50.882C27.0362 51.0284 28.6456 51.2072 30.2551 51.4348C31.8646 51.6461 33.4579 51.9063 35.0511 52.1826C35.8477 52.329 36.6443 52.4753 37.441 52.6379C38.2051 52.7842 38.9692 52.9305 39.7333 53.1418C41.0176 53.4995 42.3507 54.101 43.1636 55.174C43.57 55.7105 43.8302 56.3283 43.944 56.9786C44.009 57.3363 44.0253 57.6777 44.0253 58.0354V58.0191C44.0253 58.0516 44.0253 58.0679 44.0253 58.1004V58.2142C44.0253 58.3117 44.009 58.4093 44.009 58.4906C43.9927 58.6694 43.9765 58.8482 43.944 59.0108C43.9277 59.0921 43.9115 59.1571 43.9115 59.2222C43.9115 59.2547 43.8952 59.3035 43.8952 59.336C43.8789 59.401 43.8952 59.3522 43.8952 59.336C43.9115 59.2709 43.8952 59.3685 43.8952 59.3685C43.8627 59.5311 43.8139 59.6774 43.7651 59.8237C43.7326 59.905 43.7164 59.97 43.6839 60.0513C43.6839 60.0513 43.7326 59.9538 43.7001 60.0025C43.7001 60.0188 43.6839 60.035 43.6839 60.0513L43.6351 60.1814C43.6026 60.2464 43.5701 60.3277 43.5375 60.3927C43.505 60.4577 43.6026 60.2789 43.5375 60.3765C43.5213 60.409 43.4888 60.4577 43.4725 60.4903C43.4562 60.5228 43.44 60.5553 43.4075 60.5878L43.375 60.6203C43.3262 60.7016 43.4075 60.5878 43.4075 60.5878C43.3587 60.6528 43.3099 60.7179 43.2449 60.7829C43.2286 60.7992 43.1636 60.8804 43.2124 60.8154C43.2612 60.7504 43.1799 60.8479 43.1636 60.8642L43.0823 60.9455L43.0498 60.978C43.0498 60.978 42.9685 61.043 43.0173 61.0105C43.0661 60.978 42.9685 61.043 42.9523 61.0593L42.871 61.108C42.8059 61.1568 42.7247 61.1893 42.6596 61.2381L42.6109 61.2706C42.6271 61.2544 42.6921 61.2381 42.6109 61.2706L42.4971 61.3194C42.432 61.3519 42.3507 61.3844 42.2857 61.4007C42.1394 61.4495 41.9768 61.4982 41.8142 61.5307C41.6842 61.5633 41.5379 61.5795 41.3915 61.5958C41.0664 61.6283 40.7412 61.6283 40.4161 61.612C39.7008 61.5795 38.9854 61.4657 38.2701 61.3844C36.6606 61.1893 35.0511 61.0105 33.4416 60.8317C31.8321 60.6528 30.2226 60.4577 28.6294 60.2301C27.0362 60.0025 25.4267 59.7587 23.8334 59.4498C23.4432 59.3685 23.0531 59.3035 22.6629 59.2222C22.5816 59.2059 22.4515 59.3035 22.3865 59.3522C22.2727 59.4498 22.1914 59.5798 22.1264 59.7099C22.0614 59.8562 21.9638 60.1651 22.1914 60.2139C23.8172 60.5553 25.4429 60.8317 27.0849 61.0593C28.7269 61.2869 30.3527 61.4982 31.9784 61.6933C33.6042 61.8884 35.2625 62.0672 36.9207 62.2623C37.7011 62.3599 38.4814 62.4574 39.2618 62.5387C39.9284 62.62 40.5949 62.62 41.2452 62.5387C41.9606 62.4412 42.6271 62.1323 43.1636 61.6446C43.7326 61.0918 44.1553 60.409 44.3829 59.6449C44.5943 58.9621 44.7243 58.263 44.7406 57.5476C44.7731 56.7835 44.6593 56.0194 44.3992 55.3041C43.9115 54.0035 42.7734 53.0931 41.5216 52.5566C40.79 52.2639 40.0259 52.0201 39.2456 51.8738C38.4489 51.6949 37.6523 51.5486 36.8557 51.386C35.2299 51.0771 33.6042 50.8008 31.9622 50.5569C30.3202 50.313 28.6944 50.1179 27.0362 49.9391C26.6297 49.9066 26.2395 49.8578 25.8331 49.8253C25.5405 49.8416 25.0365 50.8495 25.4267 50.882Z" fill="#CC338C"/>
<path d="M38.5963 62.5712C38.8727 62.6037 39.1328 62.6525 39.3929 62.7175L39.3116 62.7013C40.1082 62.9289 40.8398 63.3678 41.3926 63.9856L41.3438 63.9368C41.5552 64.1644 41.734 64.4246 41.8803 64.7009C41.9616 64.8473 42.0266 64.9936 42.0754 65.1399C42.1079 65.2212 42.1242 65.2862 42.1567 65.3675C42.1567 65.3838 42.173 65.4 42.173 65.4325C42.173 65.465 42.1892 65.4813 42.173 65.4488C42.1567 65.4163 42.173 65.4813 42.1892 65.4813L42.2055 65.5626C42.238 65.7252 42.2705 65.8877 42.2868 66.0503C42.303 66.1316 42.303 66.2129 42.303 66.2779C42.3193 66.3592 42.3193 66.4405 42.303 66.5218C42.303 66.5055 42.303 66.4405 42.303 66.5055C42.303 66.5218 42.303 66.538 42.303 66.5543C42.303 66.6031 42.303 66.6356 42.303 66.6844C42.303 66.7657 42.2868 66.8469 42.2705 66.9282C42.2542 67.0095 42.2542 67.0908 42.238 67.1558C42.238 67.1721 42.238 67.1883 42.238 67.2046C42.2217 67.2696 42.2542 67.1233 42.238 67.1721C42.2217 67.2371 42.2217 67.2696 42.2055 67.3021C42.1892 67.3347 42.173 67.4485 42.1404 67.5135C42.1242 67.546 42.1079 67.5948 42.1079 67.6273C42.1079 67.6273 42.1567 67.4972 42.1242 67.5785L42.0917 67.6273C42.0592 67.7086 42.0266 67.7736 41.9941 67.8549C41.9779 67.8712 41.9128 68.0012 41.9779 67.9037C42.0429 67.8061 41.9941 67.8712 41.9779 67.8874C41.9616 67.9037 41.9454 67.9362 41.9291 67.9687C41.8966 68.0337 41.8478 68.0988 41.8153 68.1475C41.7828 68.1963 41.8478 68.0988 41.8478 68.0988C41.8315 68.115 41.8153 68.1313 41.8153 68.1475C41.7828 68.1801 41.7665 68.2126 41.734 68.2451C41.7015 68.2776 41.6852 68.3101 41.6527 68.3426C41.6202 68.3751 41.5552 68.4564 41.6202 68.3914C41.6852 68.3264 41.5877 68.4239 41.5714 68.4402L41.4739 68.5215C41.4089 68.5702 41.3601 68.6353 41.295 68.684C41.2625 68.7003 41.165 68.7653 41.2625 68.7166C41.23 68.7328 41.1975 68.7653 41.165 68.7978C41.0349 68.8954 40.8886 68.9929 40.7423 69.0742L40.5309 69.188C40.6122 69.1393 40.4984 69.2043 40.4822 69.2205L40.3684 69.2693C40.2221 69.3343 40.0595 69.3994 39.8969 69.4482C39.1816 69.6758 38.4337 69.8221 37.6859 69.8383C36.873 69.8871 36.0601 69.8708 35.2635 69.8546C33.6052 69.8221 31.947 69.7408 30.305 69.627C28.6629 69.5132 27.0047 69.3343 25.3789 69.1067L24.7611 69.0255C24.6636 69.0092 24.5498 69.1067 24.4848 69.1555C24.371 69.2531 24.2897 69.3831 24.2246 69.5132C24.1596 69.6595 24.0458 69.9847 24.2897 70.0172C26.2731 70.2935 28.2565 70.5049 30.2562 70.6512C32.2396 70.7975 34.2393 70.8788 36.239 70.8626C37.2144 70.8788 38.2061 70.7813 39.1491 70.5537C39.9944 70.3423 40.7748 69.9359 41.4414 69.3831C42.8395 68.1963 43.4248 66.3104 42.9208 64.5384C42.4656 63.0264 41.1325 61.9371 39.6205 61.5957C39.4417 61.547 39.2466 61.5307 39.0678 61.5145C38.7101 61.5307 38.2061 62.5387 38.5963 62.5712Z" fill="#CC338C"/>
<path d="M37.3602 70.9439C37.5716 70.9926 37.7829 71.0414 37.9943 71.0902L37.9292 71.0739C39.051 71.3666 40.059 71.9681 40.8556 72.8135L40.8068 72.7647C41.197 73.1874 41.5059 73.6914 41.7172 74.2279C41.7497 74.2929 41.766 74.3579 41.7985 74.423C41.8148 74.4555 41.8148 74.488 41.831 74.5205C41.8473 74.553 41.8635 74.6343 41.8473 74.5693C41.8798 74.7156 41.9123 74.8619 41.9448 74.992C41.9773 75.1383 41.9936 75.2846 41.9936 75.4309C41.9936 75.496 41.9936 75.561 41.9936 75.626C41.9936 75.626 41.9936 75.6911 41.9936 75.626V75.6585V75.7723C41.9936 75.9024 41.9773 76.0325 41.9448 76.1625C41.9448 76.195 41.9286 76.2276 41.9286 76.2763C41.9286 76.3251 41.9448 76.2276 41.9448 76.2276C41.9448 76.2438 41.9448 76.2601 41.9286 76.2763C41.9123 76.3414 41.8961 76.4226 41.8798 76.4877C41.8635 76.5527 41.8473 76.6177 41.8148 76.6828C41.8148 76.699 41.7985 76.7153 41.7985 76.7315C41.7822 76.7803 41.831 76.6665 41.8148 76.6665L41.7822 76.7641C41.7497 76.8291 41.7335 76.8941 41.701 76.9429L41.6522 77.0242C41.6359 77.0404 41.6359 77.0567 41.6197 77.073C41.6197 77.0567 41.6847 76.9592 41.6522 77.0242C41.6197 77.0892 41.5872 77.138 41.5546 77.1868C41.5384 77.2193 41.5221 77.2355 41.5059 77.268C41.5059 77.2843 41.4896 77.3006 41.4734 77.3006L41.5059 77.2518C41.4734 77.3006 41.4246 77.3493 41.3758 77.4144C41.3596 77.4469 41.327 77.4631 41.3108 77.4956L41.2783 77.5282C41.2295 77.5769 41.3596 77.4469 41.3108 77.4956C41.2132 77.5932 41.1157 77.6745 41.0181 77.7558C40.9694 77.7883 41.0994 77.707 41.0507 77.7395L41.0181 77.772L40.9369 77.8208C40.8718 77.8533 40.8231 77.9021 40.758 77.9346L40.6767 77.9834L40.628 78.0159C40.6117 78.0159 40.5467 78.0484 40.5955 78.0321C40.6442 78.0159 40.5955 78.0321 40.5792 78.0321L40.5304 78.0484C40.4979 78.0647 40.4654 78.0809 40.4166 78.0972C40.2866 78.1622 40.1402 78.211 39.9939 78.2435C39.9289 78.2598 39.8476 78.276 39.7826 78.2923L39.5875 78.3248C39.62 78.3248 39.5712 78.3248 39.5712 78.3248L39.5062 78.341L39.4087 78.3573C39.3274 78.3736 39.2461 78.3736 39.1648 78.3898C38.5633 78.4386 37.9455 78.4223 37.344 78.3573C35.9295 78.2435 34.5314 78.1134 33.117 77.9834L28.8413 77.6094L28.321 77.5607C27.9634 77.5282 27.4594 78.5361 27.8658 78.5686L33.2633 79.0401L35.9621 79.284C36.7587 79.3815 37.5553 79.414 38.3519 79.414C39.1485 79.414 39.9289 79.2027 40.628 78.8125C41.327 78.3736 41.8961 77.7232 42.2537 76.9754C42.5951 76.2763 42.7577 75.496 42.7089 74.7319C42.6602 73.984 42.4163 73.2524 42.0261 72.6184C41.2132 71.2853 39.8476 70.4561 38.3682 70.0497C38.1893 70.0009 38.0105 69.9522 37.8154 69.9196C37.7341 69.9034 37.6041 70.0009 37.539 70.0497C37.4252 70.1472 37.3439 70.2773 37.2789 70.4074C37.2139 70.5537 37.1163 70.8788 37.344 70.9276L37.3602 70.9439ZM39.5387 53.0443C40.7093 53.1744 41.9448 53.3532 43.1154 53.0931C43.977 52.8818 44.7899 52.4591 45.4564 51.8738C45.9929 51.3861 46.4807 50.8333 46.8708 50.2155C46.9521 50.1017 47.0009 49.9717 47.0172 49.8416C47.0172 49.7603 47.0172 49.6465 46.9521 49.5977C46.757 49.4839 46.4969 49.8091 46.4319 49.9391L46.3018 50.118C46.2856 50.1505 46.2531 50.183 46.2368 50.1993L46.2693 50.1505L46.2368 50.1993C46.1555 50.3131 46.058 50.4269 45.9767 50.5407C45.9279 50.5894 45.8954 50.6382 45.8466 50.687L45.7816 50.752C45.7166 50.8171 45.8629 50.6707 45.7816 50.752C45.7003 50.8333 45.5865 50.9471 45.489 51.0284C45.3914 51.1097 45.3101 51.191 45.2126 51.2723C45.1476 51.321 45.2939 51.2072 45.2126 51.2723L45.1476 51.321C45.0988 51.3535 45.05 51.3861 45.0012 51.4186C44.8224 51.5324 44.6436 51.6462 44.4647 51.7437L44.4322 51.76C44.4322 51.76 44.5135 51.7275 44.4647 51.7437L44.3997 51.7762L44.2696 51.8413C44.1884 51.8738 44.0908 51.9063 44.0095 51.9388C43.847 52.0038 43.6844 52.0526 43.5055 52.0851L43.3917 52.1177L43.343 52.1339H43.3105H43.2617H43.2129L43.0991 52.1502C42.8227 52.1827 42.5463 52.1989 42.27 52.1989C41.5059 52.1827 40.7418 52.1339 39.9939 52.0201C39.8964 52.0364 39.7988 52.0851 39.7175 52.1502C39.6037 52.2477 39.5225 52.3778 39.4574 52.5078C39.4087 52.6541 39.2949 53.0118 39.5387 53.0443ZM40.6605 54.3287C38.8234 55.1416 37.6203 57.2875 38.1081 59.271C38.2381 59.7912 38.4657 60.2952 38.7909 60.7179C38.9372 60.8967 39.181 60.6854 39.2786 60.5553C39.3761 60.4415 39.4412 60.3114 39.4899 60.1651C39.5062 60.0838 39.555 59.9375 39.4899 59.8562C39.2298 59.5148 39.0347 59.1409 38.8884 58.7345L38.8722 58.6694C38.8884 58.7345 38.8559 58.6369 38.8559 58.6207C38.8396 58.5719 38.8396 58.5394 38.8234 58.4906C38.7909 58.3768 38.7746 58.2793 38.7584 58.1655C38.7421 58.0517 38.7421 57.9541 38.7258 57.8403C38.7258 57.7915 38.7258 57.759 38.7258 57.7102C38.7258 57.5964 38.7258 57.759 38.7258 57.694V57.5802C38.7258 57.4826 38.7421 57.3851 38.7584 57.2875C38.7584 57.2388 38.7746 57.1737 38.7909 57.125C38.8071 57.0762 38.8234 57.0437 38.7909 57.1412C38.8071 57.1087 38.8071 57.0762 38.8071 57.0437C38.8234 56.9624 38.8559 56.8649 38.8884 56.7836C38.9047 56.751 38.9047 56.7348 38.9209 56.7023C38.9209 56.7023 38.8722 56.8323 38.9047 56.751C38.9209 56.7023 38.9534 56.6535 38.9697 56.6047C38.986 56.556 39.0022 56.5234 39.0347 56.4747L39.0672 56.4096C39.0998 56.3446 38.986 56.5397 39.051 56.4422C39.116 56.3446 39.1485 56.2633 39.2136 56.182C39.2298 56.1658 39.2298 56.1495 39.2461 56.1333C39.1485 56.2796 39.1973 56.2145 39.2136 56.1658C39.2298 56.117 39.2623 56.0845 39.2949 56.052L39.3924 55.9382C39.4087 55.9219 39.4249 55.9057 39.4249 55.8894C39.5062 55.8081 39.3274 55.9869 39.4087 55.9057C39.4899 55.8244 39.5712 55.7431 39.6525 55.678L39.7013 55.6455L39.7501 55.613C39.7826 55.5805 39.7826 55.5805 39.7501 55.613C39.7013 55.6618 39.7501 55.613 39.7826 55.5968L39.8639 55.548C39.9614 55.483 40.0427 55.4179 40.1402 55.3692C40.189 55.3366 40.2215 55.3204 40.2703 55.3041C40.189 55.3204 40.2378 55.3204 40.2703 55.3041L40.3678 55.2554C40.6117 55.1253 40.7905 54.9139 40.8556 54.6376C40.8881 54.54 40.8881 54.4262 40.8556 54.3287C40.8231 54.3124 40.7255 54.2799 40.6605 54.3287ZM39.0022 63.4654C37.5878 64.4571 36.7424 66.3105 37.1651 68.0175C37.2789 68.4727 37.474 68.9117 37.7341 69.2856C37.8642 69.4807 38.1243 69.2531 38.2219 69.123C38.3194 69.0092 38.3844 68.8792 38.4332 68.7328C38.4495 68.6516 38.4982 68.5052 38.4332 68.4239C38.0268 67.8549 37.7992 67.1559 37.7992 66.4568C37.7992 66.3755 37.7992 66.4405 37.7992 66.4568C37.7992 66.4405 37.7992 66.408 37.7992 66.3918C37.7992 66.3755 37.7992 66.3105 37.7992 66.278C37.7992 66.1804 37.8154 66.0829 37.8317 65.9853C37.8479 65.9365 37.8479 65.904 37.8479 65.8553C37.8479 65.8553 37.8317 65.9528 37.8479 65.904L37.8642 65.839C37.8804 65.7577 37.913 65.6602 37.9455 65.5789C37.9617 65.5464 37.978 65.4976 37.978 65.4651C37.978 65.4651 37.9292 65.5789 37.9617 65.5139L37.9943 65.4488C38.0268 65.3675 38.0593 65.2862 38.1081 65.205C38.1081 65.1887 38.1243 65.1724 38.1406 65.1562C38.1406 65.1562 38.0755 65.27 38.1081 65.2212C38.1406 65.1724 38.1406 65.1562 38.1731 65.1074C38.2056 65.0261 38.2544 64.9448 38.3194 64.8798C38.3194 64.8798 38.2381 64.9936 38.2706 64.9448L38.3194 64.8798C38.3519 64.831 38.3844 64.7985 38.4169 64.7498L38.4982 64.6522C38.5633 64.5872 38.4657 64.6847 38.4657 64.6847C38.482 64.6685 38.4982 64.6522 38.5145 64.6359C38.5795 64.5709 38.6446 64.5059 38.7258 64.4409L38.7746 64.4083C38.8396 64.3596 38.7746 64.3921 38.7584 64.4083C38.7746 64.3758 38.8559 64.3271 38.8884 64.3108C39.116 64.1645 39.2786 63.9206 39.3274 63.6442C39.3274 63.5629 39.3274 63.4491 39.2623 63.4004C39.181 63.4004 39.0835 63.4166 39.0022 63.4654Z" fill="#CC338C"/>
<path d="M39.3272 73.041C38.2542 73.8702 37.6526 75.1545 37.7177 76.5039C37.7339 76.829 37.8152 77.1542 37.929 77.4468C37.9615 77.5281 38.0591 77.5281 38.1404 77.5119C38.2542 77.4631 38.3517 77.3818 38.433 77.2842C38.5793 77.1054 38.7419 76.829 38.6444 76.5852C38.6281 76.5364 38.6118 76.4714 38.5956 76.4226C38.5956 76.4063 38.5793 76.3413 38.5793 76.3901L38.5468 76.2925C38.5143 76.1787 38.498 76.0649 38.4818 75.9349C38.4818 75.8861 38.4655 75.8211 38.4655 75.756C38.4655 75.7235 38.4655 75.7073 38.4655 75.6748C38.4655 75.6422 38.4655 75.561 38.4655 75.6097C38.4655 75.6585 38.4655 75.5772 38.4655 75.561C38.4655 75.5284 38.4655 75.4959 38.4655 75.4797C38.4655 75.4146 38.4818 75.3496 38.4818 75.2846C38.4818 75.2195 38.498 75.1708 38.5143 75.122C38.5143 75.1057 38.5143 75.0895 38.5143 75.0732C38.5143 75.0245 38.498 75.122 38.498 75.122C38.5143 75.0895 38.5143 75.057 38.5305 75.0245C38.5468 74.9594 38.5631 74.8944 38.5793 74.8456C38.5793 74.8131 38.5956 74.7968 38.6118 74.7643C38.6281 74.7318 38.6606 74.6343 38.6281 74.7156C38.5956 74.7969 38.6281 74.7156 38.6444 74.683L38.6769 74.6018C38.7094 74.553 38.7256 74.488 38.7582 74.4392C38.8069 74.3579 38.6931 74.553 38.7419 74.4717L38.7907 74.3904C38.8232 74.3416 38.8557 74.2766 38.8882 74.2278C38.9207 74.1791 38.8394 74.2929 38.8394 74.2929C38.8557 74.2766 38.8557 74.2604 38.872 74.2441L38.937 74.1628L39.002 74.0815C39.0183 74.0653 39.0996 73.984 39.0345 74.049C38.9695 74.114 39.0508 74.0327 39.067 74.0165L39.1483 73.9515L39.2296 73.8864C39.2621 73.8702 39.3597 73.7889 39.2459 73.8702C39.4735 73.7076 39.6361 73.4637 39.6686 73.1874C39.6686 73.1061 39.6686 72.9923 39.5873 72.9435C39.4897 72.9598 39.3922 72.976 39.3272 73.041ZM42.3348 50.0529L42.221 49.9391L42.2698 49.9879C42.0097 49.6953 41.7983 49.3376 41.652 48.9637C41.6357 48.9149 41.6195 48.8824 41.6032 48.8336L41.587 48.7848L41.5707 48.7361C41.5382 48.6385 41.5219 48.541 41.5057 48.4272C41.4894 48.3134 41.4732 48.2483 41.4732 48.1508C41.4732 48.102 41.4732 48.0533 41.4732 48.0045C41.4732 47.972 41.4732 47.9557 41.4732 47.9232C41.4732 48.0207 41.4732 47.9232 41.4732 47.9069C41.4732 47.8094 41.4894 47.7118 41.5057 47.6306C41.5057 47.5818 41.5219 47.533 41.5382 47.4842C41.5544 47.4355 41.5707 47.403 41.5382 47.5168C41.5544 47.4842 41.5544 47.4517 41.5544 47.4355C41.5707 47.3542 41.6032 47.2729 41.6357 47.1753C41.6683 47.0778 41.6032 47.2729 41.6195 47.2079L41.652 47.1428C41.6683 47.0941 41.6845 47.0453 41.717 47.0128C41.7495 46.9803 41.8308 46.8177 41.7333 46.9803C41.7658 46.9477 41.7821 46.899 41.7983 46.8665C41.8146 46.8339 41.8471 46.7852 41.8796 46.7527C41.9121 46.7201 41.8959 46.7201 41.9121 46.7039C41.8146 46.8665 41.8796 46.7526 41.8959 46.7201C41.9446 46.6551 42.0097 46.5738 42.0584 46.5088C42.0909 46.4763 42.1397 46.4275 42.0259 46.5413L42.0747 46.4925L42.1885 46.3787C42.221 46.3462 42.2698 46.3137 42.3186 46.2649C42.3348 46.2487 42.3511 46.2487 42.3673 46.2324C42.3186 46.2812 42.3023 46.2812 42.3348 46.2487L42.3673 46.2324C42.4486 46.1674 42.5462 46.1024 42.6437 46.0536C42.6925 46.0211 42.7412 46.0048 42.79 45.9723C42.7087 46.0048 42.8388 45.9398 42.79 45.9723L42.8713 45.9398C42.9689 45.891 43.0664 45.8585 43.1802 45.826C43.4241 45.7447 43.6192 45.452 43.6679 45.2082C43.7167 45.0456 43.7167 44.7692 43.4728 44.8343C42.0097 45.3708 40.9529 46.6714 40.7741 48.2321C40.7253 48.7198 40.7903 49.2075 40.9367 49.679C41.0992 50.183 41.3756 50.6382 41.7495 50.9959C41.8146 51.0609 41.9446 50.9796 41.9934 50.9633C42.1072 50.8821 42.2047 50.7845 42.2698 50.6707C42.3511 50.5081 42.4974 50.2155 42.3348 50.0529ZM50.1222 25.8455L50.0734 28.2516C50.0571 29.032 50.0246 29.8286 50.0246 30.6089C50.0246 31.2592 50.0896 31.9583 50.4636 32.5273C50.8375 33.0476 51.4065 33.389 52.0406 33.4865C52.8859 33.6491 53.7639 33.4378 54.593 33.2427C54.7068 33.1939 54.8043 33.1126 54.8856 33.0151C54.9832 32.9013 55.0482 32.7712 55.097 32.6249C55.1457 32.446 55.1457 32.2022 54.9019 32.2672C54.0402 32.4623 53.1461 32.6574 52.2682 32.4135L52.3332 32.4298C51.9267 32.316 51.5528 32.1046 51.2602 31.7957L51.309 31.8445C51.1789 31.6982 51.0814 31.5356 51.0001 31.373C50.9676 31.2918 50.935 31.2105 50.9025 31.1292C50.9025 31.1292 50.8863 31.0642 50.8863 31.0967C50.8863 31.1292 50.87 31.0316 50.87 31.0479C50.8538 30.9991 50.8538 30.9504 50.8375 30.9016C50.805 30.7065 50.7725 30.5277 50.7725 30.3326C50.7725 30.235 50.7562 30.1375 50.7562 30.0399C50.7562 29.9912 50.7562 29.9586 50.7562 29.9099C50.7562 29.8611 50.7562 29.8611 50.7562 29.8448V29.8123C50.7725 28.8694 50.805 27.9265 50.8212 26.9835L50.8538 25.374C50.8538 25.2927 50.87 25.1789 50.7887 25.1302C50.7074 25.0977 50.6099 25.1139 50.5449 25.1627C50.4311 25.244 50.3335 25.3415 50.2685 25.4553C50.1872 25.5691 50.1384 25.7154 50.1222 25.8455ZM72.5413 90.6479C75.7928 80.9747 79.4995 69.9684 82.751 60.2952L90.8148 63.1727C87.5632 72.8459 83.6614 84.4376 80.4099 94.127L72.5413 90.6479Z" fill="#CC338C"/>
<path d="M72.8827 90.5342L74.8336 84.7302L76.8495 78.7475L78.8817 72.6997L80.8976 66.7006L82.8485 60.8804L83.0924 60.1814L82.4421 60.7829L85.1734 61.7583L89.5141 63.3028L90.5058 63.6605L90.4571 63.3028L88.4899 69.1555L86.4252 75.2846L84.328 81.5112L82.2633 87.6566L80.2798 93.5581L80.0522 94.2571L80.7025 93.6556L78.0363 92.4688L73.8256 90.6154L72.8502 90.1765C72.6388 90.0789 72.4112 90.3553 72.3299 90.5179C72.2649 90.6317 72.0535 91.0544 72.2486 91.1357L74.9149 92.3062L79.1256 94.1596L80.101 94.5985C80.4099 94.7286 80.6863 94.2084 80.7513 93.997L82.7185 88.1443L84.7832 82.0152L86.8804 75.7886L88.9451 69.6432L90.9285 63.7418L91.1561 63.0427C91.1886 62.9614 91.2374 62.7175 91.1074 62.685L88.3761 61.7096L84.0516 60.1651L83.0599 59.8074C82.751 59.6936 82.4909 60.1814 82.4096 60.409L80.4587 66.2129L78.4265 72.1957L76.3943 78.2435L74.3784 84.2425L72.4275 90.0627L72.1836 90.7618C72.1348 90.9243 72.1511 91.2007 72.3787 91.1194C72.6063 91.0381 72.8014 90.7455 72.8827 90.5342Z" fill="#CC338C"/>
<path d="M90.7346 63.4003L99.1722 65.7577C100.424 66.1154 101.188 67.3997 100.896 68.6678L94.5388 95.8016C94.0511 97.915 91.9214 99.2319 89.8079 98.7279C89.499 98.6629 89.2064 98.5491 88.93 98.4028L80.3623 94.0783" fill="#CC338C"/>
<path d="M90.5061 63.9043L92.1806 64.3758L95.6272 65.335L98.4885 66.1316L98.8299 66.2292L98.9275 66.2617L98.96 66.2779C99.7891 66.5218 100.407 67.2209 100.569 68.0663C100.634 68.5052 100.569 68.7978 100.456 69.2368L100.098 70.7813L99.529 73.2036L98.8137 76.2926L98.0008 79.7717L97.1391 83.4296L96.2937 87.0063L95.5296 90.274L94.8956 93.0053L94.4404 94.9562C94.3591 95.2651 94.2941 95.574 94.229 95.8829L94.2128 95.9316C94.1965 96.0129 94.1803 96.078 94.1478 96.1593C94.1152 96.2405 94.1152 96.2731 94.099 96.3218C94.099 96.3381 94.0827 96.3706 94.0827 96.3869C94.099 96.3381 94.099 96.3381 94.0827 96.3869C94.0502 96.4844 94.0014 96.5657 93.9527 96.6632C93.9201 96.712 93.8714 96.8095 93.9201 96.712C93.8876 96.7608 93.8714 96.8095 93.8389 96.8421C93.8063 96.8746 93.7901 96.9234 93.7576 96.9721C93.6925 97.0697 93.8063 96.9071 93.7413 96.9884C93.6763 97.0697 93.6113 97.151 93.5462 97.2322L93.4812 97.2973L93.4975 97.281C93.4649 97.3135 93.4324 97.3461 93.3999 97.3786C93.3186 97.4436 93.2536 97.5086 93.1723 97.5737L93.1235 97.6224C93.1235 97.6224 93.1886 97.5737 93.1235 97.6224L93.0097 97.7037C92.9284 97.7687 92.8472 97.8175 92.7496 97.8663C92.6033 97.9638 92.4407 98.0289 92.2781 98.0939C91.5466 98.3703 90.7337 98.419 89.9696 98.2239C89.6444 98.1264 89.3355 98.0126 89.0429 97.85L86.8319 96.7283L83.5804 95.0537L81.0767 93.7857L80.7028 93.5906C80.4915 93.493 80.2639 93.7857 80.1826 93.932C80.1175 94.0458 79.9062 94.4522 80.1013 94.5498L81.597 95.2976L84.7834 96.9071L87.7423 98.4028C88.4089 98.7279 89.0429 99.1019 89.7745 99.2482C91.5303 99.5896 93.2536 98.6792 94.229 97.2485C94.603 96.6632 94.8631 96.0292 95.0094 95.3464L95.3508 93.9157L95.9036 91.5584L96.6189 88.502L97.4318 85.0229L98.2934 81.3324L99.1388 77.6907L99.9192 74.3579L100.569 71.5616L101.041 69.5457C101.122 69.2205 101.187 68.8954 101.269 68.5865C101.382 68.1475 101.399 67.6923 101.317 67.2371C101.138 66.343 100.504 65.6114 99.6428 65.3025C99.0413 65.1074 98.4397 64.9611 97.8219 64.7985L94.3266 63.823L91.449 63.0102L90.9938 62.8801C90.9125 62.8638 90.7662 62.9776 90.7174 63.0102C90.6036 63.1077 90.5223 63.2378 90.4573 63.3678C90.376 63.5304 90.2947 63.823 90.5223 63.8881L90.5061 63.9043Z" fill="#CC338C"/>
<path d="M90.0671 65.6601C89.6606 67.5135 89.2217 69.3669 88.7502 71.2202C88.2787 73.0736 87.791 74.9107 87.2708 76.764C86.7505 78.6011 86.1978 80.422 85.6288 82.2428C85.0598 84.0637 84.4582 85.8682 83.8242 87.6566C83.5153 88.5507 83.1902 89.4449 82.865 90.3391C82.7024 90.7943 82.5399 91.2332 82.3773 91.6722C82.3285 91.786 82.296 91.8835 82.2472 91.9973C82.231 92.0624 82.1985 92.1111 82.1822 92.1762L82.1497 92.2575V92.2737C82.0684 92.5013 81.9709 92.7289 81.8896 92.9565C81.8083 93.1841 81.727 93.3955 81.6457 93.6068C81.5969 93.7369 81.4669 94.0946 81.7107 94.1271C81.9546 94.1596 82.1659 93.8019 82.2472 93.6394C82.9463 91.8348 83.6291 90.0139 84.2794 88.1768C84.9135 86.3722 85.5312 84.5676 86.1165 82.7468C86.7018 80.926 87.2545 79.0889 87.791 77.2518C88.3275 75.4147 88.8152 73.5613 89.303 71.7079C89.7744 69.8546 90.2296 68.0012 90.6361 66.1316C90.6849 65.8877 90.7499 65.6601 90.7987 65.4163C90.8312 65.2537 90.8474 64.9611 90.6036 65.0586C90.3272 65.1724 90.1484 65.4 90.0671 65.6601ZM77.874 89.8188C78.3942 89.9977 78.947 89.7863 79.3209 89.4124C79.7761 88.9572 80.1338 88.2419 79.8574 87.5916C79.6623 87.1526 79.2396 86.86 78.7681 86.8274C78.1178 86.7949 77.6301 87.3152 77.3537 87.8354C77.1099 88.3231 77.0123 89.0222 77.3863 89.4612C77.435 89.5262 77.5163 89.5587 77.5976 89.5262C77.7114 89.4774 77.809 89.3961 77.8902 89.2986C77.9878 89.1848 78.0528 89.0547 78.1016 88.9084C78.1178 88.8271 78.1666 88.6808 78.1016 88.5995C78.0366 88.5182 77.9878 88.4369 77.9553 88.3394C77.939 88.3231 77.939 88.2906 77.939 88.2744L77.9553 88.3069L77.939 88.2581C77.9228 88.2093 77.9228 88.1606 77.9228 88.128C77.9228 88.1118 77.9228 88.0793 77.9228 88.063C77.9228 87.9817 77.9228 88.1443 77.9228 88.0793C77.9228 88.0305 77.939 87.9817 77.939 87.933C77.939 87.8842 77.9065 88.063 77.939 87.9655C77.939 87.933 77.9553 87.9167 77.9553 87.8842C77.9878 87.8029 77.9065 88.0142 77.939 87.933L77.9715 87.8679C77.9065 88.0305 77.9228 87.9655 77.939 87.9167C77.9553 87.8679 78.0203 87.8192 77.9065 87.9655L77.9553 87.9167C78.004 87.8517 77.8577 88.0143 77.9228 87.9492C77.939 87.933 77.9553 87.9167 77.9878 87.9004C78.0203 87.8842 77.874 87.9655 77.9715 87.9167L78.0203 87.8842C77.9553 87.9167 78.1016 87.8354 78.0203 87.8842L78.1666 87.8354C78.2479 87.8192 78.1016 87.8354 78.1829 87.8354H78.2642C78.378 87.8354 78.4755 87.8517 78.5893 87.8679L78.5243 87.8517C78.7356 87.9167 78.9307 88.0305 79.077 88.1931L79.0283 88.1443C79.0933 88.2256 79.1583 88.3069 79.1908 88.3882C79.2071 88.4369 79.2233 88.4857 79.2396 88.5182C79.2071 88.4369 79.2396 88.5182 79.2396 88.5345C79.2396 88.5507 79.2559 88.5833 79.2559 88.6158C79.2559 88.6483 79.2559 88.6971 79.2559 88.6971C79.2559 88.6483 79.2559 88.632 79.2559 88.6645C79.2559 88.6971 79.2559 88.6971 79.2559 88.6971C79.2559 88.7296 79.2396 88.7458 79.2396 88.7784C79.2396 88.6971 79.2559 88.6971 79.2396 88.7458C79.2233 88.7946 79.1908 88.8434 79.2559 88.7133C79.2396 88.7296 79.2396 88.7621 79.2234 88.7784C79.2721 88.632 79.2721 88.6808 79.2396 88.7296C79.2071 88.7784 79.1583 88.8109 79.2721 88.6808C79.2559 88.6971 79.2396 88.7133 79.2234 88.7458C79.1746 88.8109 79.3209 88.6483 79.2559 88.7133L79.2071 88.7621C79.1421 88.8271 79.3046 88.6971 79.2234 88.7458C79.1746 88.7621 79.1421 88.7946 79.0933 88.8271C79.0933 88.8109 79.1746 88.7946 79.0933 88.8271L79.0283 88.8596C78.9795 88.8759 78.9307 88.8922 78.8819 88.8922C78.9145 88.8759 78.9145 88.8922 78.8819 88.8922H78.8007C78.7031 88.8922 78.5893 88.8922 78.4918 88.8596L78.5568 88.8759L78.508 88.8596C78.2967 88.7784 78.0853 89.0385 77.9878 89.201C77.9065 89.3148 77.8577 89.4449 77.8415 89.575C77.809 89.64 77.7927 89.7863 77.874 89.8188Z" fill="white"/>
<path d="M83.6953 89.201L87.8572 91.1844L89.044 91.7534C89.2553 91.851 89.4829 91.5584 89.5642 91.412C89.6455 91.2982 89.6943 91.1682 89.7105 91.0219C89.7105 90.9406 89.7268 90.8268 89.6455 90.778L85.4836 88.7946L84.2968 88.2256C84.0854 88.128 83.8578 88.4207 83.7766 88.567C83.6953 88.6808 83.6465 88.8108 83.6302 88.9409C83.6302 89.0385 83.614 89.1685 83.6953 89.201ZM84.3618 87.2176L88.5562 88.128C88.6375 88.1443 88.7839 88.0467 88.8326 87.998C88.9464 87.9004 89.0277 87.7704 89.0928 87.6403C89.1578 87.494 89.2553 87.1851 89.0277 87.1363L84.8333 86.2259C84.752 86.2097 84.6057 86.3072 84.5569 86.356C84.4431 86.4535 84.3618 86.5836 84.2968 86.7136C84.2318 86.8599 84.1342 87.1688 84.3618 87.2176ZM89.3529 70.8789L94.5065 71.6104L95.9697 71.8218C96.0672 71.8381 96.181 71.7405 96.246 71.6917C96.3598 71.5942 96.4411 71.4641 96.5062 71.3341C96.5712 71.1878 96.685 70.8626 96.4411 70.8138L91.2875 70.0822L89.8243 69.8709C89.7268 69.8546 89.613 69.9522 89.548 70.001C89.4342 70.0985 89.3529 70.2286 89.2878 70.3586C89.2228 70.5049 89.109 70.8463 89.3529 70.8789Z" fill="white"/>
<path d="M17.6725 86.3234C15.1038 84.3563 11.641 83.9498 8.69836 85.2992C5.82078 86.6486 3.73982 90.274 4.39012 93.7043C4.7803 95.639 5.93459 97.346 7.59285 98.4028C9.16983 99.4107 11.0394 99.7196 12.844 99.4758C15.4452 99.1344 18.0139 97.4923 19.1357 94.8099C20.2575 92.1274 19.8022 87.9817 17.6725 86.3234Z" fill="white"/>
<path d="M18.0131 85.7869C16.6474 84.7464 15.0054 84.1124 13.2821 83.9661C11.5751 83.8198 9.85179 84.1774 8.3561 85.0066C6.84415 85.8519 5.67361 87.2176 4.86073 88.7295C4.04786 90.2415 3.67393 91.981 3.88528 93.6881C4.35675 97.3135 7.41316 100.061 11.0874 100.142C14.6315 100.272 17.9155 98.2565 19.395 95.0375C20.0127 93.5905 20.2729 92.0136 20.1265 90.4528C20.0615 89.705 19.9152 88.9571 19.6713 88.2581C19.46 87.624 19.1348 87.0225 18.7284 86.486C18.5008 86.2096 18.2732 85.982 18.0131 85.7869C17.9318 85.7219 17.7855 85.7869 17.7204 85.8357C17.5904 85.917 17.4766 86.047 17.3953 86.1771C17.314 86.3072 17.249 86.4535 17.2327 86.6161C17.2164 86.7136 17.249 86.8274 17.314 86.8924C17.4928 87.0388 17.6554 87.1851 17.818 87.3639L17.7692 87.2989C18.1431 87.7216 18.4358 88.1768 18.6471 88.697C18.7609 88.9734 18.8747 89.2498 18.956 89.5262C18.956 89.5424 18.9723 89.5587 18.9723 89.5749C18.9723 89.5587 18.956 89.4936 18.9723 89.5587L19.0048 89.6562C19.021 89.7375 19.0373 89.8025 19.0535 89.8838C19.0861 90.0301 19.1186 90.1765 19.1511 90.3228C19.1999 90.6154 19.2486 90.9243 19.2649 91.2332C19.2812 91.3958 19.2812 91.5584 19.2974 91.7047C19.2974 91.786 19.2974 91.851 19.2974 91.9323C19.2974 91.9648 19.2974 92.0136 19.2974 92.0461C19.2974 92.0786 19.2974 92.0786 19.2974 92.0949C19.2974 92.0623 19.2974 91.9973 19.2974 92.0786C19.2974 92.3875 19.2811 92.6964 19.2324 93.0053C19.2161 93.1516 19.1999 93.2979 19.1673 93.4442C19.1511 93.5093 19.1348 93.5905 19.1348 93.6556C19.1348 93.6881 19.1186 93.7206 19.1186 93.7694C19.1023 93.8507 19.1348 93.7206 19.1348 93.7043C19.1348 93.7369 19.1186 93.7531 19.1186 93.7856C19.0535 94.062 18.9723 94.3384 18.8747 94.6148L18.8422 94.7123C18.7934 94.8424 18.891 94.5985 18.8585 94.6798C18.8259 94.7611 18.7934 94.8261 18.7609 94.9074C18.6959 95.07 18.6146 95.2163 18.5333 95.3626C18.517 95.3789 18.517 95.3951 18.5008 95.4114C18.4683 95.4764 18.5821 95.2651 18.5333 95.3464C18.517 95.3789 18.5008 95.4276 18.4683 95.4602C18.4195 95.5414 18.387 95.6065 18.3382 95.6878C18.2894 95.7691 18.2569 95.8178 18.2082 95.8991L18.1431 95.9967L18.1106 96.0454C18.0456 96.1267 18.1919 95.9316 18.1431 95.9967C18.0456 96.1267 17.948 96.2568 17.8342 96.3868C17.7855 96.4519 17.7367 96.5169 17.6717 96.5657C17.6391 96.5982 17.6229 96.6307 17.5904 96.6632L17.5579 96.712C17.6879 96.5657 17.6066 96.647 17.5904 96.6795C17.3628 96.9071 17.1189 97.1347 16.8588 97.346L16.81 97.3786L16.8425 97.346L16.7612 97.3948C16.6962 97.4436 16.6312 97.4924 16.5661 97.5411C16.4361 97.6387 16.2898 97.72 16.1597 97.8175C16.0296 97.915 15.8671 97.9801 15.7208 98.0614L15.6232 98.1101L15.5744 98.1427C15.5744 98.1427 15.672 98.0939 15.607 98.1264C15.5419 98.1589 15.4606 98.1914 15.3793 98.2402C15.0867 98.3703 14.7778 98.5003 14.4689 98.5979C14.16 98.6954 13.8511 98.7767 13.5422 98.8417L13.4284 98.858C13.3959 98.858 13.2984 98.8905 13.3797 98.858C13.2984 98.8742 13.2171 98.8905 13.1358 98.8905C12.9407 98.923 12.7619 98.9393 12.5831 98.9555C11.819 99.0206 11.0386 98.9555 10.2907 98.8092C10.1119 98.7767 9.91682 98.7279 9.73799 98.6792L9.81927 98.7117C8.55119 98.3377 7.3969 97.6224 6.50274 96.647L6.56777 96.712C6.12882 96.2243 5.73864 95.6715 5.446 95.07C5.29968 94.7611 5.16962 94.4522 5.05582 94.127C5.02331 94.0458 5.00705 93.9807 4.97453 93.8994V93.8669C4.99079 93.9157 4.97453 93.8507 4.97453 93.8344C4.95828 93.7856 4.95828 93.7369 4.94202 93.6881C4.9095 93.5255 4.86073 93.3629 4.84447 93.1841C4.7957 92.8752 4.76319 92.5501 4.74693 92.2412C4.74693 92.1599 4.74693 92.0949 4.74693 92.0136C4.74693 91.9973 4.74693 91.981 4.74693 91.9485C4.73067 91.981 4.74693 92.0298 4.74693 91.981V91.851C4.74693 91.6884 4.76319 91.5258 4.77944 91.3633C4.7957 91.2007 4.81196 91.0381 4.84447 90.8918C4.86073 90.8105 4.87699 90.7455 4.89325 90.6642C4.89325 90.6479 4.89325 90.6317 4.9095 90.5992C4.89325 90.7455 4.89325 90.6804 4.89325 90.6479L4.92576 90.5179C5.00705 90.209 5.08834 89.9001 5.20214 89.5912C5.25091 89.4774 5.15337 89.705 5.20214 89.6074L5.25091 89.5099C5.28343 89.4286 5.31594 89.3636 5.34846 89.2823C5.41349 89.136 5.47852 88.9897 5.5598 88.8433L5.60858 88.7295C5.62483 88.7133 5.62483 88.697 5.64109 88.6808C5.64109 88.6808 5.5598 88.8433 5.60858 88.7621L5.72238 88.5507C5.80367 88.4206 5.88495 88.2743 5.96624 88.1443C6.01502 88.0792 6.04753 88.0142 6.0963 87.9492C6.14508 87.8841 5.99876 88.0955 6.08005 87.9817L6.16133 87.8679C6.25888 87.7378 6.35642 87.624 6.45397 87.494C6.50274 87.4289 6.55151 87.3802 6.61654 87.3151L6.68157 87.2338C6.69783 87.2176 6.7466 87.1688 6.68157 87.2338C6.61654 87.2989 6.66532 87.2501 6.68157 87.2338C6.79538 87.12 6.89292 87.0225 7.00672 86.9087C7.12053 86.7949 7.23433 86.6973 7.34813 86.5998L7.42942 86.5185C7.49445 86.4697 7.31562 86.5998 7.41316 86.5185C7.47819 86.4697 7.54322 86.421 7.60825 86.3722C7.85212 86.1934 8.11224 86.0308 8.37236 85.9007L8.45364 85.852C8.55119 85.8032 8.37236 85.8845 8.4699 85.852L8.69751 85.7381C8.84382 85.6731 9.0064 85.6081 9.15272 85.5593C9.46161 85.4455 9.78676 85.348 10.1119 85.2667C10.2745 85.2342 10.4371 85.1854 10.5996 85.1691C10.5346 85.1854 10.6484 85.1529 10.5996 85.1691L10.6647 85.1529L10.7785 85.1366L11.0386 85.1041C11.38 85.0716 11.7051 85.0391 12.0466 85.0391C12.7131 85.0391 13.3797 85.1041 14.03 85.2504C14.1925 85.2829 14.3551 85.3317 14.5177 85.3805L14.4364 85.348C15.4931 85.6569 16.4849 86.1446 17.3628 86.8274C17.4441 86.8924 17.5741 86.8274 17.6554 86.7786C17.7855 86.6973 17.8993 86.5673 17.9805 86.4372C18.0618 86.3072 18.1269 86.1608 18.1431 85.9983C18.1269 85.9658 18.0944 85.8519 18.0131 85.7869Z" fill="#CC338C"/>
<path d="M13.1528 87.0713C11.9985 86.1934 10.6166 85.6569 9.16967 85.5431C7.72275 85.413 6.27584 85.7219 4.99149 86.421C3.70715 87.1363 2.7317 88.2906 2.04888 89.575C1.34981 90.8593 1.07343 92.3225 1.23601 93.7694C1.64244 96.8421 4.22739 99.1344 7.31632 99.1994C10.3077 99.3132 13.0715 97.6062 14.3233 94.8749C14.8435 93.6556 15.0549 92.3225 14.9411 91.0056C14.8435 89.8351 14.5021 88.5832 13.7543 87.6566C13.5755 87.429 13.3804 87.2339 13.1528 87.0713C13.0877 87.0225 12.9739 87.0713 12.9089 87.1201C12.7951 87.2014 12.6976 87.2989 12.6325 87.4127C12.5512 87.559 12.3724 87.9004 12.5512 88.0305C12.6976 88.1606 12.8439 88.2906 12.9902 88.4369L12.9414 88.3882C13.2503 88.7458 13.4942 89.136 13.673 89.5587C13.7706 89.7863 13.8518 90.0139 13.9331 90.2578C13.9331 90.2903 13.9494 90.3391 13.9331 90.274L13.9656 90.3716C13.9819 90.4366 13.9982 90.5016 14.0144 90.5667C14.0469 90.6967 14.0632 90.8105 14.0957 90.9406C14.1445 91.2007 14.177 91.4608 14.1932 91.7047C14.2095 91.8348 14.2095 91.9648 14.2095 92.0949C14.2095 92.1599 14.2095 92.2249 14.2095 92.2737V92.42C14.2095 92.3225 14.2095 92.4688 14.2095 92.42C14.2095 92.6802 14.1932 92.924 14.1607 93.1841C14.1445 93.3142 14.1282 93.4443 14.112 93.5581C14.0957 93.6231 14.0957 93.6881 14.0794 93.7531C14.0794 93.7857 14.0632 93.8182 14.0632 93.8507C14.0632 93.8507 14.0794 93.7369 14.0794 93.8019C14.0794 93.8182 14.0794 93.8344 14.0632 93.8507C14.0144 94.0946 13.9494 94.3222 13.8681 94.5498C13.8518 94.5823 13.8518 94.5985 13.8356 94.631C13.8031 94.7123 13.8844 94.501 13.8356 94.6148C13.8193 94.6798 13.7868 94.7286 13.7543 94.7936C13.7055 94.9237 13.6405 95.0537 13.5592 95.1838C13.5592 95.2001 13.5429 95.2163 13.5429 95.2163C13.4942 95.2976 13.5755 95.1675 13.5755 95.1675C13.5755 95.1675 13.5267 95.2488 13.5267 95.2651C13.4942 95.3301 13.4454 95.3952 13.4129 95.4439C13.3804 95.4927 13.3479 95.5577 13.2991 95.6065L13.2341 95.6878C13.2178 95.704 13.2015 95.7203 13.2015 95.7366C13.169 95.8016 13.2828 95.6228 13.2341 95.6878C13.1528 95.8016 13.0715 95.9154 12.9739 96.0129C12.9414 96.0617 12.8926 96.1105 12.8439 96.1593L12.7788 96.2405C12.6976 96.3218 12.8601 96.1593 12.7788 96.2405C12.5838 96.4356 12.3887 96.6307 12.1611 96.7933L12.096 96.8421L11.9172 96.9721C11.8034 97.0534 11.6896 97.1347 11.5758 97.1997C11.462 97.2648 11.3319 97.3461 11.2181 97.4111L11.1368 97.4436C11.0393 97.4924 11.1693 97.4274 11.1206 97.4599L10.9092 97.5574C10.6654 97.6712 10.4215 97.7688 10.1614 97.85C9.90126 97.9313 9.64114 97.9964 9.38102 98.0614L9.28348 98.0776H9.2347C9.25096 98.0776 9.29974 98.0614 9.2347 98.0776L9.03961 98.1102C8.87704 98.1264 8.73072 98.1427 8.56815 98.1589C7.91785 98.2077 7.2838 98.1589 6.64976 98.0289C6.48718 97.9964 6.34087 97.9638 6.17829 97.9151L6.24332 97.9313C5.17032 97.6224 4.19487 97.0209 3.43077 96.1755L3.47954 96.2243C3.10562 95.8016 2.79673 95.3464 2.53661 94.8424C2.40655 94.5823 2.309 94.3222 2.21146 94.0458C2.1952 93.9808 2.16268 93.9157 2.14643 93.8507C2.14643 93.8344 2.13017 93.8182 2.13017 93.8019C2.11391 93.7694 2.11391 93.7206 2.09765 93.6718C2.06514 93.5418 2.03262 93.3955 2.01637 93.2654C1.96759 92.989 1.93508 92.7289 1.93508 92.4525C1.93508 92.3875 1.93508 92.3225 1.93508 92.2575C1.93508 92.2412 1.93508 92.2249 1.93508 92.2087C1.93508 92.2087 1.93508 92.29 1.93508 92.2412C1.93508 92.1924 1.93508 92.1599 1.93508 92.1274C1.93508 91.9973 1.95134 91.8673 1.96759 91.7372C1.98385 91.6072 2.00011 91.4608 2.01637 91.3308C2.03262 91.2657 2.03262 91.2007 2.04888 91.1357C2.06514 91.0219 2.03262 91.2007 2.04888 91.1194L2.06514 91.0219C2.13017 90.7618 2.21146 90.5016 2.309 90.2415C2.32526 90.1927 2.27649 90.3066 2.29274 90.3066C2.29274 90.2903 2.309 90.274 2.309 90.2578C2.32526 90.2253 2.32526 90.209 2.34152 90.1765C2.37403 90.1115 2.39029 90.0464 2.4228 89.9814C2.47158 89.8513 2.53661 89.7375 2.60164 89.6237C2.61789 89.5912 2.63415 89.5587 2.65041 89.5262C2.66667 89.5099 2.66667 89.4937 2.66667 89.4937C2.66667 89.4937 2.60164 89.6075 2.63415 89.5587C2.66667 89.5099 2.69918 89.4286 2.7317 89.3799C2.79673 89.2661 2.87801 89.1523 2.94304 89.0385L3.05685 88.8759C3.08936 88.8271 3.00807 88.9409 3.00807 88.9409C3.02433 88.9247 3.02433 88.9247 3.04059 88.9084L3.10562 88.8271C3.18691 88.7133 3.2682 88.6158 3.34948 88.5182L3.47954 88.3719C3.4958 88.3556 3.51206 88.3231 3.54457 88.3069C3.6096 88.2418 3.51206 88.3394 3.51206 88.3394L3.54457 88.2906C3.64212 88.1931 3.72341 88.0955 3.82095 88.0142C3.9185 87.933 4.01604 87.8354 4.11359 87.7541L4.17862 87.7053C4.09733 87.7541 4.24365 87.6566 4.17862 87.7053C4.2599 87.6566 4.27616 87.6241 4.34119 87.5915C4.55254 87.4452 4.76389 87.3152 4.99149 87.1851L5.07278 87.1526C5.13781 87.1201 5.00775 87.1851 5.08904 87.1363L5.28413 87.0551C5.41419 87.0063 5.54425 86.9412 5.67431 86.8925C5.93443 86.7949 6.19455 86.7136 6.47093 86.6486C6.61724 86.6161 6.7473 86.5836 6.89362 86.5673H6.92614L7.03994 86.5511C7.10497 86.5348 7.18626 86.5348 7.25129 86.5185C7.52767 86.486 7.80404 86.4698 8.08042 86.4698C8.63318 86.4698 9.18593 86.5511 9.73869 86.6811C9.885 86.7136 10.0151 86.7462 10.1451 86.7949L10.0801 86.7787C10.9743 87.0388 11.8034 87.4615 12.535 88.0142C12.6 88.063 12.7301 88.0142 12.7788 87.9817C12.8926 87.9004 12.9902 87.8029 13.0552 87.6891C13.169 87.5428 13.3479 87.2014 13.1528 87.0713ZM20.9076 8.87263C20.9564 10.0757 21.2002 11.2462 21.6392 12.368C22.0294 13.4085 22.5984 14.3677 23.2812 15.2293C23.964 16.0747 24.7769 16.8226 25.6711 17.4403C26.549 18.0419 27.5082 18.5133 28.5161 18.8385C29.5403 19.1636 30.5971 19.3425 31.6863 19.3587C31.8164 19.3587 31.9465 19.3587 32.0765 19.3587C32.3529 19.3425 32.5805 19.0173 32.678 18.7897C32.7431 18.6271 32.8731 18.2532 32.5968 18.2044C31.4425 18.0419 30.2394 18.0906 29.1502 18.5296C28.1422 18.9523 27.2643 19.6351 26.5977 20.4968C25.8987 21.4397 25.3622 22.4802 24.9882 23.5857C24.6306 24.6587 24.3705 25.7642 24.2079 26.886C24.0453 27.9264 23.9315 28.9832 23.834 30.0237C23.8177 30.1375 23.8177 30.2675 23.8014 30.3813C23.8014 30.4626 23.8014 30.6089 23.8827 30.6577C23.964 30.6902 24.0453 30.6902 24.1103 30.6414C24.3705 30.4951 24.5493 30.2513 24.6306 29.9749C24.9232 28.7718 25.0533 27.4875 24.7769 26.2682C24.5493 25.2602 24.0453 24.3335 23.3462 23.5857C22.6472 22.8541 21.8018 22.2851 20.8751 21.8786C19.8346 21.4397 18.7616 21.1145 17.6398 20.952C16.4856 20.7731 15.3313 20.7081 14.177 20.7569C14.0307 20.7569 13.8844 20.7731 13.738 20.7731L13.2178 21.9274C14.1445 21.8299 15.0549 21.6185 15.9165 21.2934C16.827 20.952 17.6886 20.4968 18.469 19.9115C19.3469 19.2612 20.111 18.4646 20.7288 17.5541C21.3628 16.595 21.818 15.5057 22.0294 14.3839C22.257 13.1646 22.257 11.929 22.0294 10.7097C21.9969 10.5472 21.9643 10.3683 21.9318 10.2057C21.9156 10.1082 21.8668 10.0269 21.7693 10.0269C21.6554 10.0432 21.5416 10.0919 21.4604 10.1895C21.3303 10.3033 21.2328 10.4496 21.1677 10.5959C21.1027 10.726 21.0702 10.856 21.0864 11.0024C21.2165 11.6201 21.314 12.2542 21.3466 12.8882C21.3466 13.0346 21.3628 13.1809 21.3628 13.3272V13.3922C21.3628 13.3272 21.3628 13.4247 21.3628 13.4572C21.3628 13.5385 21.3628 13.6036 21.3628 13.6849C21.3466 13.9612 21.3303 14.2376 21.2815 14.4977C21.2653 14.6278 21.2328 14.7579 21.2165 14.9042L21.2002 15.0017C21.2002 15.0017 21.2328 14.8554 21.2165 14.9529L21.2002 14.9855C21.184 15.0505 21.1677 15.1155 21.1515 15.1805C21.0864 15.4244 21.0214 15.6683 20.9239 15.9121C20.9239 15.9447 20.9076 15.9609 20.8913 15.9934C20.8588 16.0747 20.9564 15.8471 20.9076 15.9609C20.8913 16.0259 20.8588 16.0747 20.8426 16.1397C20.7938 16.2535 20.745 16.3673 20.6963 16.4811L20.615 16.6437C20.5987 16.6762 20.5825 16.6925 20.5825 16.725C20.5825 16.7413 20.5662 16.7413 20.5662 16.7575C20.5174 16.8551 20.5987 16.6925 20.5987 16.6762C20.5337 16.7738 20.4849 16.8876 20.4199 16.9851C20.3548 17.0827 20.2898 17.1802 20.2248 17.2778C20.1923 17.3265 20.1598 17.3753 20.1272 17.4241C20.0947 17.4729 20.241 17.2615 20.1598 17.3753L20.0947 17.4566C19.9484 17.6517 19.8021 17.8305 19.6395 18.0094C19.607 18.0581 19.5582 18.0906 19.5257 18.1394C19.5095 18.1557 19.6395 18.0256 19.5907 18.0744L19.5582 18.1069L19.4932 18.1719C19.4119 18.2532 19.3306 18.3345 19.2493 18.4158C19.0868 18.5784 18.9079 18.7247 18.7128 18.871L18.6803 18.8873C18.6153 18.936 18.7291 18.8385 18.7291 18.8547C18.7128 18.871 18.6803 18.8873 18.6641 18.9035C18.6153 18.936 18.5665 18.9848 18.5177 19.0173C18.4365 19.0824 18.3389 19.1474 18.2414 19.2124C18.0463 19.3425 17.8512 19.4725 17.6561 19.5863C17.5586 19.6351 17.461 19.7001 17.3472 19.7489L17.2009 19.8302C17.1196 19.879 17.2822 19.7977 17.2171 19.8302L17.1359 19.879C16.9408 19.9765 16.7294 20.0741 16.5181 20.1553C16.1116 20.3179 15.6889 20.4642 15.25 20.578C15.0386 20.6268 14.811 20.6918 14.5997 20.7244L14.4371 20.7569L14.3721 20.7731C14.3071 20.7894 14.4046 20.7731 14.4046 20.7731H14.3558C14.2583 20.7894 14.1607 20.8056 14.0469 20.8219C13.9331 20.8382 13.8356 20.8544 13.7218 20.8544C13.4454 20.8869 13.2178 21.1796 13.1203 21.4234C13.0715 21.5372 12.9252 22.025 13.2015 22.0087C14.681 21.9112 16.1604 22.0087 17.6073 22.2688C17.9975 22.3501 18.3877 22.4314 18.7779 22.5452L18.6966 22.5127C19.8834 22.8541 21.0377 23.3743 21.9969 24.1547C22.257 24.366 22.4846 24.5774 22.6959 24.8213L22.6472 24.7562C23.1349 25.2927 23.5088 25.9268 23.7527 26.6096C23.7852 26.6909 23.8014 26.7884 23.834 26.8697C23.7852 26.7559 23.834 26.886 23.8502 26.9185C23.8665 26.9672 23.8827 27.0323 23.8827 27.0811C23.9315 27.2761 23.964 27.4712 23.9803 27.6663C24.0128 27.8614 24.029 28.0728 24.029 28.2841C24.029 28.3817 24.029 28.4792 24.029 28.5767C24.029 28.4304 24.029 28.6093 24.029 28.6418L24.0128 28.8369C23.9965 29.097 23.964 29.3571 23.9315 29.601C23.9152 29.731 23.8827 29.8611 23.8665 29.9911C23.8665 30.0237 23.8502 30.0562 23.8502 30.0887C23.8827 29.9099 23.8502 30.0724 23.8502 30.105C23.834 30.17 23.8177 30.2513 23.8014 30.3163L24.6306 29.9099C24.7119 28.9019 24.8094 27.8777 24.9557 26.8697C25.037 26.3332 25.1183 25.813 25.2321 25.2765C25.2484 25.1952 25.1996 25.4228 25.2321 25.2927C25.2321 25.2602 25.2484 25.2277 25.2484 25.1952L25.2971 25.0001C25.3296 24.87 25.3622 24.74 25.3947 24.6099C25.4597 24.3498 25.5247 24.1059 25.606 23.8458C25.6873 23.5857 25.7686 23.3418 25.8499 23.098L25.8661 23.0492C25.8987 22.9679 25.8336 23.1467 25.8336 23.1305C25.8336 23.1142 25.8499 23.0817 25.8661 23.0492L25.9474 22.8541C25.9962 22.7403 26.045 22.6102 26.0938 22.4964C26.1425 22.3826 26.1913 22.2688 26.2563 22.1713C26.2888 22.1225 26.3051 22.0575 26.3376 22.0087L26.3864 21.9274L26.3376 22.025L26.3701 21.9762C26.4839 21.7648 26.614 21.5535 26.7441 21.3584C26.7928 21.2771 26.8904 21.1471 26.7603 21.3259L26.8741 21.1796C26.9554 21.082 27.0204 20.9845 27.1017 20.9032C27.1342 20.8544 27.183 20.8219 27.2155 20.7731C27.248 20.7244 27.248 20.7406 27.2643 20.7081C27.1017 20.8869 27.1993 20.7731 27.248 20.7406C27.3293 20.6593 27.4106 20.578 27.5082 20.4968C27.6057 20.4155 27.687 20.3504 27.7683 20.2692C27.817 20.2366 27.6382 20.3667 27.7195 20.3179L27.752 20.2854L27.817 20.2366L27.9634 20.1391C28.0609 20.0741 28.1585 20.009 28.256 19.944C28.3048 19.9115 28.3535 19.8952 28.4023 19.8627L28.4836 19.8302C28.5324 19.7977 28.3861 19.879 28.4348 19.8627L28.4836 19.8302C28.7112 19.7164 28.9388 19.6351 29.1664 19.5538C29.2965 19.5213 29.4103 19.4725 29.5403 19.4563L29.7192 19.4238L29.8167 19.4075H29.7842C29.8005 19.4075 29.833 19.4075 29.8492 19.3912C30.4183 19.31 30.9873 19.2937 31.5725 19.3425C31.7351 19.3587 31.8977 19.375 32.0603 19.4075L32.5805 18.2532C31.4912 18.2857 30.4183 18.1394 29.3778 17.8143L29.4591 17.8468C27.5082 17.2778 25.7523 16.1885 24.3867 14.6766L24.4355 14.7416C23.8177 14.0588 23.2812 13.2947 22.8585 12.4655C22.6472 12.0428 22.4521 11.6039 22.2895 11.1487C22.257 11.0511 22.2082 10.9373 22.1757 10.8398L22.1269 10.661C22.1269 10.6447 22.0944 10.5472 22.1269 10.6447C22.1107 10.6122 22.1107 10.5634 22.0944 10.5309C22.0294 10.3033 21.9806 10.0757 21.9318 9.83182C21.818 9.26281 21.753 8.6938 21.7205 8.12478C21.7205 8.02724 21.6554 7.96221 21.5579 7.94595C21.4441 7.96221 21.3303 8.01098 21.249 8.10853C21.0702 8.2711 20.9239 8.56374 20.9076 8.87263ZM6.097 26.0406C6.24332 29.2433 8.3568 32.0071 11.397 32.9825C12.1936 33.2427 13.039 33.3565 13.8844 33.3402C14.1607 33.3239 14.3883 32.9988 14.4859 32.7712C14.5509 32.6086 14.681 32.2347 14.4046 32.1859C13.5917 32.0396 12.7626 32.1209 11.9822 32.4135C11.2506 32.7224 10.6166 33.2101 10.1289 33.8442C9.60863 34.527 9.21845 35.2911 8.94207 36.104C8.68195 36.8518 8.50312 37.6322 8.38931 38.4288C8.27551 39.1604 8.19422 39.892 8.12919 40.6236C8.12919 40.7049 8.11294 40.8024 8.11294 40.8837C8.11294 40.965 8.11294 41.1113 8.19422 41.1601C8.27551 41.1926 8.3568 41.1926 8.42183 41.1438C8.68195 40.9975 8.86078 40.7536 8.92581 40.4772C9.13716 39.6156 9.2347 38.6889 9.03961 37.8273C8.87704 37.1119 8.53563 36.4616 8.03165 35.9251C7.02368 34.8359 5.49548 34.3319 4.06481 34.1043C3.17065 33.958 2.26023 33.9255 1.36607 33.9742L0.845825 35.1285C2.1952 34.9985 3.46329 34.4945 4.55254 33.6979C5.20284 33.2264 5.7556 32.6411 6.21081 31.9746C6.68227 31.2755 7.00742 30.4789 7.17 29.6497C7.34883 28.6743 7.33257 27.6663 7.10497 26.7071C7.08871 26.6096 7.03994 26.5283 6.94239 26.5283C6.82859 26.5446 6.71479 26.5933 6.6335 26.6909C6.50344 26.8047 6.4059 26.9347 6.34087 27.0973C6.27584 27.2274 6.24332 27.3574 6.25958 27.5037C6.35712 27.9427 6.4059 28.3654 6.43841 28.8206C6.43841 28.9182 6.43841 29.0157 6.43841 29.1132C6.43841 29.1458 6.43841 29.162 6.43841 29.1783C6.42215 29.0482 6.43841 29.1458 6.43841 29.1783C6.43841 29.2108 6.43841 29.2758 6.43841 29.3246C6.42215 29.5197 6.4059 29.6985 6.38964 29.8936C6.37338 29.9911 6.35712 30.0724 6.34087 30.17L6.32461 30.2188C6.30835 30.3163 6.35712 30.0887 6.32461 30.1862C6.30835 30.235 6.30835 30.2838 6.29209 30.3326C6.24332 30.4951 6.19455 30.674 6.14578 30.8365C6.097 30.9666 6.21081 30.6902 6.14578 30.8203C6.12952 30.8528 6.11326 30.9016 6.097 30.9341C6.06449 31.0154 6.03197 31.0967 5.9832 31.1779C5.96694 31.2105 5.95069 31.243 5.93443 31.2917C5.91817 31.3405 5.82063 31.4868 5.95069 31.2592C5.90191 31.3405 5.8694 31.4056 5.82063 31.4868C5.77185 31.5681 5.73934 31.6169 5.69057 31.6819L5.62554 31.7795C5.56051 31.8608 5.72308 31.6494 5.67431 31.6982L5.62554 31.7632C5.52799 31.8933 5.43045 32.0233 5.31664 32.1371C5.28413 32.1697 5.17032 32.2835 5.3329 32.1209L5.25161 32.2022C5.18658 32.2672 5.13781 32.316 5.07278 32.381C4.95898 32.4948 4.82892 32.5924 4.71511 32.6899C4.65008 32.7387 4.81266 32.6086 4.76389 32.6574L4.71511 32.6899L4.61757 32.7549C4.55254 32.8037 4.48751 32.8525 4.42248 32.9012C4.29242 32.9825 4.16236 33.0638 4.01604 33.1451L3.82095 33.2589L3.72341 33.3077C3.64212 33.3402 3.82095 33.2589 3.75592 33.2914L3.69089 33.3239C3.54457 33.389 3.41451 33.454 3.2682 33.519C2.94304 33.6491 2.61789 33.7629 2.29274 33.8442C2.13017 33.8767 1.96759 33.9092 1.78876 33.958C1.91882 33.9255 1.7725 33.958 1.73999 33.958L1.60993 33.9742C1.52864 33.9905 1.44735 33.9905 1.36607 34.0068C1.08969 34.0393 0.862082 34.3319 0.764537 34.5758C0.68325 34.6571 0.666992 34.8034 0.666992 34.9497C0.68325 35.031 0.732022 35.1448 0.829567 35.1285C1.85379 35.0635 2.87801 35.1123 3.88598 35.3074C4.16236 35.3561 4.42248 35.4212 4.69886 35.5024L4.61757 35.4862C5.4467 35.7138 6.21081 36.0877 6.89362 36.608C7.07245 36.7543 7.23503 36.9006 7.38135 37.0794L7.31632 37.0144C7.65773 37.3883 7.91785 37.811 8.08042 38.2825C8.09668 38.3475 8.11294 38.3963 8.14545 38.4613C8.17797 38.5263 8.14545 38.4288 8.12919 38.4288C8.12919 38.4451 8.12919 38.4613 8.14545 38.4776C8.16171 38.5101 8.16171 38.5426 8.17797 38.5914C8.21048 38.7214 8.243 38.8678 8.25925 38.9978C8.27551 39.1279 8.29177 39.2742 8.29177 39.4205C8.29177 39.4855 8.29177 39.5668 8.29177 39.6319C8.29177 39.6319 8.29177 39.5181 8.29177 39.5831C8.29177 39.5993 8.29177 39.6156 8.29177 39.6319C8.29177 39.6806 8.29177 39.7131 8.29177 39.7619C8.27551 39.9407 8.25925 40.1196 8.22674 40.2984C8.21048 40.3797 8.19422 40.4772 8.17797 40.5585C8.17797 40.5911 8.17797 40.6073 8.16171 40.6236C8.16171 40.5911 8.19422 40.4935 8.16171 40.5911C8.14545 40.6398 8.14545 40.7049 8.12919 40.7536L8.95833 40.3472C9.02336 39.6481 9.08839 38.949 9.18593 38.25C9.2347 37.876 9.29973 37.5184 9.38102 37.1445C9.39728 37.0469 9.34851 37.2908 9.36476 37.1932L9.38102 37.1282L9.41354 36.9981C9.42979 36.9169 9.44605 36.8193 9.47857 36.738C9.52734 36.5592 9.57611 36.3804 9.62488 36.2015C9.67366 36.0227 9.73869 35.8601 9.80372 35.6813L9.81997 35.6163L9.78746 35.7301L9.80372 35.6975L9.85249 35.5837C9.885 35.5024 9.91752 35.4212 9.96629 35.3236C10.0151 35.2261 10.0313 35.1773 10.0638 35.1123L10.1289 34.9985L10.1614 34.9497C10.2102 34.8684 10.0638 35.1285 10.1289 35.0147C10.2102 34.8684 10.2914 34.7221 10.389 34.5758L10.4215 34.527C10.454 34.4782 10.519 34.4132 10.3727 34.6083C10.389 34.5758 10.4215 34.5433 10.4378 34.5107C10.4865 34.4457 10.5353 34.3807 10.6003 34.3156C10.6166 34.2831 10.6491 34.2506 10.6816 34.2344C10.7141 34.2181 10.7792 34.1368 10.6329 34.2831L10.6654 34.2344C10.7141 34.1856 10.7792 34.1206 10.8279 34.0718C10.8767 34.023 10.9417 33.9742 11.0068 33.9255C11.0718 33.8767 10.893 34.023 10.958 33.958L11.0068 33.9255C11.0393 33.893 11.0881 33.8767 11.1206 33.8442C11.1856 33.7954 11.2506 33.7629 11.3157 33.7141L11.4132 33.6491L11.462 33.6166C11.527 33.5841 11.3482 33.6653 11.4457 33.6328C11.6083 33.5515 11.7871 33.4865 11.966 33.4377C12.0635 33.4052 12.1611 33.389 12.2586 33.3565L12.3236 33.3402C12.4212 33.3239 12.2749 33.3402 12.3399 33.3402L12.4862 33.3239C12.9577 33.2752 13.4129 33.2752 13.8844 33.3565L14.4046 32.2022C13.6567 32.2184 12.9089 32.1371 12.1773 31.9258L12.2586 31.942C11.2181 31.6332 10.2427 31.1129 9.4298 30.3976C9.18593 30.1862 8.97458 29.9749 8.76324 29.731L8.81201 29.7961C8.16171 29.0807 7.65773 28.2353 7.33257 27.3249C7.30006 27.2599 7.2838 27.1786 7.25129 27.1136L7.21877 26.9998C7.21877 26.9835 7.20251 26.9672 7.20251 26.951C7.23503 27.0485 7.20251 26.951 7.20251 26.9347C7.15374 26.7722 7.12123 26.6096 7.08871 26.447C7.00742 26.0568 6.95865 25.6666 6.94239 25.2765C6.94239 25.1789 6.87736 25.1139 6.77982 25.0976C6.66602 25.1139 6.55221 25.1627 6.47093 25.2602C6.24332 25.439 6.11326 25.7317 6.097 26.0406ZM6.30835 9.53919C6.4059 11.6852 7.80404 13.5385 9.85249 14.2051C10.389 14.3839 10.958 14.4652 11.5433 14.449C11.8196 14.449 12.0473 14.1076 12.1448 13.8799C12.2098 13.7174 12.3399 13.3272 12.0635 13.2947C11.5108 13.1971 10.9417 13.2622 10.4215 13.4572C9.90126 13.6849 9.44605 14.0425 9.10464 14.4815C8.37306 15.4082 8.04791 16.5624 7.85282 17.7005C7.77153 18.237 7.7065 18.7897 7.65773 19.3425C7.65773 19.4238 7.65773 19.5701 7.73901 19.6189C7.80404 19.6514 7.88533 19.6351 7.95036 19.6026C8.21048 19.4563 8.38931 19.2124 8.45434 18.936C8.61692 18.3345 8.64943 17.7005 8.53563 17.0989C8.42183 16.6112 8.19422 16.156 7.85282 15.7983C7.17 15.0667 6.14578 14.7091 5.18658 14.5628C4.58505 14.4652 3.98353 14.4327 3.382 14.4815L2.86176 15.6358C3.78844 15.5382 4.65008 15.2131 5.39793 14.6603C6.95865 13.5385 7.69024 11.5876 7.25129 9.71802C7.23503 9.62048 7.18626 9.53919 7.08871 9.53919C6.97491 9.55544 6.86111 9.60422 6.77982 9.70176C6.64976 9.81557 6.55221 9.96188 6.48718 10.1082C6.42215 10.2383 6.38964 10.3683 6.4059 10.5146C6.47093 10.791 6.50344 11.0837 6.5197 11.3763C6.5197 11.4413 6.5197 11.5063 6.5197 11.5551V11.6039C6.5197 11.6039 6.5197 11.5063 6.5197 11.5551V11.6689C6.5197 11.799 6.50344 11.929 6.48718 12.0428C6.48718 12.0916 6.47093 12.1566 6.45467 12.2054C6.45467 12.2217 6.45467 12.2379 6.45467 12.2379C6.43841 12.303 6.48718 12.1079 6.47093 12.1729L6.45467 12.2542C6.42215 12.368 6.38964 12.4818 6.35712 12.5956C6.35712 12.6119 6.34087 12.6281 6.34087 12.6444C6.35712 12.6119 6.37338 12.5793 6.37338 12.5468L6.34087 12.6281C6.32461 12.6769 6.29209 12.7257 6.27584 12.7907C6.25958 12.8069 6.25958 12.8395 6.24332 12.8557C6.17829 12.9858 6.22706 12.872 6.24332 12.8557C6.25958 12.8395 6.30835 12.7257 6.24332 12.8557C6.22706 12.872 6.21081 12.9045 6.19455 12.937C6.17829 12.9695 6.14578 13.0183 6.11326 13.0671L6.06449 13.1321C6.04823 13.1484 6.17829 12.9858 6.12952 13.0346L6.097 13.0671C6.03197 13.1484 5.96694 13.2296 5.90191 13.3109C5.8694 13.3434 5.78811 13.4247 5.93443 13.2784L5.8694 13.3434L5.73934 13.4572L5.62554 13.5548C5.59302 13.5873 5.52799 13.6198 5.49548 13.6523C5.49548 13.6523 5.60928 13.5548 5.56051 13.6036L5.54425 13.6361L5.47922 13.6849L5.34916 13.7824C5.26787 13.8474 5.17032 13.8962 5.08904 13.945L4.95898 14.01L4.89395 14.0425L4.95898 14.01L4.92646 14.0263C4.82892 14.075 4.73137 14.1076 4.63383 14.1563C4.42248 14.2376 4.21113 14.3189 3.98353 14.3677C3.86972 14.4002 3.77218 14.4164 3.65838 14.4327H3.70715H3.65838L3.57709 14.449L3.41451 14.4652C3.13813 14.4977 2.91053 14.7904 2.81298 15.0342C2.74795 15.1643 2.71544 15.2944 2.7317 15.4407C2.74795 15.522 2.79673 15.6358 2.89427 15.6195C3.75592 15.5545 4.61757 15.6358 5.46296 15.8634L5.38167 15.8471C6.08075 16.0259 6.73105 16.3836 7.23503 16.9038L7.17 16.8388C7.31632 17.0014 7.43012 17.164 7.52767 17.3591C7.57644 17.4566 7.62521 17.5541 7.65773 17.6517C7.67398 17.7005 7.69024 17.7492 7.7065 17.798C7.65772 17.7005 7.7065 17.7818 7.7065 17.8143L7.72276 17.8956C7.73901 18.0094 7.77153 18.1069 7.77153 18.2207C7.77153 18.2857 7.78779 18.3508 7.78779 18.4158C7.78779 18.4483 7.78779 18.4646 7.78779 18.4971C7.78779 18.4158 7.78779 18.6271 7.78779 18.4971C7.78779 18.6271 7.77153 18.7572 7.75527 18.8873C7.75527 18.9523 7.73901 19.0173 7.72276 19.0824C7.67398 19.2612 7.7065 19.1474 7.72276 19.0824C7.7065 19.1149 7.7065 19.1636 7.69024 19.1962L8.51937 18.7897C8.55189 18.3345 8.60066 17.863 8.66569 17.4078C8.69821 17.164 8.74698 16.9201 8.79575 16.6762C8.81201 16.595 8.76324 16.8226 8.79575 16.7088C8.79575 16.6762 8.81201 16.66 8.81201 16.6275L8.86078 16.4486C8.8933 16.3348 8.92581 16.2048 8.95833 16.091C8.99084 15.9772 9.02336 15.8634 9.07213 15.7658L9.08839 15.7333C9.10464 15.6683 9.02336 15.8796 9.05587 15.8146C9.07213 15.7821 9.07213 15.7658 9.08839 15.7333C9.10464 15.6845 9.13716 15.6195 9.15342 15.5707C9.16967 15.522 9.20219 15.4732 9.21845 15.4244L9.25096 15.3594L9.26722 15.3269L9.21845 15.4082C9.28348 15.3106 9.33225 15.2131 9.39728 15.1155C9.41354 15.083 9.47857 14.9855 9.39728 15.1155C9.31599 15.2456 9.38102 15.148 9.39728 15.1155C9.41354 15.083 9.47857 15.018 9.51108 14.9692C9.5436 14.9204 9.6574 14.8229 9.51108 14.9692C9.5436 14.9367 9.59237 14.8879 9.62488 14.8554C9.6574 14.8229 9.70617 14.7741 9.73869 14.7579C9.73869 14.7579 9.60863 14.8554 9.67366 14.8066L9.70617 14.7904L9.7712 14.7416L9.90126 14.6603L9.96629 14.6278C9.885 14.6766 10.0638 14.579 9.96629 14.6278C10.0801 14.579 10.1939 14.5302 10.324 14.4977C10.389 14.4815 10.454 14.4652 10.5028 14.449H10.5516C10.6166 14.4327 10.4865 14.4652 10.5353 14.449L10.6329 14.4327C10.9417 14.4002 11.2506 14.4002 11.5595 14.449L12.0798 13.2947C11.592 13.3109 11.0881 13.2459 10.6166 13.1158L10.6979 13.1321C9.78746 12.8557 8.97458 12.368 8.3568 11.6689L8.42183 11.734C8.04791 11.3275 7.75527 10.856 7.54392 10.3521C7.49515 10.222 7.44638 10.0919 7.3976 9.96188L7.36509 9.84808C7.34883 9.81557 7.34883 9.81557 7.36509 9.86434L7.33257 9.81557C7.31632 9.75054 7.30006 9.68551 7.2838 9.62047C7.21877 9.32784 7.18626 9.0352 7.17 8.72631C7.17 8.62877 7.10497 8.56374 7.00742 8.54748C6.89362 8.56374 6.77982 8.61251 6.69853 8.71005C6.45467 8.9214 6.32461 9.21404 6.30835 9.53919Z" fill="#CC338C"/>
<path d="M95.7901 5.79999C90.0349 0.174888 80.6218 -0.0852323 73.4685 3.24756C66.3152 6.58035 61.129 15.6033 62.771 24.1385C63.7302 28.9507 66.6078 33.1777 70.7372 35.8276C74.6553 38.315 79.3212 39.0954 83.7757 38.4939C90.2462 37.6322 96.6517 33.5516 99.4155 26.9022C102.179 20.2529 100.375 10.2871 95.7901 5.79999Z" fill="white"/>
<path d="M96.1308 5.24722C94.7489 3.89784 93.1232 2.80859 91.3511 2.04449C89.5628 1.28038 87.6769 0.792658 85.7422 0.597568C83.7913 0.402477 81.8404 0.45125 79.9058 0.7764C77.9549 1.08529 76.0528 1.62179 74.2319 2.40215C72.4436 3.16626 70.8016 4.20674 69.3384 5.49108C67.8265 6.84045 66.5096 8.38492 65.4366 10.092C64.3311 11.8153 63.4695 13.6849 62.8842 15.652C62.2989 17.6029 62.0063 19.6514 62.055 21.6836C62.1038 23.7645 62.5428 25.8292 63.3231 27.7639C64.0872 29.6823 65.1927 31.4706 66.5584 33.0313C67.924 34.592 69.5335 35.9089 71.3543 36.9169C73.3703 38.0224 75.5813 38.7377 77.8573 39.0466C80.0684 39.3555 82.3282 39.2905 84.5229 38.9003C88.4085 38.2012 92.0177 36.4129 94.944 33.7466C96.4722 32.3485 97.7728 30.7227 98.7808 28.9182C99.7725 27.1786 100.455 25.2765 100.829 23.3093C101.171 21.4072 101.268 19.4725 101.106 17.5379C100.959 15.6033 100.585 13.7011 100 11.864C99.4636 10.157 98.6832 8.53124 97.6915 7.0518C97.22 6.41776 96.6998 5.79997 96.1308 5.24722C96.0658 5.18219 95.9032 5.26347 95.8382 5.29599C95.7081 5.37728 95.5943 5.50734 95.513 5.6374C95.3992 5.83249 95.2366 6.15764 95.4317 6.35273C96.6023 7.49075 97.4802 8.90516 98.1792 10.3683C98.9433 12.0103 99.5124 13.7499 99.8375 15.522C100.195 17.3591 100.341 19.2287 100.26 21.082C100.211 22.0087 100.114 22.9354 99.9513 23.8458C99.9351 23.9596 99.9188 24.0572 99.8863 24.171C99.87 24.2197 99.87 24.2685 99.8538 24.3173C99.87 24.236 99.8375 24.3986 99.8213 24.4311C99.7725 24.6424 99.7237 24.87 99.6587 25.0814C99.5449 25.5041 99.4148 25.9105 99.2685 26.3332L99.2035 26.4958L99.171 26.5608C99.171 26.5608 99.2035 26.4633 99.1872 26.5283C99.1384 26.6421 99.1059 26.7397 99.0572 26.8372C98.9596 27.0648 98.8621 27.2924 98.7645 27.52C98.6507 27.7476 98.5532 27.9752 98.4394 28.2028L98.3418 28.3817C98.3256 28.4304 98.2605 28.528 98.3256 28.4304C98.2605 28.5442 98.1955 28.658 98.1305 28.7718C97.8866 29.2108 97.6265 29.6172 97.3339 30.0399L97.2363 30.17C97.2201 30.1862 97.2038 30.2188 97.1875 30.235C97.1388 30.3163 97.2526 30.1537 97.1875 30.235C97.1225 30.3163 97.0412 30.4464 96.9599 30.5439C96.8136 30.739 96.6673 30.9341 96.5047 31.1129C95.3179 32.5436 93.9198 33.7954 92.3591 34.8196C90.7821 35.8439 89.075 36.6567 87.2867 37.2095C85.3846 37.7948 83.4012 38.1037 81.4015 38.1362C79.1742 38.1687 76.9469 37.8273 74.8335 37.1282C72.8013 36.4454 70.8991 35.3887 69.2571 34.0068C67.7289 32.7387 66.4283 31.2105 65.3878 29.5197C64.3148 27.7801 63.567 25.8617 63.1606 23.8458C62.7866 21.9437 62.7379 19.9928 63.0142 18.0744C63.0468 17.8305 63.0955 17.5867 63.128 17.3428C63.1443 17.229 63.1768 17.1152 63.1931 17.0014C63.2093 16.9526 63.2093 16.8876 63.2256 16.8388C63.2093 16.9201 63.2256 16.8226 63.2256 16.8226L63.2581 16.7088C63.3719 16.2373 63.4857 15.7658 63.632 15.2944C63.6971 15.0668 63.7783 14.8229 63.8596 14.5953C63.8921 14.4815 63.9409 14.3677 63.9734 14.2701C63.9897 14.2214 64.006 14.1726 64.0222 14.1238C64.0222 14.1238 64.0547 14.0263 64.0385 14.0913C64.0222 14.1563 64.071 14.01 64.071 14.01C64.2498 13.5711 64.4286 13.1321 64.64 12.6932C64.7375 12.4818 64.8513 12.2542 64.9651 12.0429L65.1277 11.734L65.1115 11.7665L65.1602 11.6689C65.1927 11.6202 65.2253 11.5551 65.2578 11.5064C65.5016 11.0837 65.7455 10.6772 66.0056 10.2708C66.1357 10.0757 66.282 9.86435 66.4121 9.66926C66.4446 9.62049 66.5096 9.5392 66.4283 9.63675L66.5421 9.49043L66.7697 9.19779C67.0624 8.82387 67.355 8.46621 67.6639 8.10854C67.7452 8.02725 67.8102 7.92971 67.8915 7.84842L68.0216 7.71836L68.0703 7.65333C68.0053 7.71836 68.1354 7.5883 68.0703 7.65333C68.2329 7.4745 68.3955 7.31192 68.5743 7.14935C68.9157 6.8242 69.2571 6.49905 69.6148 6.19015L69.8749 5.97881L69.9887 5.88126L70.0537 5.83249C70.0537 5.83249 70.1675 5.7512 70.1188 5.78372C70.07 5.81623 70.1513 5.76746 70.1513 5.76746L70.2488 5.70243L70.3952 5.58863C70.4927 5.50734 70.5902 5.44231 70.6878 5.37728C71.0617 5.11716 71.4356 4.85704 71.8258 4.62943C73.4191 3.6865 75.1423 2.97116 76.9307 2.4997C78.784 1.99571 80.6862 1.71934 82.6045 1.68682C84.5067 1.65431 86.4088 1.86565 88.2459 2.35338C90.0505 2.82485 91.7738 3.60521 93.3183 4.64569C94.0824 5.16593 94.7977 5.73494 95.448 6.38524C95.513 6.45027 95.6756 6.36899 95.7406 6.33647C95.8707 6.25518 95.9845 6.12512 96.0658 5.99506C96.1633 5.78372 96.3259 5.44231 96.1308 5.24722Z" fill="#CC338C"/>
<path d="M69.7278 22.4477L75.1416 27.8777L76.6698 29.4059C76.8486 29.5034 77.0437 29.5034 77.2226 29.4221C77.4827 29.3246 77.7103 29.1783 77.9054 28.9832L83.6931 22.9679L89.4482 16.9851L92.6997 13.6036C92.8948 13.4247 93.0574 13.2297 93.1875 13.0183C93.35 12.807 93.4963 12.5631 93.6102 12.3192C93.724 12.1079 93.789 11.8803 93.8377 11.6364C93.8865 11.4413 93.9028 11.2462 93.8865 11.0511L93.8052 10.7585C93.724 10.5959 93.5614 10.4984 93.3663 10.4984L93.0737 10.5472C92.8135 10.6447 92.5859 10.791 92.3908 10.9861L86.6031 17.0014L80.848 22.9842L77.5965 26.3657L78.8483 25.943L73.4346 20.513L71.9064 18.9848C71.7926 18.9035 71.63 18.8873 71.4999 18.936C71.3211 18.9523 71.1585 19.0173 71.0122 19.1311C70.8171 19.2612 70.6383 19.4075 70.492 19.5863C70.2969 19.7652 70.1343 19.9765 70.0042 20.2041C69.7604 20.6106 69.5165 21.082 69.484 21.5698V21.9437C69.484 22.1388 69.5815 22.3176 69.7278 22.4477ZM45.9106 88.8759C45.8781 88.9897 45.8293 89.1035 45.7968 89.201C45.7805 89.2498 45.7643 89.2986 45.748 89.3474C45.7968 89.2011 45.7643 89.3149 45.748 89.3311L45.6992 89.4449C45.6179 89.6563 45.5204 89.8839 45.4228 90.0952C45.2278 90.5342 45.0327 90.9569 44.8213 91.3796L44.6587 91.6722C44.6425 91.7047 44.6262 91.721 44.61 91.7535C44.5612 91.851 44.6587 91.6559 44.6262 91.721C44.5937 91.786 44.5612 91.851 44.5287 91.8998C44.4149 92.1111 44.3011 92.3062 44.171 92.5176C43.9272 92.924 43.667 93.3305 43.3907 93.7207C43.3256 93.8019 43.2606 93.8995 43.2118 93.9808C43.3256 93.8182 43.1956 93.997 43.1631 94.0458L43.0493 94.2084C42.9029 94.4035 42.7729 94.5823 42.6266 94.7611C42.3339 95.135 42.025 95.509 41.6999 95.8504L41.4885 96.078C41.4072 96.1593 41.5698 95.9804 41.4885 96.078C41.4723 96.0942 41.4398 96.1268 41.4235 96.143L41.2934 96.2731C41.1309 96.4356 40.9683 96.5982 40.8057 96.7608C40.4643 97.0859 40.1066 97.4111 39.749 97.72L39.4563 97.9638L39.31 98.0777L39.2287 98.1427L39.18 98.1752C39.2287 98.1264 39.245 98.1264 39.1962 98.1589C38.9849 98.3215 38.7735 98.4841 38.5622 98.6304C38.1395 98.9393 37.7005 99.2319 37.2453 99.4921C37.0177 99.6546 36.8551 99.8985 36.8226 100.175C36.8226 100.256 36.8064 100.37 36.8876 100.419C36.9689 100.468 37.0665 100.419 37.1315 100.37C38.8386 99.3295 40.383 98.0614 41.7486 96.5982C43.1305 95.1188 44.3011 93.4605 45.244 91.6722C45.7805 90.6642 46.2195 89.64 46.5934 88.567C46.6422 88.4207 46.6259 88.1118 46.3983 88.2093C46.1707 88.3069 45.9756 88.6483 45.9106 88.8759ZM49.3572 91.1357C49.3247 91.4608 49.2759 91.786 49.2271 92.1112C49.1946 92.2737 49.1621 92.4363 49.1296 92.5989C49.1296 92.5989 49.1458 92.5013 49.1458 92.5664L49.1296 92.6314L49.097 92.7452C49.0808 92.8265 49.0645 92.9078 49.032 92.9891C48.9507 93.3142 48.8532 93.6231 48.7556 93.932C48.7394 93.997 48.7069 94.0783 48.6744 94.1433L48.6418 94.2571L48.6256 94.3059C48.6256 94.3222 48.5768 94.4197 48.6093 94.3384C48.6418 94.2571 48.5931 94.3709 48.5931 94.3872C48.5931 94.4035 48.5605 94.4685 48.5443 94.501C48.5118 94.5823 48.4793 94.6636 48.4467 94.7449C48.3167 95.0375 48.1866 95.3301 48.0403 95.6228L47.9265 95.8341C47.894 95.8829 47.959 95.7691 47.959 95.7691L47.9265 95.8179L47.8615 95.9479C47.7802 96.0942 47.6989 96.2243 47.6176 96.3706C47.5363 96.5169 47.4388 96.647 47.3412 96.7933L47.2112 96.9884L47.1299 97.1022L47.0974 97.1347C47.0649 97.1998 47.1787 97.0209 47.1136 97.1022C46.9185 97.3623 46.7234 97.6224 46.5121 97.8663C46.3983 98.0126 46.2682 98.1427 46.1544 98.2728L46.1219 98.3053C46.0406 98.3865 46.187 98.2402 46.1382 98.289L46.0406 98.3865L45.8455 98.5816C45.5854 98.8418 45.309 99.0856 45.0327 99.3132C44.9189 99.4108 44.8376 99.5408 44.7725 99.6709C44.7075 99.7847 44.6913 99.8985 44.6913 100.029C44.74 100.289 44.9839 100.159 45.114 100.045C46.2032 99.1344 47.1461 98.0614 47.9103 96.8583C48.6744 95.6553 49.2759 94.3384 49.6498 92.9565C49.8611 92.1924 50.0075 91.4121 50.0888 90.6155C50.0888 90.5342 50.0888 90.4204 50.0237 90.3716C49.9424 90.3391 49.8449 90.3553 49.7799 90.4041C49.5685 90.5829 49.4059 90.8431 49.3572 91.1357ZM53.4866 92.3713C53.4866 92.4363 53.4866 92.5013 53.4866 92.5664C53.4866 92.4688 53.4866 92.5664 53.4866 92.5826C53.4866 92.5989 53.4866 92.6476 53.4866 92.6802C53.4866 92.8102 53.4866 92.9403 53.4541 93.0541C53.4378 93.2979 53.4053 93.5418 53.3565 93.7694C53.3403 93.8345 53.3403 93.8995 53.324 93.9645C53.3077 94.0946 53.324 93.997 53.324 93.9645C53.324 93.997 53.3077 94.0295 53.3077 94.062C53.2752 94.1921 53.2427 94.3059 53.2102 94.436C53.1452 94.6636 53.0639 94.9074 52.9826 95.135C52.9501 95.2488 53.0314 95.0213 52.9826 95.1188L52.9501 95.2001L52.8851 95.3464C52.8363 95.4765 52.7713 95.5903 52.7225 95.7203C52.6737 95.8504 52.6249 95.9317 52.5599 96.0292C52.4949 96.1268 52.6249 95.8991 52.5762 96.013L52.5274 96.0942C52.4949 96.143 52.4624 96.208 52.4298 96.2568C52.3648 96.3544 52.316 96.4519 52.251 96.5494C52.2185 96.5982 52.186 96.6632 52.1372 96.712C52.0884 96.7608 52.1047 96.7608 52.0884 96.7933C52.0722 96.8096 52.0722 96.8258 52.0559 96.8421C52.1209 96.7608 52.1209 96.7445 52.0884 96.7933C51.9421 96.9884 51.7958 97.1835 51.6332 97.3623L51.4869 97.5249L51.4381 97.5737C51.5519 97.4436 51.4544 97.5574 51.4219 97.5899C51.3243 97.6875 51.2268 97.785 51.1292 97.8826C51.0317 97.9801 50.9341 98.0614 50.8203 98.1589C50.7716 98.2077 50.7228 98.2565 50.6578 98.289L50.7065 98.2565L50.6578 98.289L50.5602 98.3703C50.3326 98.5329 50.17 98.7767 50.1375 99.0531C50.1375 99.1344 50.1213 99.2482 50.2026 99.297C50.2839 99.3295 50.3814 99.3132 50.4464 99.2645C52.2998 97.8663 53.5841 95.8179 54.0393 93.5418C54.1531 92.9403 54.2182 92.3225 54.2019 91.7047C54.2019 91.6234 54.1369 91.5584 54.0556 91.5421C53.958 91.5584 53.8605 91.6072 53.7792 91.6722C53.6329 91.851 53.5028 92.0949 53.4866 92.3713Z" fill="#CC338C"/>
</g>
<defs>
<clipPath id="clip0_506_21106">
<rect width="100.667" height="100" fill="white" transform="translate(0.666992 0.5)"/>
</clipPath>
</defs>
</svg>
