<svg width="16" height="16" viewBox="0 0 16 16" fill="none" xmlns="http://www.w3.org/2000/svg">
<mask id="mask0_1540_703" style="mask-type:luminance" maskUnits="userSpaceOnUse" x="1" y="3" width="11" height="11">
<path fill-rule="evenodd" clip-rule="evenodd" d="M1.33398 3.3335H11.6675V13.6677H1.33398V3.3335Z" fill="white"/>
</mask>
<g mask="url(#mask0_1540_703)">
<path fill-rule="evenodd" clip-rule="evenodd" d="M4.56536 4.33426C4.27269 4.33426 4.08403 4.33426 4.05136 4.3356C3.55936 4.35626 3.10536 4.56493 2.77803 4.92226C2.47269 5.25626 2.31536 5.68293 2.33603 6.1256C2.33603 8.05426 2.33669 10.9489 2.34136 11.1076C2.41736 12.0309 3.28269 12.7369 4.27336 12.6609C6.10669 12.6636 8.82269 12.6696 8.95003 12.6649C9.44003 12.6449 9.89469 12.4369 10.222 12.0803C10.528 11.7476 10.6854 11.3209 10.666 10.8803C10.6654 10.8729 10.6654 10.8656 10.6654 10.8583C10.666 8.9516 10.666 6.05893 10.6614 5.9036C10.586 4.9756 9.71669 4.26093 8.72069 4.33893C7.34336 4.33693 5.46403 4.33426 4.56536 4.33426ZM4.09806 13.6677C2.68872 13.6684 1.45939 12.5884 1.34339 11.1717C1.34139 11.1444 1.33472 11.0611 1.33672 6.14839C1.30472 5.46106 1.55406 4.77839 2.04072 4.24706C2.54872 3.69239 3.24939 3.36906 4.01406 3.33639C4.10672 3.32973 7.31206 3.33773 8.68472 3.34039C10.1847 3.23506 11.5387 4.34839 11.6594 5.84239C11.6647 5.91506 11.6667 7.59839 11.6654 10.8484C11.6934 11.5524 11.4427 12.2304 10.9587 12.7571C10.4501 13.3111 9.74872 13.6331 8.98472 13.6644C8.89139 13.6711 5.68472 13.6624 4.31006 13.6597C4.23939 13.6651 4.16872 13.6677 4.09806 13.6677Z" fill="#787E87"/>
</g>
<path fill-rule="evenodd" clip-rule="evenodd" d="M13.8799 12.2327C13.5792 12.2327 13.2826 12.1294 13.0379 11.9287L10.8506 10.1314C10.6372 9.95604 10.6066 9.64071 10.7819 9.42738C10.9566 9.21471 11.2719 9.18271 11.4852 9.35871L13.6719 11.156C13.8192 11.276 13.9672 11.2267 14.0246 11.1987C14.0819 11.172 14.2146 11.0887 14.2146 10.8994L14.2226 6.00004C14.2232 5.81071 14.0899 5.72738 14.0326 5.70004C13.9759 5.67338 13.8259 5.62338 13.6799 5.74338L11.4846 7.54004C11.2699 7.71538 10.9559 7.68404 10.7812 7.46938C10.6059 7.25604 10.6379 6.94138 10.8512 6.76671L13.0466 4.96938C13.4492 4.63938 13.9912 4.57471 14.4612 4.79671C14.9312 5.02004 15.2232 5.48138 15.2226 6.00138L15.2146 10.9007C15.2139 11.4207 14.9212 11.882 14.4519 12.1034C14.2679 12.1907 14.0732 12.2327 13.8799 12.2327Z" fill="#787E87"/>
</svg>
