<svg width="34" height="34" viewBox="0 0 34 34" fill="none" xmlns="http://www.w3.org/2000/svg">
<path fill-rule="evenodd" clip-rule="evenodd" d="M10.3276 13.3475L10.9306 20.5195C10.9746 21.0715 11.4256 21.4855 11.9766 21.4855H11.9806H22.8916H22.8936C23.4146 21.4855 23.8596 21.0975 23.9336 20.5825L24.8836 14.0235C24.9056 13.8675 24.8666 13.7115 24.7716 13.5855C24.6776 13.4585 24.5396 13.3765 24.3836 13.3545C24.1746 13.3625 15.5016 13.3505 10.3276 13.3475ZM11.9746 22.9855C10.6576 22.9855 9.54259 21.9575 9.43559 20.6425L8.51959 9.74849L7.01259 9.48849C6.60359 9.41649 6.33059 9.02949 6.40059 8.62049C6.47259 8.21149 6.86759 7.94549 7.26759 8.00949L9.34759 8.36949C9.68259 8.42849 9.93759 8.70649 9.96659 9.04649L10.2016 11.8475C24.4776 11.8535 24.5236 11.8605 24.5926 11.8685C25.1496 11.9495 25.6396 12.2405 25.9736 12.6885C26.3076 13.1355 26.4476 13.6865 26.3676 14.2385L25.4186 20.7965C25.2396 22.0445 24.1556 22.9855 22.8956 22.9855H22.8906H11.9826H11.9746Z" fill="#130F26"/>
<path fill-rule="evenodd" clip-rule="evenodd" d="M11.544 25.7021C11.845 25.7021 12.088 25.9451 12.088 26.2461C12.088 26.5471 11.845 26.7911 11.544 26.7911C11.242 26.7911 10.999 26.5471 10.999 26.2461C10.999 25.9451 11.242 25.7021 11.544 25.7021Z" fill="#130F26"/>
<mask id="mask0_1540_923" style="mask-type:luminance" maskUnits="userSpaceOnUse" x="10" y="25" width="3" height="2">
<path fill-rule="evenodd" clip-rule="evenodd" d="M10.999 26.2457C10.999 26.5477 11.242 26.7917 11.545 26.7917C11.846 26.7917 12.089 26.5477 12.089 26.2457C12.089 25.9447 11.846 25.7017 11.545 25.7017C11.242 25.7017 10.999 25.9447 10.999 26.2457Z" fill="white"/>
</mask>
<g mask="url(#mask0_1540_923)">
<path fill-rule="evenodd" clip-rule="evenodd" d="M6 31.7907H17.089V20.7017H6V31.7907Z" fill="#130F26"/>
</g>
<path fill-rule="evenodd" clip-rule="evenodd" d="M11.543 26.0407C11.43 26.0407 11.338 26.1327 11.338 26.2457C11.338 26.4727 11.749 26.4727 11.749 26.2457C11.749 26.1327 11.656 26.0407 11.543 26.0407ZM11.543 27.5407C10.829 27.5407 10.249 26.9597 10.249 26.2457C10.249 25.5317 10.829 24.9517 11.543 24.9517C12.257 24.9517 12.838 25.5317 12.838 26.2457C12.838 26.9597 12.257 27.5407 11.543 27.5407Z" fill="#130F26"/>
<path fill-rule="evenodd" clip-rule="evenodd" d="M22.8243 25.7017C23.1253 25.7017 23.3693 25.9447 23.3693 26.2457C23.3693 26.5467 23.1253 26.7907 22.8243 26.7907C22.5223 26.7907 22.2793 26.5467 22.2793 26.2457C22.2793 25.9447 22.5223 25.7017 22.8243 25.7017Z" fill="#130F26"/>
<mask id="mask1_1540_923" style="mask-type:luminance" maskUnits="userSpaceOnUse" x="22" y="25" width="2" height="2">
<path fill-rule="evenodd" clip-rule="evenodd" d="M22.2803 26.2457C22.2803 26.5477 22.5233 26.7917 22.8253 26.7917C23.1253 26.7917 23.3703 26.5477 23.3703 26.2457C23.3703 25.9447 23.1253 25.7017 22.8253 25.7017C22.5233 25.7017 22.2803 25.9447 22.2803 26.2457Z" fill="white"/>
</mask>
<g mask="url(#mask1_1540_923)">
<path fill-rule="evenodd" clip-rule="evenodd" d="M17.2803 31.7907H28.3703V20.7017H17.2803V31.7907Z" fill="#130F26"/>
</g>
<path fill-rule="evenodd" clip-rule="evenodd" d="M22.8233 26.0407C22.7113 26.0407 22.6193 26.1327 22.6193 26.2457C22.6203 26.4747 23.0303 26.4727 23.0293 26.2457C23.0293 26.1327 22.9363 26.0407 22.8233 26.0407ZM22.8233 27.5407C22.1093 27.5407 21.5293 26.9597 21.5293 26.2457C21.5293 25.5317 22.1093 24.9517 22.8233 24.9517C23.5383 24.9517 24.1193 25.5317 24.1193 26.2457C24.1193 26.9597 23.5383 27.5407 22.8233 27.5407Z" fill="#130F26"/>
</svg>
