<svg width="353" height="164" viewBox="0 0 353 164" fill="none" xmlns="http://www.w3.org/2000/svg">
<path fill-rule="evenodd" clip-rule="evenodd" d="M78.645 34.2695C62.4133 39.5442 50.7823 48.237 39.3208 57.5312C1.73878 88.0362 -4.62791 120.204 32.3874 139.185C89.9139 168.582 203.727 165.59 282.226 128.726C299.614 120.575 323.535 110.883 337.669 91.7426C350.818 73.9435 345.789 58.8147 334.084 46.8659C322.138 34.5987 303.243 25.6145 288.778 20.5165C225.556 -1.69401 110.548 -5.0824 20.3393 40.7331C18.4782 41.6518 16.3505 41.6272 15.4851 40.7081C14.6197 39.789 15.2722 38.3421 16.9934 37.4643C109.852 -9.69293 228.426 -6.55161 293.496 16.3045C311.5 22.671 336.15 34.8762 346.984 51.7867C354.341 63.3585 355.342 77.0906 343.972 92.6091C328.974 112.981 303.624 123.513 285.168 132.175C204.13 170.238 86.4501 173.475 27.1291 143.087C-12.7064 122.702 -6.10153 88.165 34.3174 55.3695C46.6265 45.3222 59.4446 36.0029 77.0639 30.2786C79.0064 29.6482 80.9319 30.0323 81.2524 31.1676C81.7129 32.262 80.4475 33.68 78.645 34.2695Z" fill="#FAEBF4"/>
</svg>
