<svg width="215" height="160" viewBox="0 0 215 160" fill="none" xmlns="http://www.w3.org/2000/svg">
<path d="M109.541 142.8H139.941" stroke="#A9ADB2" stroke-linecap="round" stroke-linejoin="round"/>
<path d="M200.074 144.667H205.247H193.674" stroke="#A9ADB2" stroke-linecap="round" stroke-linejoin="round"/>
<path d="M185.141 144.667H191.007" stroke="#A9ADB2" stroke-linecap="round" stroke-linejoin="round"/>
<path d="M150.607 144.667H179.906H182.074" stroke="#A9ADB2" stroke-linecap="round" stroke-linejoin="round"/>
<path fill-rule="evenodd" clip-rule="evenodd" d="M91.7129 75.2155C91.5209 76.4315 89.4009 78.0235 89.4009 78.0235L78.2889 66.3995L78.1983 65.6582L77.9609 63.7115C77.9609 63.7115 82.1876 63.8235 83.7743 60.0022L83.8543 63.7782L84.0329 66.6129C84.0329 66.6129 88.7449 66.5755 89.8996 67.3409C89.9129 67.3409 91.9023 73.9995 91.7129 75.2155Z" fill="#FF8E68"/>
<path fill-rule="evenodd" clip-rule="evenodd" d="M83.8543 62.4427L78.1983 65.656L77.9609 63.7093C77.9609 63.7093 82.1876 63.8213 83.7743 60L83.8543 62.4427Z" fill="#F85C2A"/>
<path fill-rule="evenodd" clip-rule="evenodd" d="M117.815 74.0108C117.802 74.1095 117.778 74.2055 117.757 74.3015C117.367 76.2028 114.375 79.8668 113.69 80.8001C113.005 81.7335 111.626 81.1681 111.626 81.1681C110.026 77.4801 111.045 76.4508 111.045 76.4508C112.111 76.2081 112.253 75.7681 112.253 75.7681C112.05 71.3361 108.346 72.2161 108.346 72.2161C108.021 72.2382 107.707 72.3399 107.431 72.5121C106.967 72.8038 106.558 73.1758 106.223 73.6108C105.957 74.9441 105.447 75.6295 105.141 75.9441C105.134 75.9519 105.127 75.959 105.119 75.9655C105.074 76.0116 105.026 76.0552 104.975 76.0961L104.909 76.1495L104.879 76.1681C104.054 76.743 103.092 77.0923 102.09 77.1815C101.706 77.2241 101.319 77.2455 100.933 77.2455H100.589C100.211 77.2039 99.8298 77.2329 99.4632 77.3308C99.3696 77.3641 99.2802 77.4079 99.1966 77.4615C98.5432 77.8668 98.2952 78.7948 98.2392 79.5948C98.1537 80.5662 98.2258 81.545 98.4526 82.4935C98.5486 82.8508 99.1059 83.8081 99.0419 84.1468C98.8979 84.9121 97.7726 85.0721 97.5646 85.9068C97.4993 86.1809 97.5047 86.4671 97.5802 86.7386C97.6558 87.01 97.799 87.2578 97.9966 87.4588C98.0499 87.5095 98.1059 87.5601 98.1646 87.6081C98.3029 87.7173 98.4258 87.8447 98.5299 87.9868C98.5898 88.0727 98.6257 88.1731 98.6339 88.2775C98.6405 88.3217 98.6405 88.3666 98.6339 88.4108C98.6221 88.4761 98.6024 88.5396 98.5752 88.6001L98.5432 88.6641C98.2126 89.2988 97.4286 89.6348 97.1192 90.1121C97.038 90.2371 96.9947 90.383 96.9947 90.5321C96.9947 90.6812 97.038 90.8271 97.1192 90.9521C97.2109 91.1053 97.3313 91.2393 97.4739 91.3468C97.8899 91.6935 98.5192 92.0481 98.8072 92.3201C99.4291 92.9268 100.007 93.5773 100.535 94.2668C100.05 94.4721 99.4686 94.5495 99.0019 94.7841C98.2019 95.1708 97.4366 95.5841 96.7006 96.0215C94.2507 97.4565 91.9307 99.1028 89.7672 100.941C85.3832 105.864 85.6046 106.717 84.4206 108.301C83.2366 109.885 83.0259 110.891 83.0366 111.544C83.0472 112.197 83.0366 113.395 82.2872 113.704C81.5379 114.013 80.6499 112.936 80.6499 112.936C77.0286 111.144 77.8206 106.189 77.0792 105.288C76.4766 104.555 75.9139 102.069 75.6419 100.488C75.5832 100.125 75.5352 99.8081 75.5086 99.5708C75.5086 99.5121 75.4926 99.4535 75.4819 99.3921C75.3784 98.8431 75.2166 98.3068 74.9992 97.7921C74.9459 97.6535 74.8872 97.5121 74.8259 97.3735C74.7059 97.0908 74.5752 96.8108 74.4446 96.5441C74.2339 96.1175 74.0232 95.7201 73.8392 95.3841C73.6552 95.0481 73.2339 94.1708 72.7459 93.1148C71.7619 90.9815 70.4419 88.0055 69.7912 86.4055C69.7166 86.2188 69.6179 85.9681 69.5006 85.6641C68.1166 82.0721 64.1512 71.0508 64.1512 71.0508C64.0526 70.9068 63.9512 70.7655 63.8472 70.6295C61.5939 67.6455 58.2046 66.0241 53.5752 65.9975C48.7326 65.9708 44.2232 61.8855 42.6072 60.5895C40.9912 59.2935 39.4419 57.1228 39.8686 55.7895C40.2953 54.4561 43.0526 53.1228 43.0526 53.1228C44.6526 57.0775 57.3459 58.2455 57.3459 58.2455C60.2792 58.6295 66.9646 60.3255 68.6366 60.6455C69.7832 60.8695 72.7859 61.6108 74.7166 62.2161C75.2501 62.3661 75.7702 62.5606 76.2712 62.7975C76.3238 62.8231 76.3723 62.8564 76.4152 62.8961C76.7352 63.2241 76.9939 63.7601 77.9512 64.6561C78.4047 65.0761 78.8819 65.4697 79.3806 65.8348C79.6472 66.0241 80.3166 66.6535 80.5832 66.8748C80.6792 66.9548 80.7699 67.0215 80.8499 67.0855L80.8819 67.1095C81.2596 67.3421 81.6056 67.6226 81.9112 67.9441C81.9352 67.9655 82.5806 68.4535 82.6019 68.4775C82.7446 68.6338 82.8997 68.7783 83.0659 68.9095C83.9886 69.6615 85.0872 69.9948 85.8179 71.0161L89.6499 76.0828C89.6611 76.0792 89.6712 76.0727 89.6792 76.0641C89.6951 76.0536 89.7087 76.04 89.7192 76.0241C89.8988 75.8188 90.0654 75.6023 90.2179 75.3761C90.2641 75.3204 90.315 75.2687 90.3699 75.2215C90.4849 75.1186 90.565 74.9825 90.5992 74.8321C90.6339 74.6907 90.6256 74.5421 90.5752 74.4055C90.2552 73.5121 89.5272 71.4961 89.1966 70.7601C88.7619 69.7895 87.9032 66.8828 87.9032 66.8828C87.2899 66.8615 85.9512 66.9361 85.3379 66.9415C84.9832 66.9415 84.7326 67.0641 84.4072 66.8828C84.3672 66.8615 83.9699 66.6615 84.0419 66.6428C85.2419 66.3281 86.3112 66.0721 87.2606 65.2721C88.7779 63.9895 91.4366 63.9121 93.4152 64.2055C93.991 64.3023 94.5441 64.5039 95.0472 64.8001C96.0659 65.4801 96.7512 66.1655 97.9379 66.6001C99.1246 67.0348 100.303 67.2588 101.485 67.5895C103.002 68.0135 104.53 68.4295 106.074 68.7601C107.168 68.9652 108.28 69.0617 109.394 69.0481C110.194 69.0481 110.994 69.0721 111.781 69.0481C112.237 69.0481 112.693 69.0268 113.151 69.0481C113.247 69.0481 113.341 69.0481 113.434 69.0668C113.697 69.0737 113.958 69.1204 114.207 69.2055C114.285 69.2375 114.359 69.2775 114.434 69.3175C114.589 69.3975 114.741 69.4881 114.898 69.5628C115.293 69.7488 115.671 69.9702 116.026 70.2241C116.568 70.6055 117.023 71.0983 117.359 71.6695C117.769 72.3771 117.929 73.2013 117.815 74.0108Z" fill="#CC338C"/>
<path fill-rule="evenodd" clip-rule="evenodd" d="M141.447 73.544L141.25 73.6907L136.762 77.0667L125.599 82.8L110.485 90.4L108.834 89.2667L109.45 88.2213C109.509 88.1173 109.573 88.008 109.642 87.8907C110.517 86.4053 111.97 83.9547 113.327 81.7573C114.005 80.6507 114.661 79.6027 115.194 78.768C117.442 75.32 121.906 68.272 124.863 68.056C124.863 68.056 126.479 67.3653 131.039 69.312C132.223 69.8187 133.493 70.3467 134.725 70.8533C135.49 71.168 136.242 71.4773 136.949 71.7627C139.501 72.7733 141.447 73.544 141.447 73.544Z" fill="#367090"/>
<path fill-rule="evenodd" clip-rule="evenodd" d="M106.557 117.283C106.557 117.283 109.447 117.683 111.063 116.44C111.063 116.44 118.055 107.357 118.626 103.395C118.626 103.395 107.917 112.533 106.557 117.283Z" fill="#133953"/>
<path fill-rule="evenodd" clip-rule="evenodd" d="M161.023 67.2396C163.093 66.427 165.103 65.4709 167.039 64.3783C172.711 61.2076 175.109 61.9783 176.975 60.4263C176.975 60.4263 177.082 63.1836 174.402 65.4769C171.722 67.7703 165.437 72.5943 165.335 74.0689C165.335 74.0689 163.786 73.7089 163.034 73.9649L161.023 67.2396Z" fill="#FF8E68"/>
<path fill-rule="evenodd" clip-rule="evenodd" d="M180.246 53.5491L182.19 53.6904C182.19 53.6904 182.356 56.7277 182.678 58.1304C183.001 59.5331 184.177 64.5304 179.745 65.9757C178.606 66.4465 177.514 67.0261 176.486 67.7064C176.486 67.7064 179.662 65.9411 179.79 63.3304C179.918 60.7197 179.337 55.0051 180.246 53.5491Z" fill="#A32970"/>
<path fill-rule="evenodd" clip-rule="evenodd" d="M180.834 53.5706C180.834 53.5706 179.186 53.0906 178.7 54.3253C178.215 55.5599 177.794 57.3066 176.85 61.0319C176.85 61.0319 176.815 64.0479 172.22 67.1653C167.626 70.2826 164.351 73.9226 165.495 74.9653C166.639 76.0079 168.044 77.5146 170.999 77.2479C170.999 77.2479 170.919 73.8186 172.22 72.1813C173.46 70.6159 174.026 69.3839 177.82 67.0239L178.404 66.6666C178.404 66.6666 180.111 64.9173 180.087 63.1119C180.063 61.3066 179.847 54.1546 180.834 53.5706Z" fill="#CC338C"/>
<path fill-rule="evenodd" clip-rule="evenodd" d="M182.189 53.7412C182.189 53.7412 182.701 53.6639 183.277 54.7226C183.853 55.7812 186.371 60.5332 185.101 63.9199C185.101 63.9199 185.2 64.7199 181.219 66.5359C177.237 68.3519 174.08 71.1519 173.885 72.3386C173.885 72.3386 173.44 73.1652 173.525 73.3199C173.525 73.3199 182.325 72.9626 184.347 72.5199L184.325 73.6079C184.325 73.6079 172.605 74.5866 170.624 77.3732C170.624 77.3732 170.437 73.9066 172.381 71.5839C174.325 69.2612 175.093 68.1332 179.069 66.2026C179.069 66.2026 183.099 65.0586 183.003 61.5519C182.907 58.0452 181.579 55.3146 182.189 53.7412Z" fill="#7A1F54"/>
<path fill-rule="evenodd" clip-rule="evenodd" d="M86.7727 83.4209C86.7727 83.4209 76.8501 91.7329 72.7407 93.0822C71.7567 90.9489 70.4367 87.9729 69.7861 86.3729C69.7114 86.1862 69.6127 85.9355 69.4954 85.6315C68.1114 82.0395 64.1461 71.0182 64.1461 71.0182C64.0474 70.8742 63.9461 70.7329 63.8421 70.5969C63.5381 68.6182 56.9327 68.1062 57.4421 67.3969C59.5167 64.5169 63.8927 51.8742 77.9407 64.6396C78.7781 65.4022 79.8261 66.1062 80.8474 67.0689L80.8794 67.0929C81.0101 67.1489 81.1007 67.0929 81.1221 66.8582L82.9407 68.2609C82.9407 68.2609 82.9861 68.4902 83.0634 68.8929C83.5221 71.2822 88.6501 78.0235 86.7727 83.4209Z" fill="#E8A1CA"/>
<path fill-rule="evenodd" clip-rule="evenodd" d="M92.5163 86.5196C91.2976 85.7996 89.3429 86.3302 88.9803 85.2316C88.6629 84.2689 90.2336 81.1649 89.6816 76.0342C89.6975 76.0237 89.7111 76.0101 89.7216 75.9942C89.9012 75.7889 90.0678 75.5724 90.2203 75.3462C90.2665 75.2905 90.3174 75.2388 90.3723 75.1916C90.4872 75.0887 90.5674 74.9527 90.6016 74.8022C92.5264 76.7015 93.9368 79.0589 94.7003 81.6529C94.7536 81.8316 94.8069 82.0102 94.8576 82.1862C96.5189 87.9996 93.7323 87.2422 92.5163 86.5196Z" fill="#B92F44"/>
<path fill-rule="evenodd" clip-rule="evenodd" d="M78.66 43.3544C78.66 43.3544 72.5266 44.5197 72.14 47.165C71.7533 49.8104 71.404 54.8797 72.8066 58.1917C72.8066 58.1917 74.8306 63.1597 78.332 64.1997C78.332 64.1997 80.18 64.373 82.908 61.533C82.908 61.533 85.26 58.8957 85.388 57.181C85.516 55.4664 85.7533 54.685 86.0787 54.5277C86.404 54.3704 87.6786 53.5677 87.372 52.8877C87.0653 52.2077 82.4973 44.037 81.5853 43.2637C81.5853 43.2584 79.46 43.2424 78.66 43.3544Z" fill="#FF8E68"/>
<path fill-rule="evenodd" clip-rule="evenodd" d="M82.8535 113.024C82.8535 113.024 82.9602 107.213 85.9228 105.824C85.9228 105.824 84.4695 109.349 85.4562 112.637C85.4562 112.624 83.6748 111.467 82.8535 113.024ZM114.35 69.4988C113.776 70.0503 113.06 70.4324 112.283 70.6028C111.427 70.8055 110.507 70.5868 109.632 70.7575C109.145 70.8329 108.685 71.0342 108.3 71.3414C107.914 71.6487 107.615 72.0513 107.432 72.5095C106.702 74.1335 105.902 75.2188 105.142 75.9415C105.135 75.9493 105.128 75.9564 105.12 75.9628L104.976 76.0935L104.91 76.1468L104.88 76.1655C104.206 76.6443 103.432 76.9635 102.616 77.0988C102.811 76.0322 102.795 74.6402 102.334 72.8588C101.768 70.6722 102.206 69.0962 102.952 67.9895C104.267 68.3388 105.432 68.6242 106.075 68.7628C107.169 68.9679 108.281 69.0644 109.395 69.0508C110.195 69.0508 110.995 69.0748 111.782 69.0508C112.568 69.0268 113.512 68.9655 114.304 69.2482C114.329 69.254 114.352 69.2651 114.373 69.2807C114.393 69.2964 114.41 69.3162 114.422 69.3388C114.435 69.4028 114.392 69.4588 114.35 69.4988Z" fill="#B92F44"/>
<path fill-rule="evenodd" clip-rule="evenodd" d="M112.372 75.7517C111.98 76.4237 111.038 76.4477 111.038 76.4477C110.838 76.7597 110.953 77.2823 110.99 77.6263C111.058 78.2574 111.177 78.8817 111.348 79.493C111.439 79.7976 111.507 80.1087 111.55 80.4237C111.681 81.6475 111.724 82.879 111.681 84.109C111.681 85.053 110.628 85.1757 110.628 85.1757C110.894 86.533 110.273 86.589 110.273 86.589C109.473 86.9597 109.206 84.7383 109.206 84.7383C108.988 84.6397 109.601 86.5597 109.897 87.1677L109.918 87.2077L110.246 87.8103L108.9 88.7463C108.682 88.4792 108.503 88.183 108.366 87.8663C108.334 87.7894 108.307 87.71 108.286 87.629C108.222 87.629 108.206 87.717 108.217 87.781C108.257 87.9779 108.318 88.1701 108.398 88.3543C108.492 88.5378 108.571 88.7287 108.633 88.925L107.316 89.8423C107.145 89.709 107.14 89.4263 107.073 89.229C106.689 88.1197 106.273 87.0183 105.865 85.9197C104.694 82.8317 103.905 82.2557 103.905 82.2557C103.062 82.4237 101.958 85.5517 101.172 85.1277C100.385 84.7037 100.905 83.1037 101.689 82.0583C102.473 81.013 105.025 76.1917 105.025 76.1917C105.257 75.5019 105.524 74.8246 105.825 74.1623C105.864 74.071 105.907 73.982 105.956 73.8957C106.034 73.7519 106.123 73.6146 106.222 73.485C106.38 73.2829 106.559 73.0978 106.756 72.933C106.873 72.829 106.996 72.7303 107.126 72.6343C107.735 72.1709 108.481 71.9232 109.246 71.9303C110.045 71.9898 110.789 72.3615 111.316 72.965C111.39 73.0501 111.459 73.1391 111.524 73.2317C111.684 73.452 111.82 73.6889 111.929 73.9383C112.016 74.1329 112.089 74.3334 112.148 74.5383C112.214 74.7737 112.265 75.0134 112.3 75.2557C112.321 75.357 112.42 75.669 112.372 75.7517Z" fill="#FF8E6A"/>
<path fill-rule="evenodd" clip-rule="evenodd" d="M108.344 72.0638C108.344 72.0638 108.368 71.6825 110.186 71.8318C110.593 71.8704 110.986 72.0002 111.335 72.2117C111.685 72.4232 111.982 72.7108 112.205 73.0531C112.457 73.438 112.624 73.8715 112.697 74.3255C112.769 74.7795 112.745 75.2437 112.626 75.6878C112.498 76.1624 111.853 76.3064 111.437 76.3864C110.442 76.5811 112.042 75.3411 111.506 73.6958C111.109 72.4771 109.826 71.7945 108.344 72.0638Z" fill="#F85C2A"/>
<path fill-rule="evenodd" clip-rule="evenodd" d="M108.344 72.0636C108.344 71.982 108.353 71.9006 108.37 71.8209C108.405 71.7439 108.457 71.6757 108.521 71.6212C108.586 71.5668 108.662 71.5275 108.744 71.5063C109.017 71.4334 109.296 71.3896 109.578 71.3756C109.872 71.3556 110.167 71.3556 110.461 71.3756C111.365 71.4263 112.165 71.7676 112.618 72.5863C113.338 73.8796 113.717 76.0529 112.152 76.8689C111.944 76.9816 111.725 77.0711 111.498 77.1356C111.316 77.1742 111.13 77.2 110.944 77.2129C110.927 77.0748 110.927 76.9351 110.944 76.7969C110.962 76.6832 110.997 76.5727 111.048 76.4689C111.048 76.4503 111.208 76.3916 111.224 76.3836C111.37 76.3054 111.514 76.2227 111.656 76.1356C112.541 75.5623 112.69 74.0609 112.21 73.2023C111.73 72.3436 110.765 72.0743 109.81 71.9916C109.32 71.965 108.829 71.9892 108.344 72.0636Z" fill="#B92F44"/>
<path d="M75.6734 54.1333C75.8944 54.1333 76.0734 53.8945 76.0734 53.6C76.0734 53.3054 75.8944 53.0667 75.6734 53.0667C75.4525 53.0667 75.2734 53.3054 75.2734 53.6C75.2734 53.8945 75.4525 54.1333 75.6734 54.1333Z" fill="#5E1213"/>
<path d="M82.3414 54.9334C82.5623 54.9334 82.7414 54.6946 82.7414 54.4C82.7414 54.1055 82.5623 53.8667 82.3414 53.8667C82.1205 53.8667 81.9414 54.1055 81.9414 54.4C81.9414 54.6946 82.1205 54.9334 82.3414 54.9334Z" fill="#5E1213"/>
<path fill-rule="evenodd" clip-rule="evenodd" d="M73.1641 44.9332C73.1641 44.9332 80.3774 57.1652 90.4841 55.4105C100.447 53.6799 83.8547 44.7092 83.8547 44.7092L74.3747 42.4985L73.1641 44.9332Z" fill="#F65E2C"/>
<path fill-rule="evenodd" clip-rule="evenodd" d="M69.4921 43.5489C68.8655 43.0155 70.3268 42.6235 70.3268 42.6235C70.4243 42.8954 70.6127 43.1252 70.8601 43.2742L71.2628 43.6395C71.0178 44.2939 70.8234 44.9661 70.6815 45.6502C70.6815 45.6502 70.3401 44.2662 69.4921 43.5489Z" fill="#F85C2A"/>
<path fill-rule="evenodd" clip-rule="evenodd" d="M77.1465 46.333C77.4532 46.4317 79.9065 51.701 84.1491 54.1623C88.3918 56.6237 99.1518 59.3597 101.232 60.709C103.312 62.0583 104.776 63.2103 104.869 67.4397L104.581 69.397C104.581 69.397 105.586 69.517 105.578 66.7517C105.57 63.9863 104.634 60.749 101.845 59.4397C99.0558 58.1303 88.8345 54.7757 86.1465 52.3437C83.4585 49.9117 80.9225 46.7623 80.5465 45.373C80.1705 43.9837 77.1465 46.333 77.1465 46.333Z" fill="#5E1213"/>
<path d="M82.3944 57.1093C83.9099 57.1093 85.1384 55.8808 85.1384 54.3653C85.1384 52.8499 83.9099 51.6213 82.3944 51.6213C80.8789 51.6213 79.6504 52.8499 79.6504 54.3653C79.6504 55.8808 80.8789 57.1093 82.3944 57.1093Z" stroke="white" stroke-linecap="round" stroke-linejoin="round"/>
<path d="M79.7677 53.5787C79.359 53.4646 78.9302 53.4418 78.5117 53.512" stroke="white" stroke-linecap="round" stroke-linejoin="round"/>
<path fill-rule="evenodd" clip-rule="evenodd" d="M76.9251 51.1303C76.9251 51.1303 77.5971 51.029 77.8664 50.1009C77.8664 50.1009 74.8158 49.8983 74.2318 50.2556C73.8707 50.4937 73.6053 50.8516 73.4824 51.2663C73.4824 51.2663 75.7678 50.6076 76.9251 51.1303Z" fill="#5E1213"/>
<path d="M78.5078 53.6398C78.491 54.3604 78.1907 55.0453 77.6722 55.546C77.1537 56.0467 76.4587 56.3227 75.7379 56.3143C75.0172 56.3059 74.3288 56.0136 73.8221 55.501C73.3154 54.9883 73.0312 54.2966 73.0312 53.5758C73.0312 52.855 73.3154 52.1633 73.8221 51.6506C74.3288 51.138 75.0172 50.8458 75.7379 50.8373C76.4587 50.8289 77.1537 51.105 77.6722 51.6056C78.1907 52.1063 78.491 52.7912 78.5078 53.5118C78.5052 53.5545 78.5078 53.5998 78.5078 53.6398Z" stroke="white" stroke-linecap="round" stroke-linejoin="round"/>
<path opacity="0.2" fill-rule="evenodd" clip-rule="evenodd" d="M75.6734 50.8987L73.0547 53.832C73.0656 53.6096 73.0888 53.3879 73.124 53.168L74.908 51.0347C75.0181 50.9976 75.1303 50.9673 75.244 50.944C75.2974 50.9333 75.62 50.904 75.6734 50.8987Z" fill="white"/>
<path fill-rule="evenodd" clip-rule="evenodd" d="M76.5519 59.3972C76.7572 59.3972 76.9599 59.3972 77.1652 59.4266C77.4719 59.4532 77.5145 59.4799 77.7732 59.4959C78.1839 59.5199 78.1892 59.4665 78.3625 59.5172C78.6932 59.6132 78.6985 59.8159 78.9332 59.8292C79.1679 59.8426 79.2719 59.6186 79.5625 59.5972C79.7679 59.5839 79.9305 59.7466 80.0799 59.8639C80.2555 59.9822 80.4381 60.0899 80.6265 60.1866C80.6932 60.2266 80.8532 60.3012 80.8932 60.3759C80.9332 60.4506 80.8292 60.5706 80.7599 60.6426C80.4628 60.9711 80.0851 61.2164 79.6642 61.3544C79.2434 61.4923 78.7938 61.5181 78.3599 61.4292C77.8575 61.2858 77.4163 60.9813 77.1039 60.5626C76.8025 60.1946 76.4692 59.8799 76.5519 59.3972Z" fill="#F85C2A"/>
<path d="M76.5508 59.3972C76.8393 59.6351 77.1553 59.8374 77.4921 59.9999C77.8244 60.1599 78.1731 60.2833 78.5321 60.3679C78.8917 60.4499 79.2593 60.491 79.6281 60.4905C79.9984 60.4899 80.3679 60.456 80.7321 60.3892C80.7445 60.3877 80.7569 60.391 80.7669 60.3984C80.7768 60.4059 80.7835 60.4169 80.7855 60.4292C80.7867 60.44 80.7842 60.4509 80.7784 60.4601C80.7725 60.4694 80.7638 60.4763 80.7535 60.4799C80.0205 60.7148 79.2353 60.7334 78.4921 60.5332C78.1187 60.438 77.7599 60.2927 77.4255 60.1012C77.099 59.9135 76.8039 59.676 76.5508 59.3972Z" fill="#DC4019"/>
<path d="M76.3837 55.9251C76.4662 55.9251 76.533 55.8583 76.533 55.7758C76.533 55.6933 76.4662 55.6265 76.3837 55.6265C76.3012 55.6265 76.2344 55.6933 76.2344 55.7758C76.2344 55.8583 76.3012 55.9251 76.3837 55.9251Z" fill="#DC4019"/>
<path d="M74.6122 58.213C74.6947 58.213 74.7616 58.1461 74.7616 58.0636C74.7616 57.9812 74.6947 57.9143 74.6122 57.9143C74.5298 57.9143 74.4629 57.9812 74.4629 58.0636C74.4629 58.1461 74.5298 58.213 74.6122 58.213Z" fill="#DC4019"/>
<path d="M84.4892 58.0584C84.5717 58.0584 84.6385 57.9916 84.6385 57.9091C84.6385 57.8266 84.5717 57.7598 84.4892 57.7598C84.4067 57.7598 84.3398 57.8266 84.3398 57.9091C84.3398 57.9916 84.4067 58.0584 84.4892 58.0584Z" fill="#DC4019"/>
<path d="M82.62 56.6319C82.7025 56.6319 82.7694 56.5651 82.7694 56.4826C82.7694 56.4001 82.7025 56.3333 82.62 56.3333C82.5376 56.3333 82.4707 56.4001 82.4707 56.4826C82.4707 56.5651 82.5376 56.6319 82.62 56.6319Z" fill="#DC4019"/>
<path opacity="0.3" fill-rule="evenodd" clip-rule="evenodd" d="M85.1384 54.3651C85.1389 54.4702 85.1327 54.5753 85.1197 54.6797C85.08 55.022 84.9769 55.3538 84.8157 55.6584C84.6303 56.004 84.373 56.3059 84.0611 56.5437C83.7838 56.7572 83.4677 56.9148 83.1304 57.0077C82.9795 57.0493 82.825 57.077 82.6691 57.0904C82.5806 57.1009 82.4915 57.1062 82.4024 57.1064C82.2495 57.1065 82.0969 57.0932 81.9464 57.0664C81.8561 57.0539 81.7669 57.0343 81.6797 57.0077C81.5101 56.9653 81.3455 56.9045 81.1891 56.8264C80.9572 56.7122 80.7427 56.5658 80.5517 56.3917C80.3522 56.2099 80.1805 55.9997 80.0424 55.7677C79.946 55.6148 79.8681 55.451 79.8104 55.2797C79.7037 54.9857 79.6495 54.6752 79.6504 54.3624C79.6504 53.6339 79.9398 52.9353 80.4549 52.4202C80.97 51.9051 81.6686 51.6157 82.3971 51.6157C82.5491 51.6154 82.7008 51.6288 82.8504 51.6557C83.1298 51.7006 83.4 51.7907 83.6504 51.9224C83.7737 51.9841 83.8915 52.0564 84.0024 52.1384C84.2276 52.3005 84.4272 52.4956 84.5944 52.7171C84.7273 52.8947 84.8374 53.0882 84.9224 53.2931C84.9437 53.3411 84.9624 53.3891 84.9811 53.4397C85.0378 53.5982 85.0797 53.7615 85.1064 53.9277C85.1294 54.0723 85.1401 54.2186 85.1384 54.3651Z" fill="#EFEFEF"/>
<path opacity="0.2" fill-rule="evenodd" clip-rule="evenodd" d="M84.9201 53.2931L81.6801 57.0105C81.5105 56.9681 81.3459 56.9073 81.1895 56.8291L84.3494 53.0665C84.3494 53.0665 84.4721 52.8985 84.5921 52.7278C84.7242 52.9021 84.8344 53.0919 84.9201 53.2931ZM85.1388 54.3651C85.1393 54.4703 85.1331 54.5754 85.1201 54.6798C85.0803 55.022 84.9772 55.3539 84.8161 55.6585L84.0615 56.5438C83.7842 56.7573 83.4681 56.9149 83.1308 57.0078C82.9799 57.0494 82.8254 57.077 82.6695 57.0905C82.6041 57.0866 82.5391 57.0786 82.4748 57.0665L85.1015 53.9305C85.1261 54.074 85.1386 54.2194 85.1388 54.3651Z" fill="white"/>
<path opacity="0.3" fill-rule="evenodd" clip-rule="evenodd" d="M78.4598 53.64C78.4599 53.7451 78.4545 53.8501 78.4438 53.9546C78.4046 54.2963 78.3034 54.628 78.1451 54.9333C77.9638 55.2778 77.7111 55.5796 77.4038 55.8186C77.1337 56.0324 76.8236 56.1901 76.4918 56.2826C76.3446 56.3245 76.1937 56.3522 76.0411 56.3653C75.9527 56.376 75.8636 56.3814 75.7745 56.3813C75.6242 56.3815 75.4743 56.3681 75.3265 56.3413C75.2407 56.3281 75.156 56.3085 75.0731 56.2826C74.907 56.2397 74.7461 56.1789 74.5931 56.1013C74.3654 55.987 74.1553 55.8406 73.9691 55.6666C73.8457 55.5547 73.734 55.4305 73.6358 55.296C73.5747 55.2109 73.5194 55.1218 73.4705 55.0293C73.3749 54.8763 73.2979 54.7125 73.2411 54.5413L73.2091 54.4426C73.1412 54.2301 73.1018 54.0095 73.0918 53.7866C73.0918 53.7493 73.0918 53.7146 73.0918 53.6773V53.568C73.0939 53.4283 73.1082 53.2891 73.1345 53.152C73.2156 52.67 73.4236 52.2183 73.7372 51.8434C74.0507 51.4684 74.4585 51.1838 74.9185 51.0186C75.0285 50.9815 75.1407 50.9513 75.2545 50.928C75.3078 50.9173 75.3611 50.9093 75.4145 50.904C75.5303 50.8886 75.6469 50.8796 75.7638 50.8773C75.9193 50.8747 76.0747 50.8872 76.2278 50.9146C76.2746 50.9216 76.3209 50.9314 76.3665 50.944C76.5897 50.9921 76.8051 51.071 77.0065 51.1786C77.1272 51.2404 77.2423 51.3127 77.3505 51.3946C77.5716 51.5571 77.7667 51.7522 77.9291 51.9733C78.0613 52.1504 78.1698 52.3441 78.2518 52.5493C78.2731 52.5973 78.2918 52.6453 78.3105 52.696C78.3651 52.8549 78.4061 53.0181 78.4331 53.184C78.454 53.335 78.4629 53.4875 78.4598 53.64Z" fill="#EFEFEF"/>
<path fill-rule="evenodd" clip-rule="evenodd" d="M94.0438 96.048C93.3345 95.4214 92.3905 95.176 91.4731 95.0534C91.0038 94.992 90.5185 95.0027 90.0545 94.9254C89.7345 94.872 89.8625 94.7627 90.0758 94.5893C90.2891 94.416 90.4491 94.3227 90.6331 94.192C90.8171 94.0613 91.3051 93.5813 91.5211 93.624C92.404 93.8561 93.1731 94.3998 93.6865 95.1547C93.7642 95.4674 93.8844 95.768 94.0438 96.048Z" fill="#B92F44"/>
<path fill-rule="evenodd" clip-rule="evenodd" d="M90.7915 94.9969C90.7915 94.9969 80.1248 100.293 75.7275 100.89C75.6688 100.528 75.6208 100.21 75.5941 99.9729C75.5688 99.7678 75.5296 99.5647 75.4768 99.3649C75.3733 98.8159 75.2115 98.2795 74.9941 97.7649C78.2928 97.3302 85.0475 95.6582 89.7248 93.2476L90.7915 94.9969Z" fill="#B92F44"/>
<path fill-rule="evenodd" clip-rule="evenodd" d="M98.6339 88.2665C98.6405 88.3107 98.6405 88.3556 98.6339 88.3998C98.6221 88.4651 98.6024 88.5286 98.5752 88.5891L98.5432 88.6531C98.2126 89.2878 97.4286 89.6238 97.1192 90.1011C97.038 90.2262 96.9947 90.372 96.9947 90.5211C96.9947 90.6702 97.038 90.8161 97.1192 90.9411C97.2109 91.0943 97.3313 91.2284 97.4739 91.3358L90.7006 94.7145L89.1992 93.0051C89.1992 93.0051 95.9139 89.8425 98.5325 87.9731C98.5919 88.0601 98.6269 88.1614 98.6339 88.2665Z" fill="#EFEFEF"/>
<path fill-rule="evenodd" clip-rule="evenodd" d="M92.8339 93.9384C92.8339 93.9384 94.6019 92.2771 95.7459 92.3651C95.7459 92.3651 95.0579 93.4637 93.2445 94.0851C93.2339 94.0851 92.9219 94.2317 92.8339 93.9384ZM86.3672 92.1091C86.3977 92.0558 86.4389 92.0093 86.4882 91.9727C86.5376 91.9361 86.5939 91.9101 86.6538 91.8963C86.7136 91.8826 86.7757 91.8813 86.8361 91.8927C86.8964 91.9041 86.9538 91.9278 87.0045 91.9624C87.4152 92.2077 88.1992 93.2024 88.7379 93.2957C89.0025 93.318 89.2564 93.41 89.4739 93.5624C89.2114 93.6395 88.9442 93.6992 88.6739 93.7411C88.5085 93.7437 86.4339 92.4691 86.3672 92.1091Z" fill="#B92F44"/>
<path fill-rule="evenodd" clip-rule="evenodd" d="M94.7812 95.8161C94.1519 95.2588 93.6399 94.9227 93.2426 94.9227C92.3388 94.7293 91.4243 94.5904 90.5039 94.5067C90.5039 94.5067 91.9146 93.3414 92.2666 93.2534C93.1145 93.7193 93.8443 94.3734 94.3999 95.1654C94.3999 95.1654 94.5572 95.4668 94.7812 95.8161Z" fill="#EFEFEF"/>
<path fill-rule="evenodd" clip-rule="evenodd" d="M94.1079 102.133L92.6573 101.317C92.3613 100.602 91.7319 99.9838 91.0573 99.4745C90.0573 98.7172 88.9239 98.1412 88.5293 97.6878C88.3324 97.4439 88.2001 97.1543 88.1447 96.8458C88.0892 96.5373 88.1124 96.2197 88.2119 95.9225L88.2893 95.8718C88.2122 96.153 88.204 96.4485 88.2653 96.7335C88.3265 97.0185 88.4555 97.2845 88.6413 97.5092C89.0413 97.9598 90.1453 98.5252 91.1373 99.2692C91.8333 99.8025 92.4706 100.41 92.7773 101.136L94.0253 101.837C94.0733 102.008 94.1079 102.133 94.1079 102.133Z" fill="#B92F44"/>
<path opacity="0.5" d="M94.1093 102.133L92.6586 101.317C92.3626 100.602 91.7333 99.9837 91.0586 99.4744L91.1386 99.269C91.8346 99.8024 92.4719 100.41 92.7786 101.136L94.0266 101.837C94.0746 102.008 94.1093 102.133 94.1093 102.133Z" fill="#E8932C"/>
<path fill-rule="evenodd" clip-rule="evenodd" d="M90.7003 94.7145C90.7003 94.7145 80.0336 99.8639 75.6363 100.461C75.5776 100.099 75.5296 99.7812 75.503 99.5438C75.3777 98.7818 75.148 98.0406 74.8203 97.3412C78.087 96.9252 84.9163 95.2452 89.6336 92.8079L90.7003 94.7145Z" fill="#EFEFEF"/>
<path fill-rule="evenodd" clip-rule="evenodd" d="M87.38 90.5386C87.7406 90.5475 88.0871 90.6803 88.3613 90.9146C88.82 91.3066 90.4227 93.0479 90.4227 93.0479L90.4733 93.5812C90.0341 93.6703 89.588 93.7212 89.14 93.7332C88.8947 93.6852 87.4413 92.6266 87.1293 92.3706C86.9042 92.2099 86.6376 92.1173 86.3613 92.1039C86.3613 92.1039 86.7427 90.6666 87.38 90.5386Z" fill="#E2E2E2"/>
<path fill-rule="evenodd" clip-rule="evenodd" d="M93.5618 89.5997C93.5094 89.5677 93.4509 89.5468 93.39 89.5385C93.3291 89.5302 93.2672 89.5346 93.2081 89.5514C93.1489 89.5681 93.0939 89.597 93.0465 89.636C92.9991 89.6751 92.9603 89.7236 92.9325 89.7784C92.6898 90.189 92.4818 91.4397 92.0525 91.7784C91.8319 91.9278 91.6536 92.1317 91.5352 92.3704C91.8066 92.3127 92.0738 92.237 92.3352 92.1437C92.4685 92.0504 93.6765 89.933 93.5618 89.5997Z" fill="#B92F44"/>
<path fill-rule="evenodd" clip-rule="evenodd" d="M92.3359 88.4851C92.0585 88.7165 91.87 89.0369 91.8025 89.3918C91.6905 89.9838 91.5359 92.3518 91.5359 92.3518L91.8292 92.8024C92.2268 92.5972 92.606 92.3581 92.9625 92.0878C93.1225 91.8958 93.5945 90.1624 93.6745 89.7678C93.7483 89.5003 93.8973 89.2596 94.1039 89.0744C94.1039 89.0744 92.9065 88.1731 92.3359 88.4851ZM90.7012 94.7144C90.7012 94.7144 89.9145 95.1011 89.2692 95.4131C88.8994 95.5674 88.5571 95.7809 88.2559 96.0451C88.2559 96.0451 88.6719 93.6904 88.9359 93.5384C89.1999 93.3864 90.5359 93.3838 90.5359 93.3838C90.5359 93.3838 90.8319 94.4718 90.7012 94.7144Z" fill="#E2E2E2"/>
<path fill-rule="evenodd" clip-rule="evenodd" d="M94.7214 90.4932C94.7214 90.4932 92.7187 91.8265 92.0547 92.6932L92.1854 93.8158L92.8174 94.0612C92.8174 94.0612 94.716 92.2772 95.7294 92.3652C95.7347 92.3652 95.7667 91.6612 94.7214 90.4932Z" fill="#E2E2E2"/>
<path fill-rule="evenodd" clip-rule="evenodd" d="M90.3535 92.9813C90.5113 93.5639 90.5743 94.168 90.5402 94.7706L92.5002 93.936L92.2042 92.5226C92.2042 92.5226 91.0495 92.2666 90.3535 92.9813Z" fill="#E2E2E2"/>
<path fill-rule="evenodd" clip-rule="evenodd" d="M57.0801 66.3384C57.0801 66.3384 57.4667 66.4237 57.5707 66.4504C57.6747 66.477 57.9761 66.5624 57.9761 66.5624L57.7361 66.957L57.4214 67.445L57.0801 66.3384Z" fill="#B92F44"/>
<path fill-rule="evenodd" clip-rule="evenodd" d="M71.5227 43.1999C71.4063 43.3279 71.3214 43.4813 71.2747 43.6479C70.9961 44.4497 70.7681 45.2682 70.5921 46.0985C70.5441 46.3225 70.5067 46.5039 70.4881 46.6185C70.3761 47.2772 70.3147 47.9519 70.2347 48.6105C70.1414 49.3892 70.3121 50.3812 69.7681 51.0265C69.1867 51.7172 67.9014 52.0372 67.0747 52.2772C66.7121 52.3812 66.3467 52.4745 65.9787 52.5625L65.8481 52.5919C65.4507 52.6879 65.0481 52.7759 64.6507 52.8585L64.5201 52.8879L64.0561 52.9999C64.0111 53.008 63.9665 53.0187 63.9227 53.0319L63.8347 53.0532L61.3121 53.6879C61.1974 53.7172 59.8827 54.1439 59.8294 54.0719C59.8294 54.0719 57.4294 50.8505 59.2667 49.0452L59.7707 48.9839C60.0614 48.9439 60.4614 48.8879 60.9254 48.8159C61.4827 48.7279 62.1334 48.6159 62.7921 48.4799L62.9441 48.4479C63.3201 48.3705 63.6961 48.2825 64.0614 48.1812L64.1201 48.1679L64.1841 48.1519L64.2374 48.1359C65.2721 47.8692 66.2001 47.5225 66.6987 47.1252C66.6987 47.1252 67.4987 46.4399 67.2667 43.1625C67.2667 43.1625 67.3094 42.3385 67.9254 42.2239C67.9254 42.2239 68.9094 41.9572 70.1041 40.4185C70.1041 40.4185 72.0241 39.7812 72.0587 40.9519C72.0934 42.1225 71.8427 42.9839 71.5227 43.1999Z" fill="#FF8E68"/>
<path d="M63.2338 53.1651L63.1032 53.1944C63.1032 53.0904 63.0818 52.9864 63.0712 52.8878C63.0605 52.7891 63.0525 52.7198 63.0445 52.6451C63.0006 52.1614 62.9113 51.6828 62.7778 51.2158C62.5395 50.3046 62.0584 49.4751 61.3859 48.8158C61.3786 48.8118 61.3722 48.8064 61.3672 48.7998L61.5192 48.7678C62.1857 49.4395 62.6624 50.2759 62.9005 51.1918C63.0339 51.6679 63.1232 52.1553 63.1672 52.6478C63.1672 52.7198 63.1832 52.7998 63.1912 52.8851C63.1992 52.9704 63.2152 53.0664 63.2338 53.1651ZM64.5352 52.8691L64.4045 52.8984C64.4045 52.8078 64.3858 52.7171 64.3778 52.6318C64.3698 52.5464 64.3592 52.4638 64.3512 52.3891C64.3072 51.9054 64.218 51.4268 64.0845 50.9598C63.8462 50.0486 63.3651 49.2191 62.6925 48.5598C62.6912 48.5527 62.6912 48.5455 62.6925 48.5384C62.69 48.5325 62.6887 48.5262 62.6887 48.5198C62.6887 48.5134 62.69 48.507 62.6925 48.5011H62.7512L62.8152 48.4851L62.8498 48.5198C63.5164 49.1915 63.993 50.0279 64.2312 50.9438C64.3646 51.4199 64.4539 51.9073 64.4978 52.3998C64.4978 52.4718 64.5138 52.5518 64.5218 52.6371C64.5298 52.7224 64.5272 52.7811 64.5352 52.8691Z" fill="#DC4019"/>
<path d="M61.6348 48.7569C62.3164 49.4277 62.8031 50.2711 63.0428 51.1969C63.177 51.6683 63.2663 52.1513 63.3094 52.6396C63.3441 53.0316 63.4481 53.6236 63.3281 54.0049C63.3236 54.0242 63.3122 54.0412 63.2959 54.0525C63.2796 54.0638 63.2598 54.0687 63.2401 54.0662C63.2205 54.0592 63.2031 54.0472 63.1894 54.0316C63.004 53.811 62.8579 53.5603 62.7574 53.2902M62.9388 48.4902C63.6204 49.161 64.1071 50.0044 64.3468 50.9302C64.4797 51.4019 64.5689 51.8849 64.6134 52.3729C64.6481 52.7649 64.7494 53.3569 64.6294 53.7382C64.625 53.7575 64.6135 53.7745 64.5972 53.7858C64.581 53.7972 64.5611 53.8021 64.5414 53.7996C64.5223 53.793 64.5056 53.781 64.4934 53.7649C64.3061 53.5457 64.1597 53.2946 64.0614 53.0236L62.9388 48.4902Z" stroke="#FFBA55" stroke-linecap="round" stroke-linejoin="round"/>
<path d="M60.9246 48.8186L60.1752 53.9946C59.6179 53.2959 59.6899 49.8986 59.7299 48.9786C60.0339 48.9386 60.4606 48.8906 60.9246 48.8186Z" fill="#F85C2A"/>
<path fill-rule="evenodd" clip-rule="evenodd" d="M59.6837 48.6743C59.7048 48.6802 59.7243 48.6907 59.7409 48.705C59.7575 48.7193 59.7707 48.737 59.7797 48.757C59.7883 48.7768 59.7927 48.7981 59.7927 48.8197C59.7927 48.8412 59.7883 48.8625 59.7797 48.8823C59.5504 49.4397 58.921 51.4157 60.177 53.9943C60.1918 54.025 60.1974 54.0593 60.193 54.093C60.1397 54.3437 59.969 55.5943 57.729 56.2263C57.7088 56.2348 57.687 56.2392 57.665 56.2392C57.6431 56.2392 57.6213 56.2348 57.6011 56.2263C57.5612 56.2036 57.5315 56.1663 57.5184 56.1223C57.3211 55.3917 56.2277 53.341 56.3424 49.061C56.342 49.0091 56.358 48.9585 56.3882 48.9163C56.4184 48.8742 56.4612 48.8427 56.5104 48.8263C56.9824 48.677 58.3797 48.3117 59.6837 48.6743Z" fill="#CC338C"/>
<path d="M59.7794 48.7568C59.4229 49.7372 59.2997 50.7872 59.4194 51.8235C59.5874 53.1142 59.7741 53.2555 60.1741 53.9942C59.929 53.1259 59.7973 52.2296 59.7821 51.3275C59.7296 50.4945 59.7296 49.6591 59.7821 48.8262C59.7867 48.8151 59.7888 48.8032 59.7884 48.7912C59.7879 48.7792 59.7849 48.7675 59.7794 48.7568Z" fill="#B92F44"/>
<path d="M80.2266 66.0051C80.7226 67.3385 81.3599 68.5731 81.4452 69.9891C81.5306 71.4051 81.7119 72.8771 82.5119 74.0505C82.8206 74.509 83.2111 74.9067 83.6639 75.2238C84.1652 75.5731 84.7466 75.8238 85.1652 76.2691C85.8799 77.0265 85.9812 78.1705 85.9092 79.2025C85.8372 80.2345 85.6426 81.3011 85.9092 82.3091C86.0514 82.8486 86.3186 83.347 86.6892 83.764C87.0598 84.1809 87.5235 84.5047 88.0426 84.7091C88.4333 84.8487 88.84 84.9383 89.2532 84.9758C90.0531 85.0792 90.8658 85.0064 91.6346 84.7625C92.406 84.5132 93.0631 83.9969 93.4879 83.3065C94.0826 82.2771 93.9732 80.9758 93.5972 79.8398C93.2212 78.7038 92.6052 77.6745 92.2132 76.5518C91.9535 75.8719 91.8373 75.1455 91.8719 74.4185C91.9255 74.0579 91.9593 73.6947 91.9732 73.3305C91.9492 72.5971 91.5546 71.9251 91.1039 71.3465C90.6532 70.7678 90.1332 70.2345 89.7839 69.5891C89.4346 68.9438 89.2746 68.1385 89.5999 67.4798" stroke="#FFBA55" stroke-width="0.5" stroke-linecap="round" stroke-linejoin="round"/>
<path d="M80.6266 94.3915C80.8475 94.3915 81.0266 94.2125 81.0266 93.9915C81.0266 93.7706 80.8475 93.5916 80.6266 93.5916C80.4056 93.5916 80.2266 93.7706 80.2266 93.9915C80.2266 94.2125 80.4056 94.3915 80.6266 94.3915Z" fill="#B92F44"/>
<path d="M76.5309 95.3278C76.7518 95.3278 76.9309 95.1487 76.9309 94.9278C76.9309 94.7069 76.7518 94.5278 76.5309 94.5278C76.3099 94.5278 76.1309 94.7069 76.1309 94.9278C76.1309 95.1487 76.3099 95.3278 76.5309 95.3278Z" fill="#B92F44"/>
<path d="M87.5836 89.0185C87.8045 89.0185 87.9836 88.8394 87.9836 88.6185C87.9836 88.3976 87.8045 88.2185 87.5836 88.2185C87.3627 88.2185 87.1836 88.3976 87.1836 88.6185C87.1836 88.8394 87.3627 89.0185 87.5836 89.0185Z" fill="#B92F44"/>
<path d="M89.8629 91.0107C90.0838 91.0107 90.2629 90.8316 90.2629 90.6107C90.2629 90.3898 90.0838 90.2107 89.8629 90.2107C89.642 90.2107 89.4629 90.3898 89.4629 90.6107C89.4629 90.8316 89.642 91.0107 89.8629 91.0107Z" fill="#B92F44"/>
<path d="M93.4078 88.2668C93.6287 88.2668 93.8078 88.0877 93.8078 87.8668C93.8078 87.6459 93.6287 87.4668 93.4078 87.4668C93.1869 87.4668 93.0078 87.6459 93.0078 87.8668C93.0078 88.0877 93.1869 88.2668 93.4078 88.2668Z" fill="#B92F44"/>
<path d="M96.2711 87.4079C96.492 87.4079 96.6711 87.2288 96.6711 87.0079C96.6711 86.787 96.492 86.6079 96.2711 86.6079C96.0502 86.6079 95.8711 86.787 95.8711 87.0079C95.8711 87.2288 96.0502 87.4079 96.2711 87.4079Z" fill="#B92F44"/>
<path d="M84.4449 89.4186C84.6658 89.4186 84.8449 89.2395 84.8449 89.0186C84.8449 88.7977 84.6658 88.6187 84.4449 88.6187C84.224 88.6187 84.0449 88.7977 84.0449 89.0186C84.0449 89.2395 84.224 89.4186 84.4449 89.4186Z" fill="#B92F44"/>
<path d="M87.4684 86.2561C87.6893 86.2561 87.8684 86.077 87.8684 85.8561C87.8684 85.6351 87.6893 85.4561 87.4684 85.4561C87.2474 85.4561 87.0684 85.6351 87.0684 85.8561C87.0684 86.077 87.2474 86.2561 87.4684 86.2561Z" fill="#B92F44"/>
<path d="M88.4215 81.3811C88.6424 81.3811 88.8215 81.202 88.8215 80.9811C88.8215 80.7601 88.6424 80.5811 88.4215 80.5811C88.2006 80.5811 88.0215 80.7601 88.0215 80.9811C88.0215 81.202 88.2006 81.3811 88.4215 81.3811Z" fill="#B92F44"/>
<path d="M88.6559 78.2797C88.8768 78.2797 89.0559 78.1007 89.0559 77.8797C89.0559 77.6588 88.8768 77.4797 88.6559 77.4797C88.4349 77.4797 88.2559 77.6588 88.2559 77.8797C88.2559 78.1007 88.4349 78.2797 88.6559 78.2797Z" fill="#B92F44"/>
<path d="M95.0738 81.0561C95.2947 81.0561 95.4738 80.877 95.4738 80.6561C95.4738 80.4352 95.2947 80.2561 95.0738 80.2561C94.8529 80.2561 94.6738 80.4352 94.6738 80.6561C94.6738 80.877 94.8529 81.0561 95.0738 81.0561Z" fill="#B92F44"/>
<path d="M93.7398 78.1228C93.9607 78.1228 94.1398 77.9437 94.1398 77.7228C94.1398 77.5018 93.9607 77.3228 93.7398 77.3228C93.5189 77.3228 93.3398 77.5018 93.3398 77.7228C93.3398 77.9437 93.5189 78.1228 93.7398 78.1228Z" fill="#B92F44"/>
<path d="M92.5562 75.0397C92.7772 75.0397 92.9562 74.8607 92.9562 74.6397C92.9562 74.4188 92.7772 74.2397 92.5562 74.2397C92.3353 74.2397 92.1562 74.4188 92.1562 74.6397C92.1562 74.8607 92.3353 75.0397 92.5562 75.0397Z" fill="#B92F44"/>
<path d="M116.173 71.9519C116.394 71.9519 116.573 71.7728 116.573 71.5519C116.573 71.3309 116.394 71.1519 116.173 71.1519C115.953 71.1519 115.773 71.3309 115.773 71.5519C115.773 71.7728 115.953 71.9519 116.173 71.9519Z" fill="#B92F44"/>
<path d="M115.568 73.757C115.789 73.757 115.968 73.5779 115.968 73.357C115.968 73.1361 115.789 72.957 115.568 72.957C115.347 72.957 115.168 73.1361 115.168 73.357C115.168 73.5779 115.347 73.757 115.568 73.757Z" fill="#B92F44"/>
<path d="M115.568 76.4235C115.789 76.4235 115.968 76.2445 115.968 76.0235C115.968 75.8026 115.789 75.6235 115.568 75.6235C115.347 75.6235 115.168 75.8026 115.168 76.0235C115.168 76.2445 115.347 76.4235 115.568 76.4235Z" fill="#B92F44"/>
<path d="M112.9 78.0236C113.121 78.0236 113.3 77.8445 113.3 77.6236C113.3 77.4027 113.121 77.2236 112.9 77.2236C112.679 77.2236 112.5 77.4027 112.5 77.6236C112.5 77.8445 112.679 78.0236 112.9 78.0236Z" fill="#B92F44"/>
<path d="M112.9 80.6901C113.121 80.6901 113.3 80.5111 113.3 80.2901C113.3 80.0692 113.121 79.8901 112.9 79.8901C112.679 79.8901 112.5 80.0692 112.5 80.2901C112.5 80.5111 112.679 80.6901 112.9 80.6901Z" fill="#B92F44"/>
<path d="M113.168 71.8903C113.389 71.8903 113.568 71.7112 113.568 71.4903C113.568 71.2694 113.389 71.0903 113.168 71.0903C112.947 71.0903 112.768 71.2694 112.768 71.4903C112.768 71.7112 112.947 71.8903 113.168 71.8903Z" fill="#B92F44"/>
<path d="M96.1344 84.4399C96.3553 84.4399 96.5344 84.2608 96.5344 84.0399C96.5344 83.819 96.3553 83.6399 96.1344 83.6399C95.9135 83.6399 95.7344 83.819 95.7344 84.0399C95.7344 84.2608 95.9135 84.4399 96.1344 84.4399Z" fill="#B92F44"/>
<path d="M90.4957 87.8078C90.7166 87.8078 90.8957 87.6287 90.8957 87.4078C90.8957 87.1869 90.7166 87.0078 90.4957 87.0078C90.2748 87.0078 90.0957 87.1869 90.0957 87.4078C90.0957 87.6287 90.2748 87.8078 90.4957 87.8078Z" fill="#B92F44"/>
<path d="M81.9137 102.173C82.1346 102.173 82.3137 101.994 82.3137 101.773C82.3137 101.552 82.1346 101.373 81.9137 101.373C81.6928 101.373 81.5137 101.552 81.5137 101.773C81.5137 101.994 81.6928 102.173 81.9137 102.173Z" fill="#B92F44"/>
<path d="M78.6363 103.92C78.8572 103.92 79.0363 103.741 79.0363 103.52C79.0363 103.299 78.8572 103.12 78.6363 103.12C78.4154 103.12 78.2363 103.299 78.2363 103.52C78.2363 103.741 78.4154 103.92 78.6363 103.92Z" fill="#B92F44"/>
<path d="M79.4371 101.261C79.658 101.261 79.8371 101.082 79.8371 100.861C79.8371 100.64 79.658 100.461 79.4371 100.461C79.2162 100.461 79.0371 100.64 79.0371 100.861C79.0371 101.082 79.2162 101.261 79.4371 101.261Z" fill="#B92F44"/>
<path d="M83.3824 99.8476C83.6033 99.8476 83.7824 99.6685 83.7824 99.4476C83.7824 99.2267 83.6033 99.0476 83.3824 99.0476C83.1615 99.0476 82.9824 99.2267 82.9824 99.4476C82.9824 99.6685 83.1615 99.8476 83.3824 99.8476Z" fill="#B92F44"/>
<path d="M85.2438 101.667C85.4647 101.667 85.6438 101.488 85.6438 101.267C85.6438 101.046 85.4647 100.867 85.2438 100.867C85.0228 100.867 84.8438 101.046 84.8438 101.267C84.8438 101.488 85.0228 101.667 85.2438 101.667Z" fill="#B92F44"/>
<path d="M80.6266 105.728C80.8475 105.728 81.0266 105.549 81.0266 105.328C81.0266 105.107 80.8475 104.928 80.6266 104.928C80.4056 104.928 80.2266 105.107 80.2266 105.328C80.2266 105.549 80.4056 105.728 80.6266 105.728Z" fill="#B92F44"/>
<path d="M82.7809 104.299C83.0018 104.299 83.1809 104.119 83.1809 103.899C83.1809 103.678 83.0018 103.499 82.7809 103.499C82.5599 103.499 82.3809 103.678 82.3809 103.899C82.3809 104.119 82.5599 104.299 82.7809 104.299Z" fill="#B92F44"/>
<path d="M82.2477 108.272C82.4686 108.272 82.6477 108.093 82.6477 107.872C82.6477 107.651 82.4686 107.472 82.2477 107.472C82.0267 107.472 81.8477 107.651 81.8477 107.872C81.8477 108.093 82.0267 108.272 82.2477 108.272Z" fill="#B92F44"/>
<path d="M82.2477 111.205C82.4686 111.205 82.6477 111.026 82.6477 110.805C82.6477 110.584 82.4686 110.405 82.2477 110.405C82.0267 110.405 81.8477 110.584 81.8477 110.805C81.8477 111.026 82.0267 111.205 82.2477 111.205Z" fill="#B92F44"/>
<path d="M79.8375 111.216C80.0584 111.216 80.2375 111.037 80.2375 110.816C80.2375 110.595 80.0584 110.416 79.8375 110.416C79.6166 110.416 79.4375 110.595 79.4375 110.816C79.4375 111.037 79.6166 111.216 79.8375 111.216Z" fill="#B92F44"/>
<path d="M84.3063 105.834C84.5272 105.834 84.7063 105.655 84.7063 105.434C84.7063 105.213 84.5272 105.034 84.3063 105.034C84.0853 105.034 83.9062 105.213 83.9062 105.434C83.9062 105.655 84.0853 105.834 84.3063 105.834Z" fill="#B92F44"/>
<path d="M86.1891 103.853C86.41 103.853 86.5891 103.674 86.5891 103.453C86.5891 103.232 86.41 103.053 86.1891 103.053C85.9681 103.053 85.7891 103.232 85.7891 103.453C85.7891 103.674 85.9681 103.853 86.1891 103.853Z" fill="#B92F44"/>
<path d="M78.8199 108.029C79.0408 108.029 79.2199 107.85 79.2199 107.629C79.2199 107.408 79.0408 107.229 78.8199 107.229C78.599 107.229 78.4199 107.408 78.4199 107.629C78.4199 107.85 78.599 108.029 78.8199 108.029Z" fill="#B92F44"/>
<path d="M96.482 95.1703C96.7029 95.1703 96.882 94.9913 96.882 94.7704C96.882 94.5494 96.7029 94.3704 96.482 94.3704C96.2611 94.3704 96.082 94.5494 96.082 94.7704C96.082 94.9913 96.2611 95.1703 96.482 95.1703Z" fill="#B92F44"/>
<path d="M97.8531 92.9519C98.074 92.9519 98.2531 92.7728 98.2531 92.5519C98.2531 92.3309 98.074 92.1519 97.8531 92.1519C97.6322 92.1519 97.4531 92.3309 97.4531 92.5519C97.4531 92.7728 97.6322 92.9519 97.8531 92.9519Z" fill="#B92F44"/>
<path d="M98.6344 94.3915C98.8553 94.3915 99.0344 94.2125 99.0344 93.9915C99.0344 93.7706 98.8553 93.5916 98.6344 93.5916C98.4135 93.5916 98.2344 93.7706 98.2344 93.9915C98.2344 94.2125 98.4135 94.3915 98.6344 94.3915Z" fill="#B92F44"/>
<path d="M91.5348 96.6638C91.7557 96.6638 91.9348 96.4847 91.9348 96.2638C91.9348 96.0429 91.7557 95.8638 91.5348 95.8638C91.3139 95.8638 91.1348 96.0429 91.1348 96.2638C91.1348 96.4847 91.3139 96.6638 91.5348 96.6638Z" fill="#B92F44"/>
<path d="M88.3355 100.397C88.5565 100.397 88.7355 100.218 88.7355 99.9972C88.7355 99.7763 88.5565 99.5972 88.3355 99.5972C88.1146 99.5972 87.9355 99.7763 87.9355 99.9972C87.9355 100.218 88.1146 100.397 88.3355 100.397Z" fill="#B92F44"/>
<path d="M84.3063 93.344C84.5272 93.344 84.7063 93.1649 84.7063 92.944C84.7063 92.723 84.5272 92.5439 84.3063 92.5439C84.0853 92.5439 83.9062 92.723 83.9062 92.944C83.9062 93.1649 84.0853 93.344 84.3063 93.344Z" fill="#B92F44"/>
<path d="M81.1402 89.8185C81.3611 89.8185 81.5402 89.6394 81.5402 89.4185C81.5402 89.1976 81.3611 89.0186 81.1402 89.0186C80.9193 89.0186 80.7402 89.1976 80.7402 89.4185C80.7402 89.6394 80.9193 89.8185 81.1402 89.8185Z" fill="#B92F44"/>
<path d="M77.4684 92.6796C77.6893 92.6796 77.8683 92.5006 77.8683 92.2796C77.8683 92.0587 77.6893 91.8796 77.4684 91.8796C77.2474 91.8796 77.0684 92.0587 77.0684 92.2796C77.0684 92.5006 77.2474 92.6796 77.4684 92.6796Z" fill="#B92F44"/>
<path d="M58.8023 60.6796C59.0233 60.6796 59.2023 60.5005 59.2023 60.2796C59.2023 60.0587 59.0233 59.8796 58.8023 59.8796C58.5814 59.8796 58.4023 60.0587 58.4023 60.2796C58.4023 60.5005 58.5814 60.6796 58.8023 60.6796Z" fill="#B92F44"/>
<path d="M55.8688 62.2797C56.0897 62.2797 56.2688 62.1007 56.2688 61.8797C56.2688 61.6588 56.0897 61.4797 55.8688 61.4797C55.6478 61.4797 55.4688 61.6588 55.4688 61.8797C55.4688 62.1007 55.6478 62.2797 55.8688 62.2797Z" fill="#B92F44"/>
<path d="M55.3355 64.9462C55.5565 64.9462 55.7355 64.7672 55.7355 64.5462C55.7355 64.3253 55.5565 64.1462 55.3355 64.1462C55.1146 64.1462 54.9355 64.3253 54.9355 64.5462C54.9355 64.7672 55.1146 64.9462 55.3355 64.9462Z" fill="#B92F44"/>
<path d="M52.6676 64.9462C52.8885 64.9462 53.0676 64.7672 53.0676 64.5462C53.0676 64.3253 52.8885 64.1462 52.6676 64.1462C52.4467 64.1462 52.2676 64.3253 52.2676 64.5462C52.2676 64.7672 52.4467 64.9462 52.6676 64.9462Z" fill="#B92F44"/>
<path d="M51.6012 62.8129C51.8221 62.8129 52.0012 62.6339 52.0012 62.4129C52.0012 62.192 51.8221 62.0129 51.6012 62.0129C51.3803 62.0129 51.2012 62.192 51.2012 62.4129C51.2012 62.6339 51.3803 62.8129 51.6012 62.8129Z" fill="#B92F44"/>
<path d="M48.6676 63.613C48.8885 63.613 49.0676 63.4339 49.0676 63.213C49.0676 62.9921 48.8885 62.813 48.6676 62.813C48.4467 62.813 48.2676 62.9921 48.2676 63.213C48.2676 63.4339 48.4467 63.613 48.6676 63.613Z" fill="#B92F44"/>
<path d="M45.4684 62.2797C45.6893 62.2797 45.8684 62.1007 45.8684 61.8797C45.8684 61.6588 45.6893 61.4797 45.4684 61.4797C45.2474 61.4797 45.0684 61.6588 45.0684 61.8797C45.0684 62.1007 45.2474 62.2797 45.4684 62.2797Z" fill="#B92F44"/>
<path d="M85.9684 98.9946C86.1893 98.9946 86.3684 98.8155 86.3684 98.5946C86.3684 98.3737 86.1893 98.1946 85.9684 98.1946C85.7474 98.1946 85.5684 98.3737 85.5684 98.5946C85.5684 98.8155 85.7474 98.9946 85.9684 98.9946Z" fill="#B92F44"/>
<path fill-rule="evenodd" clip-rule="evenodd" d="M96.0857 54.8478C96.0084 53.9651 96.0537 52.8638 95.8457 52.1625C94.9631 49.2291 93.0271 46.6371 90.7791 44.5545C86.7577 40.8398 80.9791 42.4371 80.2564 42.4371C79.5337 42.4371 77.8324 40.4798 74.7364 40.1171C71.6404 39.7545 69.9897 44.7598 69.9897 45.6905C69.9897 46.6211 69.6804 47.2371 68.6991 49.6105C68.1097 51.0371 67.9977 52.6025 67.9817 54.1438C67.9817 55.3891 68.4057 57.1278 67.6164 58.1891C67.1821 58.7133 66.6424 59.1403 66.0324 59.4425C64.2404 60.4451 62.2831 61.1198 60.4324 61.9971C57.0831 63.5785 53.2324 67.0051 53.2324 71.0878C53.2666 71.8856 53.4417 72.6711 53.7498 73.4078C53.4831 68.7145 56.2778 66.3411 57.0511 65.6745C58.1178 64.7385 59.7311 64.1598 60.9951 63.5411C62.5391 62.7838 64.1951 61.8185 65.8671 61.4078C66.0137 61.3705 66.4244 61.1865 66.3764 61.4958C66.3496 61.5906 66.2924 61.6739 66.2137 61.7331C64.7791 63.0291 63.1044 64.0318 61.6004 65.2451C60.3177 66.2798 59.1177 67.5225 58.4671 69.0585C57.2191 72.0051 58.2217 75.0025 59.5337 77.7198C59.7551 78.1811 62.4671 83.4585 63.0884 82.9758C63.7604 82.4611 63.3977 79.3118 64.0697 74.7731C64.7417 70.2345 74.8511 63.1118 74.8511 63.1118C74.7071 63.2131 76.5924 65.1971 76.7764 65.3651C77.5741 66.0665 78.4168 66.715 79.2991 67.3065C83.2484 70.0398 88.6057 73.4825 86.8617 79.0958C86.4518 80.2824 85.6877 81.3147 84.6724 82.0531C83.7017 82.8051 82.6031 83.2718 81.5177 83.8185C82.3444 84.1038 83.7977 83.5518 84.5577 83.1305C85.371 82.6755 86.071 82.0429 86.6057 81.2798C87.4329 80.0958 87.9667 78.7321 88.1631 77.3011C88.7151 73.3651 85.9417 70.7785 83.2564 68.4185C80.3231 65.8505 77.1017 63.4905 74.9604 60.1705C73.2049 57.4363 72.3129 54.2372 72.4004 50.9891C72.6377 51.6665 73.3844 51.1945 73.9364 52.0798C72.9231 48.3465 72.9897 47.4025 73.1044 47.3651C73.2191 47.3278 73.4111 47.9411 74.0271 48.7918C74.4884 49.4291 75.1257 50.3091 76.0217 50.7571C77.5577 51.5251 79.0004 49.7651 80.1631 49.5838C82.9737 49.1438 86.1391 52.3411 86.1524 52.3518C86.2991 52.5011 86.1524 53.5118 86.1524 53.7331C86.1524 54.4478 85.6671 55.0665 85.5017 55.7625C85.4037 56.2955 85.2692 56.8212 85.0991 57.3358C84.8884 57.8691 84.5391 58.3305 84.3311 58.8691C84.1279 59.3808 83.9691 59.909 83.8564 60.4478C83.5071 62.2345 83.6644 64.1518 83.8377 65.9465C84.0431 68.0798 87.3524 67.3918 88.7791 68.0798C90.0111 68.6745 90.3017 69.9011 91.0271 70.9518C91.4644 71.5891 92.0751 72.0825 92.5711 72.6718C93.6351 73.9305 93.1017 75.4665 93.6884 76.9411C94.1684 78.1331 94.9684 79.1998 95.5017 80.3678C96.0216 81.5303 96.4592 82.7279 96.8111 83.9518C97.0777 84.8745 97.7231 86.3198 97.3044 87.2478C97.0644 87.7811 96.5284 88.0985 96.0431 88.4238C94.6137 89.3785 93.3257 90.7171 92.9497 92.3945C93.3791 90.4798 96.4697 88.9278 97.9737 87.9998C99.4777 87.0718 101.059 86.3438 102.494 85.3651C103.627 84.5918 107.294 81.4425 107.547 75.1998C107.8 68.9571 103.784 65.8211 103.768 65.8105L96.0857 54.8478ZM75.2351 44.7091C75.2351 44.7091 77.5337 48.3971 78.8937 49.2425C78.8991 49.2345 75.7684 48.6825 75.2351 44.7091ZM100.52 85.8665C102.072 84.0851 104.814 79.6451 105.27 78.3998C105.835 76.8531 106.403 76.3865 106.403 76.3865C106.243 80.3918 102.326 84.2665 100.52 85.8665Z" fill="#5E1213"/>
<path fill-rule="evenodd" clip-rule="evenodd" d="M141.448 73.5439L141.25 73.6906L135.869 74.9839L124.706 80.7066L109.592 88.3119L109.461 88.2213C109.52 88.1173 109.584 88.0079 109.653 87.8906C110.528 86.4053 111.981 83.9546 113.338 81.7573C113.797 81.0106 115.109 80.7813 115.864 80.4399C117.058 79.9066 118.216 79.2613 119.368 78.6426C123.634 76.3493 127.368 73.7039 132.13 72.5093C133.264 72.2266 133.896 71.6079 134.746 70.8533C135.512 71.1679 136.264 71.4773 136.97 71.7626C139.501 72.7733 141.448 73.5439 141.448 73.5439Z" fill="#133953"/>
<path fill-rule="evenodd" clip-rule="evenodd" d="M164.81 77.9865C164.055 78.3492 162.207 78.7305 160.258 79.0532C158.221 79.3945 156.17 79.6665 154.125 79.8318C153.753 79.8336 153.387 79.9251 153.058 80.0985C152.634 80.3584 152.188 80.5797 151.725 80.7598C151.306 80.9412 150.885 81.1145 150.463 81.2932C149.663 81.6185 148.863 81.9278 148.063 82.2345C146.367 82.8825 144.661 83.5545 142.925 84.1012C142.532 84.2185 142.129 84.3015 141.722 84.3492C140.554 84.5012 139.354 84.4745 138.234 84.8825C137.466 85.1492 136.842 85.7038 136.143 86.1065C135.445 86.5092 134.714 86.9065 134.01 87.3145C132.93 87.9225 131.767 88.7412 130.57 89.1012C129.666 89.3678 129.149 90.0105 129.01 91.2345C128.783 93.2132 126.261 93.2132 125.637 94.8265C125.279 95.7545 125.41 96.6611 124.799 97.5065C124.245 98.2718 123.509 98.8772 122.855 99.5518C121.541 100.906 120.149 102.154 118.754 103.429C117.359 104.704 116.607 106.242 115.442 107.634C114.511 108.745 113.506 109.792 112.434 110.768C111.915 111.189 111.458 111.682 111.077 112.232C110.759 112.765 110.599 113.389 110.346 113.949C109.813 115.125 109.127 116.365 107.946 117C105.663 117.936 92.4953 117.728 90.6127 117.496C88.85 117.28 86.01 114.696 85.402 112.429C83.6447 105.901 89.402 101.112 89.402 101.112C93.8207 96.8852 97.45 95.1438 99.002 94.6958C102.114 93.7971 104.725 91.7012 107.338 89.8745C110.106 87.9385 112.909 86.0558 115.583 83.9918C116.786 83.0612 117.962 82.0958 119.09 81.0772C119.703 80.5225 120.423 79.9705 120.917 79.3172C121.349 78.7572 121.754 78.2078 122.551 78.2345C122.965 78.2345 123.37 78.3572 123.781 78.3385C124.134 78.3019 124.476 78.1959 124.788 78.0266C125.1 77.8573 125.376 77.6279 125.599 77.3518C125.71 77.2076 125.842 77.0817 125.991 76.9785C126.719 76.5412 127.503 77.4772 128.237 77.0878C128.365 77.0055 128.483 76.9089 128.589 76.7998C128.943 76.4888 129.4 76.3214 129.871 76.3305C130.271 76.3305 130.671 76.4745 131.058 76.4665C131.741 76.4532 132.154 75.9758 132.698 75.6478C133.283 75.3015 133.971 75.1704 134.642 75.2772C134.885 74.7812 135.442 74.5092 135.975 74.4025C136.509 74.2958 137.077 74.3278 137.623 74.2505C138.511 74.1252 139.325 73.7305 140.157 73.4132C141.002 73.1275 141.866 72.9012 142.743 72.7358C144.781 72.2638 146.775 71.6292 148.823 71.2025C149.584 71.0647 150.323 70.8233 151.018 70.4852C151.319 70.3278 151.629 69.9945 151.943 69.8932C152.309 69.7785 152.653 70.0558 153.01 69.9865C153.223 69.9099 153.409 69.7716 153.543 69.5892C154.128 68.9684 154.863 68.5091 155.677 68.2558C156.477 68.0052 157.277 68.1092 158.077 67.9092C159.169 67.6303 160.243 67.2839 161.293 66.8718C161.343 68.2665 164.81 77.9865 164.81 77.9865Z" fill="#367090"/>
<path fill-rule="evenodd" clip-rule="evenodd" d="M160.258 79.0506C159.623 79.1573 158.975 79.2559 158.351 79.3439C157.727 79.4319 157.127 79.5119 156.586 79.5786C156.946 79.2483 157.271 78.8809 157.554 78.4826C157.875 78.036 158.123 77.5409 158.287 77.0159C158.405 76.6613 158.402 75.7119 158.655 75.4799C159.189 74.9999 159.666 75.5866 159.551 76.1253C159.285 77.3599 159.818 77.9919 160.783 77.4133C161.33 77.0826 160.621 78.0853 160.258 79.0506Z" fill="#133953"/>
<path d="M89.1992 116.197L111.511 96.1174L122.999 84.7547L161.138 71.3547" stroke="#6BA6C4" stroke-width="0.5" stroke-linecap="round" stroke-linejoin="round" stroke-dasharray="4 4"/>
<path d="M112.301 109.57C112.034 107.877 111.767 106.144 112.061 104.456C112.354 102.768 113.33 101.096 114.909 100.424C115.717 100.108 116.591 99.9964 117.453 100.098C117.841 100.11 118.221 100.217 118.559 100.408C118.975 100.674 119.359 101.44 118.685 101.61C118.143 101.764 117.587 101.859 117.026 101.896C115.919 101.925 114.743 101.322 114.85 100.061C114.938 99.0424 115.821 98.0691 116.717 97.6611C117.663 97.2371 118.722 97.1464 119.751 97.0051C122.226 96.6611 124.037 95.4051 124.765 92.9224C125.191 91.4718 125.183 89.9278 125.085 88.4158M86.5059 105.152C86.5059 105.152 91.6445 104.944 93.8072 111.33L86.5059 105.152Z" stroke="#6BA6C4" stroke-width="0.5" stroke-miterlimit="10" stroke-linecap="round"/>
<path fill-rule="evenodd" clip-rule="evenodd" d="M93.9007 100.266C93.9007 100.266 93.922 98.3304 93.9007 97.9544C93.8794 97.5784 93.4874 95.3704 93.1167 94.885C92.2534 94.6963 91.3786 94.5645 90.498 94.4904C90.498 94.4904 91.8847 93.389 92.2367 93.301C93.0488 93.7379 93.7431 94.3646 94.2607 95.1277C94.4135 95.2819 94.5485 95.4528 94.6634 95.637C95.2191 96.5376 95.5281 97.5686 95.5594 98.6264L93.9007 100.266Z" fill="#E2E2E2"/>
<path fill-rule="evenodd" clip-rule="evenodd" d="M92.7199 101.253L94.1733 102.066C94.1733 102.066 93.6399 100.352 93.5573 100.109C93.207 99.3714 92.7305 98.7009 92.1493 98.1276C91.4879 97.5569 89.5306 96.1862 89.2639 95.2129L88.2666 95.8582C88.167 96.1555 88.1439 96.473 88.1994 96.7815C88.2548 97.09 88.3871 97.3796 88.584 97.6236C89.2666 98.3996 91.9946 99.4929 92.7199 101.253Z" fill="#EFEFEF"/>
<path d="M76.4526 143.011H81.5593H75.4473" stroke="#A9ADB2" stroke-miterlimit="10"/>
<path d="M69.5801 143.011H71.8334" stroke="#A9ADB2" stroke-miterlimit="10"/>
<path d="M3.14062 143.333H64.2206H66.6073" stroke="#A9ADB2" stroke-linecap="round" stroke-linejoin="round"/>
<path fill-rule="evenodd" clip-rule="evenodd" d="M91.0578 43.0743C91.0578 43.0743 86.4578 39.2503 74.9512 37.2983L75.0845 37.1116C75.7858 36.1516 79.0525 31.8289 80.6525 32.5409C82.4552 33.3409 82.3538 34.5223 84.3565 33.8743C86.3592 33.2263 88.0552 33.4929 88.5565 34.8583C88.8738 35.7303 89.6232 37.6716 90.2338 39.7009C90.5818 40.8062 90.8571 41.9331 91.0578 43.0743Z" fill="#CC338C"/>
<path fill-rule="evenodd" clip-rule="evenodd" d="M96.5386 54.6663C96.1013 55.3383 96.1066 55.4077 96.1066 55.4077C96.1066 55.4077 95.9599 51.5757 93.6586 48.7757C92.7807 47.6752 91.8168 46.6461 90.7759 45.6983C88.3279 43.517 84.9466 41.6743 80.6426 42.8237H79.9546C79.9546 42.8237 76.4533 40.4237 74.2026 40.7703C72.6479 41.0157 71.4506 42.4983 70.8106 44.0023C70.5419 44.6119 70.3701 45.2597 70.3013 45.9223L70.2853 46.101C70.1039 47.837 69.4026 48.7437 68.9679 49.1783C68.7573 49.3917 68.4346 50.6317 68.2426 51.9703C68.2293 52.0583 68.2159 52.149 68.2053 52.237C68.0937 53.1754 68.0296 54.1188 68.0133 55.0637C68.0133 55.0637 63.3866 50.4583 62.9466 46.7223C62.4453 42.469 63.9466 38.277 70.2959 37.5597C76.6453 36.8423 78.1013 37.717 81.7626 38.6423C85.4239 39.5677 94.0666 43.3197 96.5173 48.221C98.0666 51.3383 97.3039 53.5037 96.5386 54.6663Z" fill="#CC338C"/>
<path fill-rule="evenodd" clip-rule="evenodd" d="M91.0572 43.0747C91.0572 43.0747 86.4572 39.2507 74.9505 37.2987L75.0838 37.1121C78.4518 37.4854 85.7985 38.4001 90.2332 39.6987C90.5813 40.8049 90.8565 41.9326 91.0572 43.0747ZM70.8092 44.0001C70.5405 44.6097 70.3687 45.2575 70.2998 45.9201L70.2838 46.0987C70.1025 47.8347 69.4012 48.7414 68.9665 49.1761C68.7558 49.3894 68.4332 50.6294 68.2412 51.9681C68.2278 52.0561 68.2145 52.1467 68.2038 52.2347C68.1052 52.0801 68.0038 51.9094 67.8998 51.7201C64.8332 46.2267 69.5612 44.3841 70.8092 44.0001ZM96.5665 53.6294C96.5665 54.0081 96.5665 54.3547 96.5452 54.6694C96.1078 55.3414 96.1132 55.4107 96.1132 55.4107C96.1132 55.4107 95.9665 51.5787 93.6652 48.7787C92.7866 47.6788 91.8227 46.6499 90.7825 45.7014L90.7638 45.5761C90.7638 45.5761 96.5665 49.4294 96.5665 53.6294Z" fill="#A32970"/>
<path fill-rule="evenodd" clip-rule="evenodd" d="M57.548 55.2906C57.548 55.2906 58.0814 57.7999 56.268 59.6026C54.4547 61.4053 47.6627 65.0453 39.828 56.6506C39.7777 56.427 39.7738 56.1954 39.8164 55.9702C39.8591 55.745 39.9474 55.531 40.076 55.3412C40.7391 54.3517 41.537 53.4595 42.4467 52.6906C44.6574 50.8239 45.772 50.5812 47.0014 50.9332C48.2307 51.2852 50.1054 50.7252 50.556 50.1066C51.0067 49.4879 51.356 47.8746 53.8654 48.3626C56.3747 48.8506 56.8894 48.7172 56.8894 48.7172C57.0098 49.3317 57.0555 49.9585 57.0254 50.5839C57.01 50.9001 56.9717 51.2147 56.9107 51.5252C56.8255 51.8089 56.7622 52.0986 56.7214 52.3919C56.7392 53.0337 56.8757 53.6665 57.124 54.2586C57.2862 54.5936 57.4278 54.9383 57.548 55.2906Z" fill="#E8A1CA"/>
<path d="M148.426 82.0796C148.426 82.0796 148.994 87.4663 155.93 87.4129" stroke="#6BA6C4" stroke-width="0.5" stroke-linecap="round" stroke-linejoin="round" stroke-dasharray="4 4"/>
<path fill-rule="evenodd" clip-rule="evenodd" d="M149.069 85.3547C149.069 85.3547 150.266 85.8881 150.757 86.8187C150.757 86.8187 150.149 90.3148 148.986 89.7814C148.986 89.7814 148.746 86.5601 149.069 85.3547Z" fill="#6BA6C4"/>
<path fill-rule="evenodd" clip-rule="evenodd" d="M159.369 82.1332C158.641 82.3439 157.156 83.1625 157.118 86.3305L156.985 93.5305C156.985 93.5305 150.908 91.6292 148.38 89.2959C147.54 88.5225 146.716 87.6319 146.438 86.4932C146.356 86.1439 146.137 85.9999 145.873 85.7919C145.609 85.5839 145.364 85.3999 145.102 85.2132L145.012 85.1465C144.42 84.7332 143.745 84.2479 143.022 84.1039L142.924 84.0879L143.54 83.8932C144.34 83.6265 145.489 83.2105 146.828 82.7065C148.166 82.2025 149.676 81.4719 150.684 81.1465C151.566 80.8276 152.421 80.4361 153.238 79.9759C153.505 79.8292 154.444 79.8079 154.553 79.8079C154.86 80.0185 155.212 80.2479 155.593 80.4772L155.678 80.5279C156.171 80.8231 156.681 81.0901 157.204 81.3279C157.888 81.6555 158.615 81.8862 159.364 82.0132C159.372 82.0128 159.38 82.014 159.387 82.0167C159.394 82.0194 159.401 82.0236 159.407 82.0289C159.413 82.0342 159.418 82.0406 159.421 82.0478C159.424 82.0549 159.426 82.0627 159.426 82.0705C159.427 82.0784 159.426 82.0863 159.423 82.0937C159.42 82.1011 159.416 82.1079 159.411 82.1137C159.405 82.1196 159.399 82.1243 159.392 82.1276C159.385 82.1309 159.377 82.1328 159.369 82.1332Z" fill="#367090"/>
<path fill-rule="evenodd" clip-rule="evenodd" d="M155.594 80.4611L145.101 85.1971L145.01 85.1304C144.418 84.7171 143.743 84.2317 143.021 84.0877L142.922 84.0717L143.538 83.8771C144.338 83.6104 145.487 83.1944 146.826 82.6904C148.165 82.1864 149.674 81.4557 150.682 81.1304C151.564 80.8115 152.419 80.4199 153.237 79.9597C153.503 79.8131 154.442 79.7917 154.551 79.7917C154.861 79.9997 155.213 80.2317 155.594 80.4611Z" fill="#133953"/>
<path fill-rule="evenodd" clip-rule="evenodd" d="M158.893 82.2903C158.893 82.2903 156.277 82.949 157.008 89.1276C157.008 89.1276 158.874 90.1943 159.224 91.3756C159.224 91.3756 162.61 90.1729 163.338 89.8796C164.066 89.5863 167.709 89.3623 169.064 89.4129C170.418 89.4636 173.082 88.0663 174.352 84.9276C174.328 84.989 173.309 84.8476 173.192 84.8343C172.77 84.789 172.349 84.7276 171.933 84.6503C171.106 84.4769 170.29 84.2489 169.493 83.9676C168.525 83.6556 167.36 83.7836 166.36 83.8103C165.672 83.829 164.981 83.861 164.29 83.861C163.824 83.8956 163.354 83.8587 162.898 83.7516C161.829 83.4076 159.016 82.3276 158.893 82.2903Z" fill="#FF8E68"/>
<path fill-rule="evenodd" clip-rule="evenodd" d="M181.787 81.9868C181.731 81.9182 181.661 81.8618 181.582 81.8211C181.504 81.7804 181.417 81.7561 181.329 81.7499C181.241 81.7437 181.152 81.7555 181.068 81.7848C180.985 81.8141 180.908 81.8601 180.843 81.9201C180.843 81.9201 180.168 84.8161 180.109 85.8801C180.051 86.9441 179.357 91.3281 178.029 92.2641C178.029 92.2641 181 91.4641 181.723 89.5148C181.723 89.5148 183.083 85.4694 181.787 81.9868Z" fill="#7A1F54"/>
<path fill-rule="evenodd" clip-rule="evenodd" d="M179.591 80.3228C179.591 80.3228 181.426 81.7734 181.458 81.7974C181.49 81.8214 179.901 91.0294 178.077 92.2854C178.077 92.2854 173.615 92.1947 171.607 92.2507C169.599 92.3067 167.845 93.0934 167.074 93.8214C167.074 93.8214 166.194 94.4907 167.119 95.1041C168.045 95.7174 176.522 99.7334 176.402 99.7334C176.327 99.7334 176.031 100.517 176.031 100.517C176.031 100.517 167.965 96.8694 166.501 96.8747C165.19 96.8367 163.883 96.7228 162.586 96.5334C162.586 96.5334 164.775 94.3787 166.109 93.6347C167.442 92.8907 169.002 91.5361 171.333 91.5894C173.663 91.6427 175.381 91.9921 176.426 89.3307C177.471 86.6694 178.717 81.3494 179.591 80.3228Z" fill="#A32970"/>
<path fill-rule="evenodd" clip-rule="evenodd" d="M159.234 91.1836C159.21 92.3037 159.515 93.4062 160.112 94.3544C160.709 95.3025 161.571 96.0545 162.591 96.517C162.591 96.517 165.303 93.9703 167.836 92.5996C167.836 92.5996 169.602 91.2983 172.636 91.6476C172.636 91.6476 175.402 92.1143 176.37 89.5676C177.338 87.021 179.036 80.701 179.591 80.389C179.591 80.389 179.124 79.4023 177.892 80.2076C176.66 81.013 175.002 83.9063 173.9 85.6423C172.799 87.3783 171.572 89.3756 166.516 89.405C161.46 89.4343 159.679 90.7516 159.234 91.1836Z" fill="#CC338C"/>
<path fill-rule="evenodd" clip-rule="evenodd" d="M78.2761 100.707L75.8788 101.384L75.8281 101.64L78.2761 100.707Z" fill="#E68F26"/>
<path d="M106.373 81.2316L105.101 117.6M93.8686 78.861L94.1352 117.16L93.8686 78.861ZM56.7539 73.501L143.175 85.8663L132.877 119.733L132.754 119.752L62.6792 114.848L56.7539 73.501ZM59.1246 87.2476L140.063 96.2263L59.1246 87.2476ZM61.0366 101.002L136.674 107.466L61.0366 101.002ZM65.9299 74.821L71.7139 114.904L65.9299 74.821Z" stroke="#1F2123" stroke-miterlimit="10"/>
<path d="M79.7676 76.8901L81.4689 115.717M125.258 102.519L124.813 105.199L124.314 108.21L123.781 111.41L122.808 118.693L125.258 102.519ZM126.514 94.9328L126.034 97.8341L126.514 94.9328ZM128.445 83.5728L127.816 87.1008L127.477 89.1568L128.445 83.5728Z" stroke="#1F2123" stroke-miterlimit="10"/>
<path d="M66.7431 142.517C69.8492 142.517 72.3671 139.999 72.3671 136.893C72.3671 133.787 69.8492 131.269 66.7431 131.269C63.6371 131.269 61.1191 133.787 61.1191 136.893C61.1191 139.999 63.6371 142.517 66.7431 142.517Z" stroke="#123A53" stroke-miterlimit="10"/>
<path d="M66.7436 138.76C67.7745 138.76 68.6103 137.924 68.6103 136.893C68.6103 135.862 67.7745 135.026 66.7436 135.026C65.7127 135.026 64.877 135.862 64.877 136.893C64.877 137.924 65.7127 138.76 66.7436 138.76Z" fill="#123A53"/>
<path d="M119.452 142.517C122.558 142.517 125.076 139.999 125.076 136.893C125.076 133.787 122.558 131.269 119.452 131.269C116.346 131.269 113.828 133.787 113.828 136.893C113.828 139.999 116.346 142.517 119.452 142.517Z" stroke="#123A53" stroke-miterlimit="10"/>
<path d="M119.453 138.76C120.484 138.76 121.319 137.924 121.319 136.893C121.319 135.862 120.484 135.026 119.453 135.026C118.422 135.026 117.586 135.862 117.586 136.893C117.586 137.924 118.422 138.76 119.453 138.76Z" fill="#123A53"/>
<path d="M69.3301 115.773L60.3301 131.243H124.453" stroke="#123A53" stroke-miterlimit="10"/>
<path d="M38.957 57.8372L54.9864 64.0265L62.6797 114.848L97.7357 117.181" stroke="#1F2123" stroke-width="6" stroke-miterlimit="10"/>
<path d="M38.2526 60.088C39.5722 60.088 40.6419 59.0182 40.6419 57.6987C40.6419 56.3791 39.5722 55.3093 38.2526 55.3093C36.933 55.3093 35.8633 56.3791 35.8633 57.6987C35.8633 59.0182 36.933 60.088 38.2526 60.088Z" fill="#123A53"/>
</svg>
