<svg width="24" height="24" viewBox="0 0 24 24" fill="none" xmlns="http://www.w3.org/2000/svg">
<path d="M12.1 21C11.6 21 11 20.7978 10.6 20.3933C4.1 14.6292 4 14.5281 4 14.427L3.9 14.3258C2.7 13.1124 2 11.3933 2 9.67416V9.47191C2.1 5.83146 5 3 8.6 3C9.7 3 11.2 3.60674 12.1 4.82022C13 3.60674 14.6 3 15.7 3C19.3 3 22.1 5.83146 22.3 9.47191V9.67416C22.3 11.4944 21.6 13.1124 20.4 14.427L20.3 14.5281C20.2 14.6292 19.4 15.3371 13.7 20.4944C13.2 20.7978 12.7 21 12.1 21ZM5.5 14.1236C5.9 14.5281 7.9 15.9438 11.6 19.1798C11.9 19.4831 12.3 19.4831 12.6 19.1798C16.4 15.7416 18.6 13.8202 19.1 13.4157L19.2 13.3146C20.2 12.3034 20.7 10.9888 20.7 9.67416V9.47191C20.6 6.64045 18.4 4.51685 15.6 4.51685C14.9 4.51685 13.5 5.02247 13 6.13483C12.8 6.53933 12.4 6.74157 12 6.74157C11.6 6.74157 11.2 6.53933 11 6.13483C10.5 5.1236 9.2 4.51685 8.4 4.51685C5.7 4.51685 3.4 6.74157 3.3 9.47191V9.77528C3.3 11.0899 3.9 12.4045 4.8 13.3146L5.5 14.1236Z" fill="#CC338C"/>
</svg>
