<svg width="24" height="24" viewBox="0 0 24 24" fill="none" xmlns="http://www.w3.org/2000/svg">
<path d="M21.4633 10.3915H20.7059V10.3529H12.2353V14.1176H17.5552C16.7776 16.3088 14.693 17.8823 12.2353 17.8823C9.11583 17.8823 6.58825 15.3547 6.58825 12.2353C6.58825 9.11577 9.11583 6.58819 12.2353 6.58819C13.6747 6.58819 14.9853 7.13047 15.9816 8.01834L18.6434 5.35657C16.9633 3.7904 14.7151 2.82349 12.2353 2.82349C7.03678 2.82349 2.82355 7.03672 2.82355 12.2353C2.82355 17.4338 7.03678 21.647 12.2353 21.647C17.4338 21.647 21.6471 17.4338 21.6471 12.2353C21.6471 11.6047 21.5827 10.9889 21.4633 10.3915Z" fill="#FFC107"/>
<path d="M3.90808 7.85474L7.00183 10.1231C7.83823 8.05143 9.86396 6.58819 12.2353 6.58819C13.6746 6.58819 14.9853 7.13047 15.9816 8.01834L18.6434 5.35657C16.9632 3.7904 14.7151 2.82349 12.2353 2.82349C8.61948 2.82349 5.48529 4.86393 3.90808 7.85474Z" fill="#FF3D00"/>
<path d="M12.2353 21.647C14.6655 21.647 16.875 20.7168 18.546 19.204L15.6324 16.7389C14.6875 17.454 13.5129 17.8823 12.2353 17.8823C9.78678 17.8823 7.70957 16.3216 6.92648 14.1433L3.85663 16.5073C5.41361 19.5551 8.57722 21.647 12.2353 21.647Z" fill="#4CAF50"/>
<path d="M21.4632 10.3914H20.7059V10.3528H12.2353V14.1175H17.5551C17.182 15.1708 16.5037 16.077 15.6305 16.7388C15.6323 16.7388 15.6323 16.7388 15.6323 16.7388L18.546 19.2039C18.3401 19.3895 21.6471 16.941 21.6471 12.2351C21.6471 11.6046 21.5827 10.9888 21.4632 10.3914Z" fill="#1976D2"/>
</svg>
