<svg width="20" height="20" viewBox="0 0 20 20" fill="none" xmlns="http://www.w3.org/2000/svg">
<path fill-rule="evenodd" clip-rule="evenodd" d="M14.1018 8.50013C13.7568 8.50013 13.4768 8.22013 13.4768 7.87513V6.08596C13.4768 4.3393 12.056 2.91846 10.3093 2.91846H10.296C9.45181 2.91846 8.66098 3.24346 8.06348 3.83596C7.46181 4.43096 7.12931 5.22513 7.12598 6.0718V7.87513C7.12598 8.22013 6.84598 8.50013 6.50098 8.50013C6.15598 8.50013 5.87598 8.22013 5.87598 7.87513V6.08596C5.88098 4.88596 6.34514 3.77846 7.18264 2.94846C8.02098 2.11763 9.12764 1.6368 10.3118 1.66846C12.7451 1.66846 14.7268 3.65013 14.7268 6.08596V7.87513C14.7268 8.22013 14.4468 8.50013 14.1018 8.50013Z" fill="#787E87"/>
<path fill-rule="evenodd" clip-rule="evenodd" d="M7.11801 8.44092C5.71967 8.44092 4.58301 9.57758 4.58301 10.9759V14.5501C4.58301 15.9484 5.71967 17.0851 7.11801 17.0851H13.4855C14.883 17.0851 16.0205 15.9484 16.0205 14.5501V10.9759C16.0205 9.57758 14.883 8.44092 13.4855 8.44092H7.11801ZM13.4855 18.3351H7.11801C5.03051 18.3351 3.33301 16.6376 3.33301 14.5501V10.9759C3.33301 8.88842 5.03051 7.19092 7.11801 7.19092H13.4855C15.573 7.19092 17.2705 8.88842 17.2705 10.9759V14.5501C17.2705 16.6376 15.573 18.3351 13.4855 18.3351Z" fill="#787E87"/>
<path fill-rule="evenodd" clip-rule="evenodd" d="M10.3018 14.3132C9.95676 14.3132 9.67676 14.0332 9.67676 13.6882V11.8374C9.67676 11.4924 9.95676 11.2124 10.3018 11.2124C10.6468 11.2124 10.9268 11.4924 10.9268 11.8374V13.6882C10.9268 14.0332 10.6468 14.3132 10.3018 14.3132Z" fill="#787E87"/>
</svg>
