<svg width="25" height="24" viewBox="0 0 25 24" fill="none" xmlns="http://www.w3.org/2000/svg">
<path fill-rule="evenodd" clip-rule="evenodd" d="M12.75 3.5C7.925 3.5 4 7.425 4 12.25C4 17.075 7.925 21 12.75 21C17.575 21 21.5 17.075 21.5 12.25C21.5 7.425 17.575 3.5 12.75 3.5ZM12.75 22.5C7.098 22.5 2.5 17.902 2.5 12.25C2.5 6.598 7.098 2 12.75 2C18.402 2 23 6.598 23 12.25C23 17.902 18.402 22.5 12.75 22.5Z" fill="#989DA4"/>
<path fill-rule="evenodd" clip-rule="evenodd" d="M11.634 10.0865C11.457 11.0875 11.454 13.4785 11.631 14.4285C12.509 14.1185 14.411 12.8685 14.923 12.2495C14.413 11.6485 12.535 10.4245 11.634 10.0865ZM11.328 16.0015C11.058 16.0015 10.802 15.9245 10.593 15.7165C10.432 15.5575 10.002 15.1325 10 12.3335C9.999 9.36151 10.446 8.91951 10.593 8.77251C11.116 8.25451 11.968 8.60951 12.331 8.76151C12.851 8.97851 16.5 10.8475 16.5 12.2455C16.5 13.5555 13.216 15.3875 12.377 15.7375C12.05 15.8735 11.677 16.0015 11.328 16.0015Z" fill="#989DA4"/>
</svg>
