<svg width="54" height="61" viewBox="0 0 54 61" fill="none" xmlns="http://www.w3.org/2000/svg">
<path d="M51.3564 3.67138C50.9267 2.81201 50.0787 2.24664 49.1288 2.19011C48.5974 2.15618 48.0772 2.13357 47.5458 2.09965L43.9048 1.89611L39.1444 1.62473L34.1917 1.34205L29.9741 1.10459L27.4525 0.968905C27.2942 0.957598 27.1359 0.946289 26.9776 0.946289C25.7677 0.946289 24.7048 1.77173 24.2299 2.85724C23.9924 3.38869 23.9585 3.90884 23.9246 4.47421L23.8115 6.38516L23.6306 9.41555L23.4044 13.3279L23.1331 17.8848L22.8504 22.7809L22.5564 27.8014L22.2624 32.7088L22.0023 37.1979L21.7762 41.0537L21.5953 44.0276L21.4935 45.8481C21.4596 46.5152 21.4369 47.171 21.7762 47.7929C22.2172 48.6071 23.0539 49.1385 23.9811 49.1951L24.4786 49.2177L27.2377 49.376L31.5684 49.6248L36.5437 49.9074L41.2476 50.1675L44.6963 50.3597L45.9854 50.4276H45.9967C47.6928 50.4841 49.0271 49.0028 49.1288 47.3746C49.1514 46.9675 49.1741 46.5491 49.208 46.1421L49.355 43.6544L49.5585 40.1604L49.8073 35.8975L50.09 31.1597L50.384 26.1732L50.6779 21.1866L50.9606 16.4375L51.2094 12.2198L51.4129 8.75972L51.5599 6.30601C51.5825 5.91025 51.6052 5.5258 51.6278 5.13004C51.6617 4.64382 51.5712 4.13498 51.3564 3.67138Z" fill="#CC338C"/>
<path d="M41.9151 16.4938C41.4515 15.6006 40.7165 14.8769 39.8119 14.4133C38.8847 13.9723 37.8558 13.8366 36.8494 14.0062C35.7865 14.1758 34.8141 14.6847 34.0565 15.4536C33.2762 16.279 32.7561 17.3193 32.5639 18.4387C32.383 19.4451 32.53 20.4741 32.9709 21.4013C34.1017 23.6967 36.872 24.6352 39.1674 23.5044C39.6762 23.2557 40.1399 22.9052 40.5243 22.4868C41.1801 21.8083 41.655 20.9716 41.8925 20.067C41.9038 20.0783 41.9038 20.0896 41.9151 20.0896C41.983 20.1122 42.0621 20.1009 42.1187 20.0557C42.2996 19.9313 42.424 19.7278 42.4579 19.5129V19.4677C42.5936 18.45 42.4013 17.4097 41.9151 16.4938Z" fill="#FAEBF4"/>
<path d="M53.7876 13.8481C54.1042 12.706 53.8894 11.3718 52.8265 10.6933C50.9156 9.49473 48.6654 10.9195 46.9919 11.9145C44.165 13.588 41.406 15.3972 38.6583 17.1951C35.2548 19.4227 31.8739 21.6841 28.5042 23.9682C26.0053 25.6643 23.4951 27.3605 21.0413 29.1131C20.9396 29.181 20.8491 29.2601 20.7474 29.328L22.9749 19.0382C23.3028 17.523 23.823 15.8156 23.088 14.3343C22.8053 13.7689 22.3417 13.2714 21.7311 13.0679C21.0527 12.8417 20.3064 12.9661 19.6732 13.2714C18.3276 13.9385 17.5134 15.352 16.6993 16.5506C15.8852 17.7492 15.0823 18.9704 14.3247 20.2142C12.9452 22.4757 11.724 24.8163 10.7742 27.2926C9.80177 29.882 9.10071 32.5619 8.68234 35.2983C8.63711 35.581 8.59188 35.8749 8.54665 36.1576C6.68093 36.6552 4.80389 37.1527 2.90425 37.4919C2.47457 37.5711 2.05619 37.605 1.67174 37.8085C1.35513 37.9781 1.07245 38.2156 0.857604 38.4983C0.371385 39.1428 0.292233 39.8325 0.405308 40.6128C0.959371 44.4347 1.62651 48.2453 2.36149 52.0333C2.71202 53.8764 3.08517 55.7082 3.48093 57.5287C3.65054 58.2976 3.82015 58.9873 4.45336 59.5075C5.01873 59.9824 5.76502 60.1746 6.50001 60.0502C6.98623 59.9598 7.47245 59.8128 7.95866 59.6884L9.49647 59.2926C10.4802 59.0439 11.4527 58.7838 12.4364 58.535C14.0873 58.1053 15.7382 57.6643 17.3891 57.2234C18.418 56.952 19.4357 56.6693 20.4647 56.3866C20.6569 56.3301 20.8604 56.2622 21.0527 56.2283H21.064L21.2788 56.2396C23.5742 56.3414 25.8809 56.2509 28.165 55.9795C29.8159 55.7986 31.4555 55.4707 33.0498 55.0071C34.0336 54.6905 34.9834 54.2947 35.8993 53.8198C38.2399 52.6552 40.5353 51.3887 42.8194 50.0997C43.6901 49.6135 44.5608 49.1159 45.4088 48.5958C46.7318 47.7817 47.9869 46.8771 49.1629 45.8707C49.7283 45.4071 50.271 44.8983 50.7799 44.3781C51.1756 43.9824 51.5148 43.5301 51.7862 43.0325C52.2046 42.1958 52.4081 41.2686 52.3516 40.3414C52.3177 39.6855 52.2159 38.6566 51.5262 38.34C51.2095 38.193 50.859 38.2043 50.5198 38.2495C51.1982 37.5258 51.6392 36.5873 51.8541 35.6149C51.9898 34.993 52.0237 34.3484 51.9671 33.7152C51.9106 33.1499 51.8088 32.4714 51.3339 32.087C50.859 31.7025 50.2823 31.7591 49.7848 32.0191C49.1516 32.347 48.5184 32.675 47.8739 32.9803C46.4944 33.6474 45.1148 34.2919 43.758 35.0043C42.5594 35.6488 41.3608 36.3046 40.0943 36.8135C42.0166 35.5244 43.9502 34.258 45.8838 32.9916C47.0371 32.2453 48.2018 31.499 49.3325 30.7301C50.3276 30.0516 51.3 29.294 51.9106 28.2424C52.4986 27.2022 52.7587 26.0036 52.6682 24.8163C52.6004 23.8439 52.4534 22.5096 51.3678 22.1477C50.9495 22.012 50.4972 22.046 50.1127 22.2382C49.8753 22.3739 49.6378 22.5209 49.4117 22.6792C49.1177 22.8714 48.8237 23.0636 48.5297 23.2446C47.4329 23.9456 46.3021 24.6014 45.1488 25.2121C42.7629 26.4785 40.2979 27.5414 37.7424 28.4234C42.435 24.8163 47.0032 21.0283 51.3905 17.0594C52.4081 16.1661 53.4258 15.1598 53.7876 13.8481Z" fill="#E8A1CA"/>
<path d="M49.3774 38.4754L46.347 40.1263L43.3166 41.7659L41.6092 42.6931C41.5188 42.7496 41.4396 42.8401 41.3831 42.9305C41.3265 43.021 41.2813 43.1227 41.27 43.2358C41.27 43.2924 41.2587 43.3941 41.3265 43.428C41.3944 43.4507 41.4735 43.4394 41.5301 43.3941L44.5605 41.7545L47.5908 40.115L49.2983 39.1878C49.3887 39.1312 49.4679 39.0408 49.5244 38.9503C49.5809 38.8599 49.6262 38.7581 49.6375 38.645C49.6375 38.5885 49.6488 38.4867 49.5809 38.4528C49.5018 38.4076 49.434 38.4302 49.3774 38.4754ZM51.7633 10.7609C51.2205 11.0323 50.7004 11.3489 50.1916 11.6881C49.6375 12.0726 49.1626 12.5362 48.7668 13.079C48.0997 14.0288 47.7491 15.3404 48.3711 16.4033C48.6537 16.9009 49.14 17.2514 49.7053 17.3645C49.7732 17.3758 49.8749 17.2966 49.9202 17.2514C50.0106 17.1722 50.0785 17.0705 50.1237 16.9687C50.1689 16.8556 50.2594 16.5956 50.0672 16.5616C50.0106 16.5503 49.9541 16.539 49.8976 16.5277L49.9541 16.539C49.6375 16.4373 49.3548 16.2563 49.14 16.0189L49.1739 16.0641C49.0495 15.9171 48.9364 15.7588 48.846 15.5892C48.8007 15.4987 48.7668 15.4083 48.7329 15.3178C48.7216 15.2952 48.7216 15.2726 48.7103 15.25C48.699 15.2274 48.699 15.2274 48.699 15.2161C48.699 15.2048 48.7103 15.2613 48.699 15.2387C48.6877 15.1934 48.6764 15.1369 48.6651 15.0917C48.6424 15.0012 48.6311 14.8995 48.6311 14.809V14.7411C48.6311 14.7298 48.6311 14.6394 48.6311 14.6959C48.6311 14.7525 48.6311 14.662 48.6311 14.6507L48.6424 14.5602C48.6424 14.5037 48.6537 14.4585 48.6651 14.4019L48.6764 14.3228C48.6764 14.3115 48.6764 14.3002 48.6764 14.2889C48.6877 14.221 48.665 14.3567 48.6764 14.3115C48.699 14.2097 48.7329 14.0966 48.7668 13.9949C48.7668 13.9722 48.8007 13.8818 48.7781 13.9609C48.7555 14.0401 48.7894 13.9383 48.7894 13.927C48.812 13.8705 48.8347 13.8252 48.8573 13.7687C48.8686 13.7461 48.8799 13.7235 48.8912 13.7009C48.9025 13.6783 48.9477 13.5991 48.9025 13.6783C48.8573 13.7574 48.9138 13.6669 48.9138 13.6556C48.9138 13.6443 48.9477 13.5991 48.959 13.5765C48.9817 13.5313 49.0156 13.486 49.0495 13.4408L49.0834 13.3843C49.1287 13.3277 49.0495 13.4182 49.0495 13.4295L49.0834 13.3843C49.1513 13.2938 49.2191 13.2146 49.2983 13.1242C49.3096 13.1016 49.3322 13.0903 49.3435 13.0677C49.3548 13.0563 49.3661 13.045 49.3774 13.0337C49.3774 13.0337 49.2983 13.1129 49.3548 13.0677C49.4113 13.0224 49.434 12.9885 49.4679 12.9546C49.5583 12.8641 49.6488 12.785 49.7393 12.7058L49.8636 12.604C49.8976 12.5701 49.8071 12.6493 49.841 12.6154L49.8749 12.5927C49.8976 12.5701 49.9315 12.5475 49.9541 12.5362C50.0446 12.4684 50.1463 12.4005 50.2481 12.3327C50.7117 12.0387 51.1753 11.7673 51.6615 11.5185C51.752 11.462 51.8311 11.3715 51.8877 11.2811C51.9442 11.1906 51.9894 11.0889 52.0007 10.9758C52.0007 10.9192 52.012 10.8175 51.9442 10.7836C51.899 10.6931 51.8311 10.7044 51.7633 10.7609ZM21.2219 14.0514C21.1654 14.3454 21.1089 14.6507 21.0523 14.9447L21.0071 15.1595C21.0071 15.1821 20.9958 15.2274 21.0071 15.1369C21.0071 15.1595 20.9958 15.1708 20.9958 15.1934C20.9845 15.2387 20.9732 15.2839 20.9732 15.3178C20.9393 15.4648 20.9053 15.6118 20.8714 15.7475C20.7923 16.0415 20.7018 16.3242 20.6 16.6182C20.5661 16.7199 20.634 16.539 20.5887 16.6408L20.5435 16.7539C20.5209 16.8104 20.487 16.8782 20.4643 16.9348C20.4078 17.0479 20.3513 17.1722 20.2947 17.2853C20.2834 17.2966 20.2834 17.3079 20.2721 17.3192C20.2721 17.3192 20.3287 17.2062 20.2947 17.274C20.2834 17.2966 20.2721 17.3305 20.2495 17.3532C20.2156 17.4097 20.1817 17.4662 20.1477 17.5228C20.1138 17.568 20.0799 17.6245 20.0573 17.6698L20.0007 17.7489C19.9894 17.7602 19.9781 17.7715 19.9781 17.7828C19.9442 17.8281 20.046 17.6924 20.0007 17.7489C19.9216 17.8507 19.8424 17.9525 19.7633 18.0542L19.7067 18.1221C19.6841 18.1447 19.5937 18.2351 19.6954 18.1334C19.6502 18.1786 19.605 18.2238 19.5597 18.2691C19.4693 18.3595 19.3675 18.4387 19.2658 18.5178L19.2884 18.4952L19.2544 18.5178L19.1866 18.5744C19.1301 18.6083 19.0735 18.6535 19.017 18.6874C18.9605 18.7214 18.9152 18.744 18.87 18.7779L18.7795 18.8231C18.7456 18.8457 18.8361 18.8005 18.7908 18.8118C18.7682 18.8231 18.7569 18.8344 18.7456 18.8344C18.6325 18.891 18.5082 18.9362 18.3838 18.9814C18.2481 19.0267 18.1124 19.0606 17.9654 19.0832C17.9767 19.0832 18.0219 19.0719 17.9654 19.0832L17.9089 19.0945L17.8071 19.1058C17.7279 19.1171 17.6601 19.1171 17.5809 19.1171C17.2983 19.1284 17.0156 19.0945 16.7329 19.0154L16.7894 19.0267C16.5407 18.9588 16.3145 18.8457 16.0997 18.71C16.0431 18.6761 15.9527 18.71 15.8961 18.744C15.8057 18.8005 15.7265 18.891 15.67 18.9814C15.6135 19.0719 15.5682 19.1737 15.5569 19.2867C15.5456 19.3546 15.5569 19.4337 15.6135 19.479C16.6424 20.18 18.0332 19.9765 19.017 19.3093C20.1477 18.5404 20.8488 17.2853 21.2559 15.9963C21.482 15.2274 21.6516 14.4358 21.776 13.6443C21.8099 13.5652 21.776 13.4747 21.7082 13.4408C21.6403 13.4069 21.5725 13.4295 21.5272 13.486C21.3689 13.6443 21.2559 13.8366 21.2219 14.0514Z" fill="white"/>
<path d="M28.4813 3.55832C27.9385 3.35478 27.3166 3.55831 26.9096 3.94277C26.4007 4.40637 26.1067 5.18659 26.4573 5.83111C26.7739 6.39648 27.4976 6.7357 28.1082 6.48694C28.7301 6.22687 29.1598 5.52581 29.1937 4.85867C29.2163 4.32722 29.0014 3.75054 28.4813 3.55832Z" fill="#FAEBF4"/>
<path d="M7.64216 55.3238C7.95877 56.0362 8.28669 56.7373 8.62591 57.4383C8.94252 58.0941 9.25912 58.75 9.62096 59.3719C9.92626 59.892 10.2994 60.4235 10.8309 60.7401C11.2945 61.0228 11.8598 61.068 12.3687 60.8758C13.0584 60.6157 13.6012 59.9373 13.5786 59.1797C13.5786 59.1118 13.5333 59.0666 13.4655 59.0553C13.3863 59.0666 13.3072 59.1005 13.2506 59.1683C13.0923 59.3153 12.9906 59.5189 12.9906 59.7337C12.9906 59.745 12.9906 59.7563 12.9906 59.7563C13.0019 59.7789 12.9906 59.7224 12.9906 59.7111C12.9906 59.7337 12.9906 59.745 12.9906 59.7676L12.9793 59.8129C12.9793 59.8242 12.9793 59.8355 12.9793 59.8468C12.9793 59.892 13.0019 59.7563 12.9906 59.8016C12.9793 59.8355 12.968 59.8694 12.9567 59.9033C12.9567 59.9146 13.0019 59.8016 12.9793 59.8355C12.9793 59.8468 12.968 59.8468 12.968 59.8581C12.9566 59.8807 12.9453 59.892 12.9453 59.9146C12.9453 59.9373 13.0019 59.8016 12.9793 59.8468C12.9793 59.8468 12.968 59.8581 12.968 59.8694C12.968 59.8807 12.9453 59.9033 12.934 59.9146C12.9227 59.9259 13.0132 59.8129 12.968 59.8694L12.9227 59.9146C12.8775 59.9712 12.9793 59.8581 12.9567 59.8807L12.9227 59.9146C12.8888 59.9373 12.787 60.0164 12.9001 59.9372C12.8436 59.9712 12.787 60.0164 12.7192 60.0503L12.6853 60.0616C12.6853 60.0616 12.7531 60.0277 12.7192 60.039L12.674 60.0616C12.64 60.0842 12.6061 60.0956 12.5609 60.1069C12.4817 60.1295 12.4139 60.1521 12.3347 60.1747C12.3234 60.1747 12.2895 60.186 12.2895 60.186C12.2895 60.186 12.346 60.1747 12.3008 60.186H12.2782C12.2443 60.186 12.1991 60.1973 12.1538 60.1973C11.9842 60.2086 11.8033 60.186 11.6337 60.1408L11.6902 60.1634C11.3058 60.039 10.9665 59.8016 10.7065 59.4963L10.7517 59.5415C10.322 59.0666 10.0393 58.4899 9.74534 57.9245C9.39481 57.2348 9.05559 56.545 8.72767 55.8553C8.54676 55.4595 8.35453 55.0524 8.18492 54.6567C8.1623 54.5888 8.07185 54.5888 8.02662 54.6115C7.93616 54.6454 7.857 54.7132 7.80047 54.7924C7.72131 54.8828 7.66478 54.9846 7.63086 55.0977C7.61955 55.1655 7.61955 55.2447 7.64216 55.3238ZM4.92838 36.0108C4.951 35.8524 4.90577 35.6828 4.82662 35.5358C4.74746 35.4228 4.6457 35.3323 4.52132 35.2758C4.23863 35.1514 3.93333 35.1514 3.65064 35.2532C3.17573 35.4341 2.88174 35.8977 2.71213 36.35C2.56513 36.7683 2.56513 37.232 2.62167 37.6729C2.67821 38.1479 2.75736 38.6115 2.83651 39.0751C2.91566 39.5726 3.00612 40.0701 3.09658 40.5676C3.2775 41.5514 3.49234 42.5351 3.71849 43.5076C3.94464 44.48 4.1934 45.4524 4.46478 46.4249C4.4987 46.538 4.53262 46.6623 4.56654 46.7867C4.58916 46.8546 4.60047 46.9111 4.67962 46.9111C4.75877 46.8998 4.83792 46.8659 4.89446 46.798C4.98492 46.7189 5.05276 46.6171 5.09799 46.5153C5.14322 46.4249 5.16584 46.3344 5.15453 46.2327C4.67962 44.5818 4.27255 42.9196 3.92202 41.2461C3.75241 40.4206 3.59411 39.5839 3.44711 38.7358C3.37927 38.3175 3.31142 37.8878 3.24358 37.4581C3.22096 37.2885 3.19835 37.1189 3.18704 36.9493C3.17573 36.8701 3.17573 36.791 3.17573 36.7005C3.17573 36.6779 3.17573 36.6553 3.17573 36.6327C3.16442 36.7231 3.17573 36.644 3.17573 36.6327C3.17573 36.5874 3.17573 36.5422 3.18704 36.497C3.19835 36.4517 3.19835 36.3952 3.20965 36.35L3.22096 36.3047C3.23227 36.2708 3.22096 36.2821 3.20965 36.3387L3.22096 36.2934C3.23227 36.2482 3.24358 36.203 3.26619 36.1577C3.28881 36.0786 3.23227 36.2482 3.25488 36.1917L3.28881 36.1238C3.30011 36.0899 3.34534 36.0334 3.26619 36.1577C3.2775 36.1351 3.28881 36.1125 3.31142 36.0899C3.35665 36.0221 3.23227 36.1804 3.28881 36.1125C3.30011 36.0899 3.31142 36.0786 3.33404 36.0673C3.37927 36.0108 3.25488 36.1464 3.30011 36.1012L3.34534 36.0673C3.39057 36.0221 3.26619 36.1238 3.31142 36.0899L3.34534 36.0673L3.37927 36.0447C3.4245 36.0221 3.30011 36.0786 3.36796 36.0447C3.39057 36.0334 3.4245 36.0221 3.44711 36.0108C3.46973 35.9994 3.51496 35.9881 3.54888 35.9881C3.5828 35.9881 3.60541 35.9881 3.53757 35.9881C3.54888 35.9881 3.57149 35.9881 3.5828 35.9881C3.71849 35.9768 3.84287 35.9881 3.97856 36.0221L3.92202 36.0108C4.05771 36.0447 4.17079 36.1125 4.26124 36.2143L4.22732 36.1691C4.27255 36.2143 4.30647 36.2708 4.32909 36.3274L4.3404 36.35C4.3517 36.3726 4.3404 36.3726 4.32909 36.3274C4.32909 36.3387 4.32909 36.3613 4.3404 36.3726C4.3404 36.3839 4.3404 36.4065 4.3404 36.4178C4.3517 36.497 4.3404 36.35 4.3404 36.4065C4.3404 36.463 4.3404 36.5535 4.39693 36.5987C4.46478 36.6214 4.54393 36.61 4.58916 36.5648C4.67962 36.5083 4.75877 36.4178 4.81531 36.3274C4.86054 36.2256 4.89446 36.1238 4.92838 36.0108Z" fill="#43474C"/>
<path d="M6.2399 50.0206C6.10421 50.0093 5.96852 49.9867 5.83283 49.9528L5.88937 49.9754C5.4823 49.851 5.10915 49.6136 4.82647 49.2857L4.8717 49.3309C4.69078 49.1273 4.53247 48.8899 4.4194 48.6411C4.39679 48.5846 4.36286 48.5167 4.34025 48.4602C4.32894 48.4263 4.31763 48.3924 4.30633 48.3697C4.30633 48.3584 4.29502 48.3471 4.29502 48.3358C4.29502 48.3245 4.28371 48.3132 4.28371 48.3019C4.29502 48.3358 4.29502 48.3358 4.28371 48.3132C4.24979 48.1888 4.22717 48.0531 4.20456 47.9174C4.19325 47.8383 4.19325 47.7705 4.19325 47.6913C4.19325 47.68 4.19325 47.6574 4.19325 47.6461C4.18194 47.7252 4.19325 47.6574 4.19325 47.6348C4.19325 47.5895 4.19325 47.5556 4.20456 47.5104C4.20456 47.4765 4.21587 47.4425 4.21587 47.4086C4.21587 47.386 4.22717 47.3634 4.22717 47.3408C4.22717 47.4199 4.21587 47.3973 4.22717 47.3747C4.23848 47.3521 4.24979 47.3068 4.2611 47.2729C4.2724 47.239 4.30633 47.1825 4.24979 47.2955C4.2611 47.2729 4.2611 47.2503 4.2724 47.239C4.28371 47.2277 4.28371 47.2164 4.29502 47.2051C4.32894 47.1259 4.23848 47.3068 4.28371 47.239L4.30633 47.2051C4.32894 47.1712 4.37417 47.1259 4.28371 47.2277C4.30633 47.2051 4.32894 47.1599 4.35156 47.1485C4.35156 47.1485 4.2611 47.2277 4.31763 47.1938L4.36286 47.1598C4.38548 47.1372 4.44202 47.1146 4.34025 47.1712L4.37417 47.1485C4.39679 47.1259 4.4194 47.1146 4.45332 47.1033C4.48724 47.092 4.47594 47.092 4.49855 47.0807C4.53247 47.0581 4.4194 47.1146 4.48724 47.092C4.52117 47.0807 4.55509 47.0581 4.58901 47.0468C4.62293 47.0355 4.65686 47.0242 4.67947 47.0129L4.7247 47.0015C4.73601 47.0015 4.79255 46.9789 4.7247 47.0015C4.80385 46.9789 4.8717 46.9789 4.95085 46.9789C5.09785 46.9789 5.23354 47.0015 5.38053 47.0355L5.32399 47.0242C5.59537 47.1033 5.83283 47.2503 6.01375 47.4538L5.96852 47.4086C6.13813 47.6008 6.26251 47.827 6.35297 48.0644C6.36428 48.0758 6.36428 48.0984 6.36428 48.121C6.36428 48.1323 6.37558 48.1775 6.37558 48.1436C6.37558 48.1097 6.38689 48.1775 6.38689 48.1775L6.3982 48.2227C6.40951 48.2906 6.42081 48.3471 6.44343 48.415C6.46604 48.5394 6.47735 48.675 6.47735 48.8107C6.47735 48.8334 6.47735 48.8447 6.47735 48.8673C6.47735 48.8899 6.48866 48.9238 6.47735 48.856C6.47735 48.8899 6.47735 48.9125 6.47735 48.9464C6.47735 49.0143 6.46604 49.0821 6.46604 49.1386C6.46604 49.1952 6.44343 49.2856 6.43212 49.3648C6.43212 49.3987 6.42081 49.4326 6.40951 49.4666C6.3982 49.557 6.42081 49.41 6.40951 49.4553L6.3982 49.5344C6.36428 49.6814 6.31905 49.8397 6.27382 49.9867C6.2512 50.0546 6.22859 50.1224 6.20597 50.2016L6.16074 50.3146C6.16074 50.3372 6.14944 50.3486 6.13813 50.3599C6.12682 50.3938 6.17205 50.2694 6.13813 50.3599C5.68583 51.5358 5.06392 52.8362 5.43707 54.1252C5.57276 54.6228 5.86675 55.0524 6.27382 55.3577C6.73742 55.6857 7.40456 55.7761 7.87947 55.4256C8.45615 55.0072 8.73884 54.2496 8.85191 53.5712C8.94237 52.9945 8.87453 52.3952 8.65968 51.8524C8.25262 50.8461 7.34802 50.1111 6.28513 49.9189C6.16074 49.8963 6.02505 49.8849 5.90067 49.8736C5.82152 49.8849 5.74237 49.9302 5.68583 49.9867C5.59537 50.0659 5.52753 50.1676 5.4823 50.2694C5.43707 50.3712 5.34661 50.6652 5.53884 50.6765C5.76498 50.6878 5.99113 50.7217 6.21728 50.7895L6.16074 50.7669C6.71481 50.9365 7.21233 51.2418 7.59679 51.6715L7.55156 51.6263C7.7664 51.8637 7.93601 52.1238 8.06039 52.4178C8.09431 52.497 8.11693 52.5648 8.15085 52.644C8.16216 52.6779 8.17346 52.7118 8.18477 52.757C8.18477 52.7683 8.19608 52.8023 8.18477 52.757L8.20739 52.8475C8.24131 53.0058 8.27523 53.1641 8.28654 53.3224C8.28654 53.4016 8.29785 53.4694 8.29785 53.5485V53.6051C8.29785 53.5259 8.29785 53.6503 8.29785 53.6051C8.29785 53.6503 8.29785 53.6955 8.28654 53.7408C8.28654 53.8199 8.27523 53.8878 8.26392 53.9669C8.26392 54.0008 8.25262 54.0461 8.24131 54.08C8.20739 54.1705 8.23 54.1139 8.24131 54.08C8.23 54.1026 8.23 54.1252 8.23 54.1478C8.20739 54.227 8.18477 54.2948 8.16216 54.3627C8.15085 54.3966 8.13954 54.4305 8.12824 54.4758C8.17346 54.3401 8.11693 54.4871 8.10562 54.521C8.09431 54.5549 8.0717 54.5888 8.06039 54.6228C8.04908 54.6567 7.99255 54.7132 8.0717 54.6001C8.06039 54.6115 8.06039 54.6228 8.04908 54.6341C8.02647 54.668 8.00385 54.7019 7.99255 54.7245C8.0717 54.6001 8.03778 54.668 8.00385 54.7019L7.95862 54.7471C8.03778 54.6454 7.99255 54.7019 7.96993 54.7245L7.9247 54.7698C8.01516 54.6793 7.90209 54.7924 7.86817 54.7924L7.90209 54.7811L7.86817 54.7924L7.78901 54.8263L7.73248 54.8376C7.72117 54.8376 7.64202 54.8602 7.69855 54.8489C7.51763 54.8715 7.32541 54.8602 7.1558 54.8037L7.21233 54.815C6.91834 54.7245 6.64696 54.5549 6.44343 54.3175L6.47735 54.3627C6.31905 54.1931 6.19467 53.9895 6.10421 53.7747C6.08159 53.7295 6.05898 53.6729 6.04767 53.6277C6.03636 53.5938 6.02505 53.5712 6.01375 53.5372C6.00244 53.5033 6.00244 53.5146 6.00244 53.5033C6.01375 53.5259 6.01375 53.5372 6.00244 53.5033C5.96852 53.3902 5.9459 53.2772 5.9346 53.1528C5.92329 53.0849 5.92329 53.0171 5.92329 52.9493C5.92329 52.9153 5.92329 52.8814 5.92329 52.8475C5.92329 52.8249 5.92329 52.8136 5.92329 52.791C5.92329 52.8701 5.92329 52.7796 5.92329 52.7683C5.9346 52.6213 5.9459 52.4743 5.96852 52.3273C5.97982 52.2595 5.99113 52.1917 6.00244 52.1238C5.97983 52.2143 6.00244 52.1125 6.01375 52.0899C6.02505 52.0673 6.03636 51.9994 6.04767 51.9655C6.08159 51.8185 6.12682 51.6715 6.17205 51.5358C6.19467 51.468 6.21728 51.3888 6.2512 51.321C6.26251 51.2871 6.27382 51.2531 6.28513 51.2192L6.30774 51.174L6.31905 51.1401L6.29643 51.1966C6.35297 51.0496 6.40951 50.9139 6.46604 50.7669C6.59043 50.4616 6.7035 50.1676 6.80527 49.8623C7.0088 49.297 7.09926 48.709 7.06534 48.1097C7.03142 47.5895 6.81657 47.092 6.46604 46.7076C6.14944 46.3909 5.70845 46.2213 5.25615 46.2439C5.00739 46.2553 4.76993 46.3344 4.55509 46.4588C4.2611 46.651 4.02364 46.9111 3.87664 47.2277C3.63919 47.7365 3.58265 48.3019 3.72965 48.8447C3.9671 49.7719 4.64555 50.586 5.59537 50.8235C5.70845 50.8461 5.81021 50.8687 5.92329 50.88C6.14944 50.8461 6.5452 50.0432 6.2399 50.0206Z" fill="#43474C"/>
</svg>
