<svg width="17" height="20" viewBox="0 0 17 20" fill="none" xmlns="http://www.w3.org/2000/svg">
<mask id="mask0_1567_4184" style="mask-type:luminance" maskUnits="userSpaceOnUse" x="0" y="12" width="17" height="8">
<path fill-rule="evenodd" clip-rule="evenodd" d="M0.5 12.4961H16.3399V19.8701H0.5V12.4961Z" fill="white"/>
</mask>
<g mask="url(#mask0_1567_4184)">
<path fill-rule="evenodd" clip-rule="evenodd" d="M8.421 13.9961C4.16 13.9961 2 14.7281 2 16.1731C2 17.6311 4.16 18.3701 8.421 18.3701C12.681 18.3701 14.84 17.6381 14.84 16.1931C14.84 14.7351 12.681 13.9961 8.421 13.9961ZM8.421 19.8701C6.462 19.8701 0.5 19.8701 0.5 16.1731C0.5 12.8771 5.021 12.4961 8.421 12.4961C10.38 12.4961 16.34 12.4961 16.34 16.1931C16.34 19.4891 11.82 19.8701 8.421 19.8701Z" fill="#989DA4"/>
</g>
<mask id="mask1_1567_4184" style="mask-type:luminance" maskUnits="userSpaceOnUse" x="3" y="0" width="11" height="11">
<path fill-rule="evenodd" clip-rule="evenodd" d="M3.11035 0H13.7304V10.6186H3.11035V0Z" fill="white"/>
</mask>
<g mask="url(#mask1_1567_4184)">
<path fill-rule="evenodd" clip-rule="evenodd" d="M8.42138 1.42751C6.28038 1.42751 4.53838 3.16851 4.53838 5.30951C4.53138 7.44351 6.26038 9.18351 8.39238 9.19151L8.42138 9.90551V9.19151C10.5614 9.19151 12.3024 7.44951 12.3024 5.30951C12.3024 3.16851 10.5614 1.42751 8.42138 1.42751ZM8.42138 10.6185H8.38938C5.46738 10.6095 3.10038 8.22651 3.11038 5.30651C3.11038 2.38151 5.49238 -0.000488281 8.42138 -0.000488281C11.3494 -0.000488281 13.7304 2.38151 13.7304 5.30951C13.7304 8.23751 11.3494 10.6185 8.42138 10.6185Z" fill="#989DA4"/>
</g>
</svg>
