<svg width="21" height="21" viewBox="0 0 21 21" fill="none" xmlns="http://www.w3.org/2000/svg">
<mask id="mask0_1567_4162" style="mask-type:luminance" maskUnits="userSpaceOnUse" x="0" y="0" width="20" height="20">
<path fill-rule="evenodd" clip-rule="evenodd" d="M0.5 0H19.9768V19.477H0.5V0Z" fill="white"/>
</mask>
<g mask="url(#mask0_1567_4162)">
<path fill-rule="evenodd" clip-rule="evenodd" d="M10.239 1.5C5.696 1.5 2 5.195 2 9.738C2 14.281 5.696 17.977 10.239 17.977C14.781 17.977 18.477 14.281 18.477 9.738C18.477 5.195 14.781 1.5 10.239 1.5ZM10.239 19.477C4.869 19.477 0.5 15.108 0.5 9.738C0.5 4.368 4.869 0 10.239 0C15.609 0 19.977 4.368 19.977 9.738C19.977 15.108 15.609 19.477 10.239 19.477Z" fill="#989DA4"/>
</g>
<mask id="mask1_1567_4162" style="mask-type:luminance" maskUnits="userSpaceOnUse" x="15" y="15" width="6" height="6">
<path fill-rule="evenodd" clip-rule="evenodd" d="M15.7397 15.707H20.7638V20.7218H15.7397V15.707Z" fill="white"/>
</mask>
<g mask="url(#mask1_1567_4162)">
<path fill-rule="evenodd" clip-rule="evenodd" d="M20.014 20.7218C19.823 20.7218 19.631 20.6488 19.484 20.5028L15.96 16.9888C15.667 16.6958 15.666 16.2208 15.959 15.9278C16.251 15.6328 16.726 15.6348 17.02 15.9258L20.544 19.4408C20.837 19.7338 20.838 20.2078 20.545 20.5008C20.399 20.6488 20.206 20.7218 20.014 20.7218Z" fill="#989DA4"/>
</g>
</svg>
